<svg width="24" height="24" viewBox="0 0 24 24" fill="none" xmlns="http://www.w3.org/2000/svg">
<path d="M21.0003 17.9782C21.0012 18.1706 20.9638 18.3612 20.8904 18.539C20.8169 18.7169 20.7089 18.8783 20.5725 19.014C18.0321 21.66 13.4663 21.6614 10.928 19.014L4.98302 13.0691C2.33885 10.5345 2.33651 5.96373 4.9831 3.42778C5.25854 3.15321 5.6316 2.99902 6.02053 2.99902C6.40945 2.99902 6.78251 3.15321 7.05795 3.42778L9.76022 6.13004C10.0348 6.40548 10.189 6.77856 10.189 7.16751C10.189 7.55646 10.0348 7.92955 9.76022 8.20499L8.67933 9.28589C8.52482 9.44092 8.43806 9.65088 8.43806 9.86977C8.43806 10.0887 8.52482 10.2986 8.67933 10.4537L13.5434 15.3177C13.6984 15.4722 13.9084 15.559 14.1273 15.559C14.3461 15.559 14.5561 15.4722 14.7111 15.3177L15.792 14.2368C16.0679 13.9618 16.4416 13.8073 16.8311 13.8073C17.2207 13.8073 17.5944 13.9618 17.8702 14.2368L20.5725 16.9391C20.7089 17.0754 20.817 17.2374 20.8904 17.4158C20.9638 17.5942 21.0012 17.7853 21.0003 17.9782Z" fill="#0292FF"/>
</svg>
