<svg width="72" height="24" viewBox="0 0 72 24" fill="none" xmlns="http://www.w3.org/2000/svg">
<path d="M15.6504 7.09039C14.0753 4.63105 12.4774 2.6027 12.4614 2.58246L12.0013 2L11.5412 2.5825C11.5253 2.6027 9.92738 4.63105 8.35234 7.09043C6.19719 10.4555 5.10449 13.0034 5.10449 14.6634C5.10449 18.7088 8.1984 22 12.0014 22C15.8043 22 18.8982 18.7088 18.8982 14.6634C18.8982 13.0034 17.8055 10.4555 15.6504 7.09039Z" fill="#0292FF"/>
<path d="M39.6504 7.09039C38.0753 4.63105 36.4774 2.6027 36.4614 2.58246L36.0013 2L35.5412 2.5825C35.5253 2.6027 33.9274 4.63105 32.3523 7.09043C30.1972 10.4555 29.1045 13.0034 29.1045 14.6634C29.1045 18.7088 32.1984 22 36.0014 22C39.8043 22 42.8982 18.7088 42.8982 14.6634C42.8982 13.0034 41.8055 10.4555 39.6504 7.09039Z" fill="#0292FF"/>
<path d="M63.6504 7.09039C62.0753 4.63105 60.4774 2.6027 60.4614 2.58246L60.0013 2L59.5412 2.5825C59.5253 2.6027 57.9274 4.63105 56.3523 7.09043C54.1972 10.4555 53.1045 13.0034 53.1045 14.6634C53.1045 18.7088 56.1984 22 60.0014 22C63.8043 22 66.8982 18.7088 66.8982 14.6634C66.8982 13.0034 65.8055 10.4555 63.6504 7.09039Z" fill="#0292FF"/>
</svg>
