<svg width="793" height="288" viewBox="0 0 793 288" fill="none" xmlns="http://www.w3.org/2000/svg">
<g style="mix-blend-mode:soft-light" opacity="0.7">
<path d="M-806.556 -808.919H-873.82V-741.654M-806.556 -808.919V-741.654M-806.556 -808.919H-739.291M-806.556 -741.654H-873.82M-806.556 -741.654V-674.39M-806.556 -741.654H-739.291M-873.82 -741.654V-674.39M-806.556 -674.39H-873.82M-806.556 -674.39V-607.125M-806.556 -674.39H-739.291M-873.82 -674.39V-607.125M-806.556 -607.125H-873.82M-806.556 -607.125V-539.861M-806.556 -607.125H-739.291M-873.82 -607.125V-539.861M-806.556 -539.861H-873.82M-806.556 -539.861V-472.596M-806.556 -539.861H-739.291M-873.82 -539.861V-472.596M-806.556 -472.596H-873.82M-806.556 -472.596V-405.332M-806.556 -472.596H-739.291M-873.82 -472.596V-405.332M-806.556 -405.332H-873.82M-806.556 -405.332V-338.067M-806.556 -405.332H-739.291M-873.82 -405.332V-338.067M-806.556 -338.067H-873.82M-806.556 -338.067V-270.802M-806.556 -338.067H-739.291M-873.82 -338.067V-270.802M-806.556 -270.802H-873.82M-806.556 -270.802V-203.538M-806.556 -270.802H-739.291M-873.82 -270.802V-203.538M-806.556 -203.538H-873.82M-806.556 -203.538V-136.273M-806.556 -203.538H-739.291M-873.82 -203.538V-136.273M-806.556 -136.273H-873.82M-806.556 -136.273V-69.0087M-806.556 -136.273H-739.291M-873.82 -136.273V-69.0087M-806.556 -69.0087H-873.82M-806.556 -69.0087V-1.74408M-806.556 -69.0087H-739.291M-873.82 -69.0087V-1.74408M-806.556 -1.74408H-873.82M-806.556 -1.74408V65.5205M-806.556 -1.74408H-739.291M-873.82 -1.74408V65.5205M-806.556 65.5205H-873.82M-806.556 65.5205V132.785M-806.556 65.5205H-739.291M-873.82 65.5205V132.785M-806.556 132.785H-873.82M-806.556 132.785V200.05M-806.556 132.785H-739.291M-873.82 132.785V200.05M-806.556 200.05H-873.82M-806.556 200.05V267.314M-806.556 200.05H-739.291M-873.82 200.05V267.314M-806.556 267.314H-873.82M-806.556 267.314V334.579M-806.556 267.314H-739.291M-873.82 267.314V334.579M-806.556 334.579H-873.82M-806.556 334.579V401.843M-806.556 334.579H-739.291M-873.82 334.579V401.843M-806.556 401.843H-873.82M-806.556 401.843V469.108M-806.556 401.843H-739.291M-873.82 401.843V469.108M-806.556 469.108H-873.82M-806.556 469.108V536.372M-806.556 469.108H-739.291M-873.82 469.108V536.372H-806.556M-806.556 536.372H-739.291M-739.291 -808.919V-741.654M-739.291 -808.919H-672.027M-739.291 -741.654V-674.39M-739.291 -741.654H-672.027M-739.291 -674.39V-607.125M-739.291 -674.39H-672.027M-739.291 -607.125V-539.861M-739.291 -607.125H-672.027M-739.291 -539.861V-472.596M-739.291 -539.861H-672.027M-739.291 -472.596V-405.332M-739.291 -472.596H-672.027M-739.291 -405.332V-338.067M-739.291 -405.332H-672.027M-739.291 -338.067V-270.802M-739.291 -338.067H-672.027M-739.291 -270.802V-203.538M-739.291 -270.802H-672.027M-739.291 -203.538V-136.273M-739.291 -203.538H-672.027M-739.291 -136.273V-69.0087M-739.291 -136.273H-672.027M-739.291 -69.0087V-1.74408M-739.291 -69.0087H-672.027M-739.291 -1.74408V65.5205M-739.291 -1.74408H-672.027M-739.291 65.5205V132.785M-739.291 65.5205H-672.027M-739.291 132.785V200.05M-739.291 132.785H-672.027M-739.291 200.05V267.314M-739.291 200.05H-672.027M-739.291 267.314V334.579M-739.291 267.314H-672.027M-739.291 334.579V401.843M-739.291 334.579H-672.027M-739.291 401.843V469.108M-739.291 401.843H-672.027M-739.291 469.108V536.372M-739.291 469.108H-672.027M-739.291 536.372H-672.027M-672.027 -808.919V-741.654M-672.027 -808.919H-604.762M-672.027 -741.654V-674.39M-672.027 -741.654H-604.762M-672.027 -674.39V-607.125M-672.027 -674.39H-604.762M-672.027 -607.125V-539.861M-672.027 -607.125H-604.762M-672.027 -539.861V-472.596M-672.027 -539.861H-604.762M-672.027 -472.596V-405.332M-672.027 -472.596H-604.762M-672.027 -405.332V-338.067M-672.027 -405.332H-604.762M-672.027 -338.067V-270.802M-672.027 -338.067H-604.762M-672.027 -270.802V-203.538M-672.027 -270.802H-604.762M-672.027 -203.538V-136.273M-672.027 -203.538H-604.762M-672.027 -136.273V-69.0087M-672.027 -136.273H-604.762M-672.027 -69.0087V-1.74408M-672.027 -69.0087H-604.762M-672.027 -1.74408V65.5205M-672.027 -1.74408H-604.762M-672.027 65.5205V132.785M-672.027 65.5205H-604.762M-672.027 132.785V200.05M-672.027 132.785H-604.762M-672.027 200.05V267.314M-672.027 200.05H-604.762M-672.027 267.314V334.579M-672.027 267.314H-604.762M-672.027 334.579V401.843M-672.027 334.579H-604.762M-672.027 401.843V469.108M-672.027 401.843H-604.762M-672.027 469.108V536.372M-672.027 469.108H-604.762M-672.027 536.372H-604.762M-604.762 -808.919V-741.654M-604.762 -808.919H-537.497M-604.762 -741.654V-674.39M-604.762 -741.654H-537.497M-604.762 -674.39V-607.125M-604.762 -674.39H-537.497M-604.762 -607.125V-539.861M-604.762 -607.125H-537.497M-604.762 -539.861V-472.596M-604.762 -539.861H-537.497M-604.762 -472.596V-405.332M-604.762 -472.596H-537.497M-604.762 -405.332V-338.067M-604.762 -405.332H-537.497M-604.762 -338.067V-270.802M-604.762 -338.067H-537.497M-604.762 -270.802V-203.538M-604.762 -270.802H-537.497M-604.762 -203.538V-136.273M-604.762 -203.538H-537.497M-604.762 -136.273V-69.0087M-604.762 -136.273H-537.497M-604.762 -69.0087V-1.74408M-604.762 -69.0087H-537.497M-604.762 -1.74408V65.5205M-604.762 -1.74408H-537.497M-604.762 65.5205V132.785M-604.762 65.5205H-537.497M-604.762 132.785V200.05M-604.762 132.785H-537.497M-604.762 200.05V267.314M-604.762 200.05H-537.497M-604.762 267.314V334.579M-604.762 267.314H-537.497M-604.762 334.579V401.843M-604.762 334.579H-537.497M-604.762 401.843V469.108M-604.762 401.843H-537.497M-604.762 469.108V536.372M-604.762 469.108H-537.497M-604.762 536.372H-537.497M-537.497 -808.919V-741.654M-537.497 -808.919H-470.233M-537.497 -741.654V-674.39M-537.497 -741.654H-470.233M-537.497 -674.39V-607.125M-537.497 -674.39H-470.233M-537.497 -607.125V-539.861M-537.497 -607.125H-470.233M-537.497 -539.861V-472.596M-537.497 -539.861H-470.233M-537.497 -472.596V-405.332M-537.497 -472.596H-470.233M-537.497 -405.332V-338.067M-537.497 -405.332H-470.233M-537.497 -338.067V-270.802M-537.497 -338.067H-470.233M-537.497 -270.802V-203.538M-537.497 -270.802H-470.233M-537.497 -203.538V-136.273M-537.497 -203.538H-470.233M-537.497 -136.273V-69.0087M-537.497 -136.273H-470.233M-537.497 -69.0087V-1.74408M-537.497 -69.0087H-470.233M-537.497 -1.74408V65.5205M-537.497 -1.74408H-470.233M-537.497 65.5205V132.785M-537.497 65.5205H-470.233M-537.497 132.785V200.05M-537.497 132.785H-470.233M-537.497 200.05V267.314M-537.497 200.05H-470.233M-537.497 267.314V334.579M-537.497 267.314H-470.233M-537.497 334.579V401.843M-537.497 334.579H-470.233M-537.497 401.843V469.108M-537.497 401.843H-470.233M-537.497 469.108V536.372M-537.497 469.108H-470.233M-537.497 536.372H-470.233M-470.233 -808.919V-741.654M-470.233 -808.919H-402.968M-470.233 -741.654V-674.39M-470.233 -741.654H-402.968M-470.233 -674.39V-607.125M-470.233 -674.39H-402.968M-470.233 -607.125V-539.861M-470.233 -607.125H-402.968M-470.233 -539.861V-472.596M-470.233 -539.861H-402.968M-470.233 -472.596V-405.332M-470.233 -472.596H-402.968M-470.233 -405.332V-338.067M-470.233 -405.332H-402.968M-470.233 -338.067V-270.802M-470.233 -338.067H-402.968M-470.233 -270.802V-203.538M-470.233 -270.802H-402.968M-470.233 -203.538V-136.273M-470.233 -203.538H-402.968M-470.233 -136.273V-69.0087M-470.233 -136.273H-402.968M-470.233 -69.0087V-1.74408M-470.233 -69.0087H-402.968M-470.233 -1.74408V65.5205M-470.233 -1.74408H-402.968M-470.233 65.5205V132.785M-470.233 65.5205H-402.968M-470.233 132.785V200.05M-470.233 132.785H-402.968M-470.233 200.05V267.314M-470.233 200.05H-402.968M-470.233 267.314V334.579M-470.233 267.314H-402.968M-470.233 334.579V401.843M-470.233 334.579H-402.968M-470.233 401.843V469.108M-470.233 401.843H-402.968M-470.233 469.108V536.372M-470.233 469.108H-402.968M-470.233 536.372H-402.968M-402.968 -808.919V-741.654M-402.968 -808.919H-335.704M-402.968 -741.654V-674.39M-402.968 -741.654H-335.704M-402.968 -674.39V-607.125M-402.968 -674.39H-335.704M-402.968 -607.125V-539.861M-402.968 -607.125H-335.704M-402.968 -539.861V-472.596M-402.968 -539.861H-335.704M-402.968 -472.596V-405.332M-402.968 -472.596H-335.704M-402.968 -405.332V-338.067M-402.968 -405.332H-335.704M-402.968 -338.067V-270.802M-402.968 -338.067H-335.704M-402.968 -270.802V-203.538M-402.968 -270.802H-335.704M-402.968 -203.538V-136.273M-402.968 -203.538H-335.704M-402.968 -136.273V-69.0087M-402.968 -136.273H-335.704M-402.968 -69.0087V-1.74408M-402.968 -69.0087H-335.704M-402.968 -1.74408V65.5205M-402.968 -1.74408H-335.704M-402.968 65.5205V132.785M-402.968 65.5205H-335.704M-402.968 132.785V200.05M-402.968 132.785H-335.704M-402.968 200.05V267.314M-402.968 200.05H-335.704M-402.968 267.314V334.579M-402.968 267.314H-335.704M-402.968 334.579V401.843M-402.968 334.579H-335.704M-402.968 401.843V469.108M-402.968 401.843H-335.704M-402.968 469.108V536.372M-402.968 469.108H-335.704M-402.968 536.372H-335.704M-335.704 -808.919V-741.654M-335.704 -808.919H-268.439M-335.704 -741.654V-674.39M-335.704 -741.654H-268.439M-335.704 -674.39V-607.125M-335.704 -674.39H-268.439M-335.704 -607.125V-539.861M-335.704 -607.125H-268.439M-335.704 -539.861V-472.596M-335.704 -539.861H-268.439M-335.704 -472.596V-405.332M-335.704 -472.596H-268.439M-335.704 -405.332V-338.067M-335.704 -405.332H-268.439M-335.704 -338.067V-270.802M-335.704 -338.067H-268.439M-335.704 -270.802V-203.538M-335.704 -270.802H-268.439M-335.704 -203.538V-136.273M-335.704 -203.538H-268.439M-335.704 -136.273V-69.0087M-335.704 -136.273H-268.439M-335.704 -69.0087V-1.74408M-335.704 -69.0087H-268.439M-335.704 -1.74408V65.5205M-335.704 -1.74408H-268.439M-335.704 65.5205V132.785M-335.704 65.5205H-268.439M-335.704 132.785V200.05M-335.704 132.785H-268.439M-335.704 200.05V267.314M-335.704 200.05H-268.439M-335.704 267.314V334.579M-335.704 267.314H-268.439M-335.704 334.579V401.843M-335.704 334.579H-268.439M-335.704 401.843V469.108M-335.704 401.843H-268.439M-335.704 469.108V536.372M-335.704 469.108H-268.439M-335.704 536.372H-268.439M-268.439 -808.919V-741.654M-268.439 -808.919H-201.175M-268.439 -741.654V-674.39M-268.439 -741.654H-201.175M-268.439 -674.39V-607.125M-268.439 -674.39H-201.175M-268.439 -607.125V-539.861M-268.439 -607.125H-201.175M-268.439 -539.861V-472.596M-268.439 -539.861H-201.175M-268.439 -472.596V-405.332M-268.439 -472.596H-201.175M-268.439 -405.332V-338.067M-268.439 -405.332H-201.175M-268.439 -338.067V-270.802M-268.439 -338.067H-201.175M-268.439 -270.802V-203.538M-268.439 -270.802H-201.175M-268.439 -203.538V-136.273M-268.439 -203.538H-201.175M-268.439 -136.273V-69.0087M-268.439 -136.273H-201.175M-268.439 -69.0087V-1.74408M-268.439 -69.0087H-201.175M-268.439 -1.74408V65.5205M-268.439 -1.74408H-201.175M-268.439 65.5205V132.785M-268.439 65.5205H-201.175M-268.439 132.785V200.05M-268.439 132.785H-201.175M-268.439 200.05V267.314M-268.439 200.05H-201.175M-268.439 267.314V334.579M-268.439 267.314H-201.175M-268.439 334.579V401.843M-268.439 334.579H-201.175M-268.439 401.843V469.108M-268.439 401.843H-201.175M-268.439 469.108V536.372M-268.439 469.108H-201.175M-268.439 536.372H-201.175M-201.175 -808.919V-741.654M-201.175 -808.919H-133.91M-201.175 -741.654V-674.39M-201.175 -741.654H-133.91M-201.175 -674.39V-607.125M-201.175 -674.39H-133.91M-201.175 -607.125V-539.861M-201.175 -607.125H-133.91M-201.175 -539.861V-472.596M-201.175 -539.861H-133.91M-201.175 -472.596V-405.332M-201.175 -472.596H-133.91M-201.175 -405.332V-338.067M-201.175 -405.332H-133.91M-201.175 -338.067V-270.802M-201.175 -338.067H-133.91M-201.175 -270.802V-203.538M-201.175 -270.802H-133.91M-201.175 -203.538V-136.273M-201.175 -203.538H-133.91M-201.175 -136.273V-69.0087M-201.175 -136.273H-133.91M-201.175 -69.0087V-1.74408M-201.175 -69.0087H-133.91M-201.175 -1.74408V65.5205M-201.175 -1.74408H-133.91M-201.175 65.5205V132.785M-201.175 65.5205H-133.91M-201.175 132.785V200.05M-201.175 132.785H-133.91M-201.175 200.05V267.314M-201.175 200.05H-133.91M-201.175 267.314V334.579M-201.175 267.314H-133.91M-201.175 334.579V401.843M-201.175 334.579H-133.91M-201.175 401.843V469.108M-201.175 401.843H-133.91M-201.175 469.108V536.372M-201.175 469.108H-133.91M-201.175 536.372H-133.91M-133.91 -808.919V-741.654M-133.91 -808.919H-66.6454M-133.91 -741.654V-674.39M-133.91 -741.654H-66.6454M-133.91 -674.39V-607.125M-133.91 -674.39H-66.6454M-133.91 -607.125V-539.861M-133.91 -607.125H-66.6454M-133.91 -539.861V-472.596M-133.91 -539.861H-66.6454M-133.91 -472.596V-405.332M-133.91 -472.596H-66.6454M-133.91 -405.332V-338.067M-133.91 -405.332H-66.6454M-133.91 -338.067V-270.802M-133.91 -338.067H-66.6454M-133.91 -270.802V-203.538M-133.91 -270.802H-66.6454M-133.91 -203.538V-136.273M-133.91 -203.538H-66.6454M-133.91 -136.273V-69.0087M-133.91 -136.273H-66.6454M-133.91 -69.0087V-1.74408M-133.91 -69.0087H-66.6454M-133.91 -1.74408V65.5205M-133.91 -1.74408H-66.6454M-133.91 65.5205V132.785M-133.91 65.5205H-66.6454M-133.91 132.785V200.05M-133.91 132.785H-66.6454M-133.91 200.05V267.314M-133.91 200.05H-66.6454M-133.91 267.314V334.579M-133.91 267.314H-66.6454M-133.91 334.579V401.843M-133.91 334.579H-66.6454M-133.91 401.843V469.108M-133.91 401.843H-66.6454M-133.91 469.108V536.372M-133.91 469.108H-66.6454M-133.91 536.372H-66.6454M-66.6454 -808.919V-741.654M-66.6454 -808.919H0.619202M-66.6454 -741.654V-674.39M-66.6454 -741.654H0.619202M-66.6454 -674.39V-607.125M-66.6454 -674.39H0.619202M-66.6454 -607.125V-539.861M-66.6454 -607.125H0.619202M-66.6454 -539.861V-472.596M-66.6454 -539.861H0.619202M-66.6454 -472.596V-405.332M-66.6454 -472.596H0.619202M-66.6454 -405.332V-338.067M-66.6454 -405.332H0.619202M-66.6454 -338.067V-270.802M-66.6454 -338.067H0.619202M-66.6454 -270.802V-203.538M-66.6454 -270.802H0.619202M-66.6454 -203.538V-136.273M-66.6454 -203.538H0.619202M-66.6454 -136.273V-69.0087M-66.6454 -136.273H0.619202M-66.6454 -69.0087V-1.74408M-66.6454 -69.0087H0.619202M-66.6454 -1.74408V65.5205M-66.6454 -1.74408H0.619202M-66.6454 65.5205V132.785M-66.6454 65.5205H0.619202M-66.6454 132.785V200.05M-66.6454 132.785H0.619202M-66.6454 200.05V267.314M-66.6454 200.05H0.619202M-66.6454 267.314V334.579M-66.6454 267.314H0.619202M-66.6454 334.579V401.843M-66.6454 334.579H0.619202M-66.6454 401.843V469.108M-66.6454 401.843H0.619202M-66.6454 469.108V536.372M-66.6454 469.108H0.619202M-66.6454 536.372H0.619202M0.619202 -808.919V-741.654M0.619202 -808.919H67.8837M0.619202 -741.654V-674.39M0.619202 -741.654H67.8837M0.619202 -674.39V-607.125M0.619202 -674.39H67.8837M0.619202 -607.125V-539.861M0.619202 -607.125H67.8837M0.619202 -539.861V-472.596M0.619202 -539.861H67.8837M0.619202 -472.596V-405.332M0.619202 -472.596H67.8837M0.619202 -405.332V-338.067M0.619202 -405.332H67.8837M0.619202 -338.067V-270.802M0.619202 -338.067H67.8837M0.619202 -270.802V-203.538M0.619202 -270.802H67.8837M0.619202 -203.538V-136.273M0.619202 -203.538H67.8837M0.619202 -136.273V-69.0087M0.619202 -136.273H67.8837M0.619202 -69.0087V-1.74408M0.619202 -69.0087H67.8837M0.619202 -1.74408V65.5205M0.619202 -1.74408H67.8837M0.619202 65.5205V132.785M0.619202 65.5205H67.8837M0.619202 132.785V200.05M0.619202 132.785H67.8837M0.619202 200.05V267.314M0.619202 200.05H67.8837M0.619202 267.314V334.579M0.619202 267.314H67.8837M0.619202 334.579V401.843M0.619202 334.579H67.8837M0.619202 401.843V469.108M0.619202 401.843H67.8837M0.619202 469.108V536.372M0.619202 469.108H67.8837M0.619202 536.372H67.8837M67.8837 -808.919V-741.654M67.8837 -808.919H135.148M67.8837 -741.654V-674.39M67.8837 -741.654H135.148M67.8837 -674.39V-607.125M67.8837 -674.39H135.148M67.8837 -607.125V-539.861M67.8837 -607.125H135.148M67.8837 -539.861V-472.596M67.8837 -539.861H135.148M67.8837 -472.596V-405.332M67.8837 -472.596H135.148M67.8837 -405.332V-338.067M67.8837 -405.332H135.148M67.8837 -338.067V-270.802M67.8837 -338.067H135.148M67.8837 -270.802V-203.538M67.8837 -270.802H135.148M67.8837 -203.538V-136.273M67.8837 -203.538H135.148M67.8837 -136.273V-69.0087M67.8837 -136.273H135.148M67.8837 -69.0087V-1.74408M67.8837 -69.0087H135.148M67.8837 -1.74408V65.5205M67.8837 -1.74408H135.148M67.8837 65.5205V132.785M67.8837 65.5205H135.148M67.8837 132.785V200.05M67.8837 132.785H135.148M67.8837 200.05V267.314M67.8837 200.05H135.148M67.8837 267.314V334.579M67.8837 267.314H135.148M67.8837 334.579V401.843M67.8837 334.579H135.148M67.8837 401.843V469.108M67.8837 401.843H135.148M67.8837 469.108V536.372M67.8837 469.108H135.148M67.8837 536.372H135.148M135.148 -808.919V-741.654M135.148 -808.919H202.413M135.148 -741.654V-674.39M135.148 -741.654H202.413M135.148 -674.39V-607.125M135.148 -674.39H202.413M135.148 -607.125V-539.861M135.148 -607.125H202.413M135.148 -539.861V-472.596M135.148 -539.861H202.413M135.148 -472.596V-405.332M135.148 -472.596H202.413M135.148 -405.332V-338.067M135.148 -405.332H202.413M135.148 -338.067V-270.802M135.148 -338.067H202.413M135.148 -270.802V-203.538M135.148 -270.802H202.413M135.148 -203.538V-136.273M135.148 -203.538H202.413M135.148 -136.273V-69.0087M135.148 -136.273H202.413M135.148 -69.0087V-1.74408M135.148 -69.0087H202.413M135.148 -1.74408V65.5205M135.148 -1.74408H202.413M135.148 65.5205V132.785M135.148 65.5205H202.413M135.148 132.785V200.05M135.148 132.785H202.413M135.148 200.05V267.314M135.148 200.05H202.413M135.148 267.314V334.579M135.148 267.314H202.413M135.148 334.579V401.843M135.148 334.579H202.413M135.148 401.843V469.108M135.148 401.843H202.413M135.148 469.108V536.372M135.148 469.108H202.413M135.148 536.372H202.413M202.413 -808.919V-741.654M202.413 -808.919H269.677M202.413 -741.654V-674.39M202.413 -741.654H269.677M202.413 -674.39V-607.125M202.413 -674.39H269.677M202.413 -607.125V-539.861M202.413 -607.125H269.677M202.413 -539.861V-472.596M202.413 -539.861H269.677M202.413 -472.596V-405.332M202.413 -472.596H269.677M202.413 -405.332V-338.067M202.413 -405.332H269.677M202.413 -338.067V-270.802M202.413 -338.067H269.677M202.413 -270.802V-203.538M202.413 -270.802H269.677M202.413 -203.538V-136.273M202.413 -203.538H269.677M202.413 -136.273V-69.0087M202.413 -136.273H269.677M202.413 -69.0087V-1.74408M202.413 -69.0087H269.677M202.413 -1.74408V65.5205M202.413 -1.74408H269.677M202.413 65.5205V132.785M202.413 65.5205H269.677M202.413 132.785V200.05M202.413 132.785H269.677M202.413 200.05V267.314M202.413 200.05H269.677M202.413 267.314V334.579M202.413 267.314H269.677M202.413 334.579V401.843M202.413 334.579H269.677M202.413 401.843V469.108M202.413 401.843H269.677M202.413 469.108V536.372M202.413 469.108H269.677M202.413 536.372H269.677M269.677 -808.919V-741.654M269.677 -808.919H336.942M269.677 -741.654V-674.39M269.677 -741.654H336.942M269.677 -674.39V-607.125M269.677 -674.39H336.942M269.677 -607.125V-539.861M269.677 -607.125H336.942M269.677 -539.861V-472.596M269.677 -539.861H336.942M269.677 -472.596V-405.332M269.677 -472.596H336.942M269.677 -405.332V-338.067M269.677 -405.332H336.942M269.677 -338.067V-270.802M269.677 -338.067H336.942M269.677 -270.802V-203.538M269.677 -270.802H336.942M269.677 -203.538V-136.273M269.677 -203.538H336.942M269.677 -136.273V-69.0087M269.677 -136.273H336.942M269.677 -69.0087V-1.74408M269.677 -69.0087H336.942M269.677 -1.74408V65.5205M269.677 -1.74408H336.942M269.677 65.5205V132.785M269.677 65.5205H336.942M269.677 132.785V200.05M269.677 132.785H336.942M269.677 200.05V267.314M269.677 200.05H336.942M269.677 267.314V334.579M269.677 267.314H336.942M269.677 334.579V401.843M269.677 334.579H336.942M269.677 401.843V469.108M269.677 401.843H336.942M269.677 469.108V536.372M269.677 469.108H336.942M269.677 536.372H336.942M336.942 -808.919V-741.654M336.942 -808.919H404.207M336.942 -741.654V-674.39M336.942 -741.654H404.207M336.942 -674.39V-607.125M336.942 -674.39H404.207M336.942 -607.125V-539.861M336.942 -607.125H404.207M336.942 -539.861V-472.596M336.942 -539.861H404.207M336.942 -472.596V-405.332M336.942 -472.596H404.207M336.942 -405.332V-338.067M336.942 -405.332H404.207M336.942 -338.067V-270.802M336.942 -338.067H404.207M336.942 -270.802V-203.538M336.942 -270.802H404.207M336.942 -203.538V-136.273M336.942 -203.538H404.207M336.942 -136.273V-69.0087M336.942 -136.273H404.207M336.942 -69.0087V-1.74408M336.942 -69.0087H404.207M336.942 -1.74408V65.5205M336.942 -1.74408H404.207M336.942 65.5205V132.785M336.942 65.5205H404.207M336.942 132.785V200.05M336.942 132.785H404.207M336.942 200.05V267.314M336.942 200.05H404.207M336.942 267.314V334.579M336.942 267.314H404.207M336.942 334.579V401.843M336.942 334.579H404.207M336.942 401.843V469.108M336.942 401.843H404.207M336.942 469.108V536.372M336.942 469.108H404.207M336.942 536.372H404.207M404.207 -808.919V-741.654M404.207 -808.919H471.471M404.207 -741.654V-674.39M404.207 -741.654H471.471M404.207 -674.39V-607.125M404.207 -674.39H471.471M404.207 -607.125V-539.861M404.207 -607.125H471.471M404.207 -539.861V-472.596M404.207 -539.861H471.471M404.207 -472.596V-405.332M404.207 -472.596H471.471M404.207 -405.332V-338.067M404.207 -405.332H471.471M404.207 -338.067V-270.802M404.207 -338.067H471.471M404.207 -270.802V-203.538M404.207 -270.802H471.471M404.207 -203.538V-136.273M404.207 -203.538H471.471M404.207 -136.273V-69.0087M404.207 -136.273H471.471M404.207 -69.0087V-1.74408M404.207 -69.0087H471.471M404.207 -1.74408V65.5205M404.207 -1.74408H471.471M404.207 65.5205V132.785M404.207 65.5205H471.471M404.207 132.785V200.05M404.207 132.785H471.471M404.207 200.05V267.314M404.207 200.05H471.471M404.207 267.314V334.579M404.207 267.314H471.471M404.207 334.579V401.843M404.207 334.579H471.471M404.207 401.843V469.108M404.207 401.843H471.471M404.207 469.108V536.372M404.207 469.108H471.471M404.207 536.372H471.471M471.471 -808.919V-741.654M471.471 -808.919H538.736M471.471 -741.654V-674.39M471.471 -741.654H538.736M471.471 -674.39V-607.125M471.471 -674.39H538.736M471.471 -607.125V-539.861M471.471 -607.125H538.736M471.471 -539.861V-472.596M471.471 -539.861H538.736M471.471 -472.596V-405.332M471.471 -472.596H538.736M471.471 -405.332V-338.067M471.471 -405.332H538.736M471.471 -338.067V-270.802M471.471 -338.067H538.736M471.471 -270.802V-203.538M471.471 -270.802H538.736M471.471 -203.538V-136.273M471.471 -203.538H538.736M471.471 -136.273V-69.0087M471.471 -136.273H538.736M471.471 -69.0087V-1.74408M471.471 -69.0087H538.736M471.471 -1.74408V65.5205M471.471 -1.74408H538.736M471.471 65.5205V132.785M471.471 65.5205H538.736M471.471 132.785V200.05M471.471 132.785H538.736M471.471 200.05V267.314M471.471 200.05H538.736M471.471 267.314V334.579M471.471 267.314H538.736M471.471 334.579V401.843M471.471 334.579H538.736M471.471 401.843V469.108M471.471 401.843H538.736M471.471 469.108V536.372M471.471 469.108H538.736M471.471 536.372H538.736M538.736 -808.919V-741.654M538.736 -808.919H606M538.736 -741.654V-674.39M538.736 -741.654H606M538.736 -674.39V-607.125M538.736 -674.39H606M538.736 -607.125V-539.861M538.736 -607.125H606M538.736 -539.861V-472.596M538.736 -539.861H606M538.736 -472.596V-405.332M538.736 -472.596H606M538.736 -405.332V-338.067M538.736 -405.332H606M538.736 -338.067V-270.802M538.736 -338.067H606M538.736 -270.802V-203.538M538.736 -270.802H606M538.736 -203.538V-136.273M538.736 -203.538H606M538.736 -136.273V-69.0087M538.736 -136.273H606M538.736 -69.0087V-1.74408M538.736 -69.0087H606M538.736 -1.74408V65.5205M538.736 -1.74408H606M538.736 65.5205V132.785M538.736 65.5205H606M538.736 132.785V200.05M538.736 132.785H606M538.736 200.05V267.314M538.736 200.05H606M538.736 267.314V334.579M538.736 267.314H606M538.736 334.579V401.843M538.736 334.579H606M538.736 401.843V469.108M538.736 401.843H606M538.736 469.108V536.372M538.736 469.108H606M538.736 536.372H606M606 -808.919V-741.654M606 -808.919H673.265M606 -741.654V-674.39M606 -741.654H673.265M606 -674.39V-607.125M606 -674.39H673.265M606 -607.125V-539.861M606 -607.125H673.265M606 -539.861V-472.596M606 -539.861H673.265M606 -472.596V-405.332M606 -472.596H673.265M606 -405.332V-338.067M606 -405.332H673.265M606 -338.067V-270.802M606 -338.067H673.265M606 -270.802V-203.538M606 -270.802H673.265M606 -203.538V-136.273M606 -203.538H673.265M606 -136.273V-69.0087M606 -136.273H673.265M606 -69.0087V-1.74408M606 -69.0087H673.265M606 -1.74408V65.5205M606 -1.74408H673.265M606 65.5205V132.785M606 65.5205H673.265M606 132.785V200.05M606 132.785H673.265M606 200.05V267.314M606 200.05H673.265M606 267.314V334.579M606 267.314H673.265M606 334.579V401.843M606 334.579H673.265M606 401.843V469.108M606 401.843H673.265M606 469.108V536.372M606 469.108H673.265M606 536.372H673.265M673.265 -808.919V-741.654M673.265 -808.919H740.53M673.265 -741.654V-674.39M673.265 -741.654H740.53M673.265 -674.39V-607.125M673.265 -674.39H740.53M673.265 -607.125V-539.861M673.265 -607.125H740.53M673.265 -539.861V-472.596M673.265 -539.861H740.53M673.265 -472.596V-405.332M673.265 -472.596H740.53M673.265 -405.332V-338.067M673.265 -405.332H740.53M673.265 -338.067V-270.802M673.265 -338.067H740.53M673.265 -270.802V-203.538M673.265 -270.802H740.53M673.265 -203.538V-136.273M673.265 -203.538H740.53M673.265 -136.273V-69.0087M673.265 -136.273H740.53M673.265 -69.0087V-1.74408M673.265 -69.0087H740.53M673.265 -1.74408V65.5205M673.265 -1.74408H740.53M673.265 65.5205V132.785M673.265 65.5205H740.53M673.265 132.785V200.05M673.265 132.785H740.53M673.265 200.05V267.314M673.265 200.05H740.53M673.265 267.314V334.579M673.265 267.314H740.53M673.265 334.579V401.843M673.265 334.579H740.53M673.265 401.843V469.108M673.265 401.843H740.53M673.265 469.108V536.372M673.265 469.108H740.53M673.265 536.372H740.53M740.53 -808.919V-741.654M740.53 -808.919H807.794M740.53 -741.654V-674.39M740.53 -741.654H807.794M740.53 -674.39V-607.125M740.53 -674.39H807.794M740.53 -607.125V-539.861M740.53 -607.125H807.794M740.53 -539.861V-472.596M740.53 -539.861H807.794M740.53 -472.596V-405.332M740.53 -472.596H807.794M740.53 -405.332V-338.067M740.53 -405.332H807.794M740.53 -338.067V-270.802M740.53 -338.067H807.794M740.53 -270.802V-203.538M740.53 -270.802H807.794M740.53 -203.538V-136.273M740.53 -203.538H807.794M740.53 -136.273V-69.0087M740.53 -136.273H807.794M740.53 -69.0087V-1.74408M740.53 -69.0087H807.794M740.53 -1.74408V65.5205M740.53 -1.74408H807.794M740.53 65.5205V132.785M740.53 65.5205H807.794M740.53 132.785V200.05M740.53 132.785H807.794M740.53 200.05V267.314M740.53 200.05H807.794M740.53 267.314V334.579M740.53 267.314H807.794M740.53 334.579V401.843M740.53 334.579H807.794M740.53 401.843V469.108M740.53 401.843H807.794M740.53 469.108V536.372M740.53 469.108H807.794M740.53 536.372H807.794M807.794 -808.919V-741.654M807.794 -808.919H875.059M807.794 -741.654V-674.39M807.794 -741.654H875.059M807.794 -674.39V-607.125M807.794 -674.39H875.059M807.794 -607.125V-539.861M807.794 -607.125H875.059M807.794 -539.861V-472.596M807.794 -539.861H875.059M807.794 -472.596V-405.332M807.794 -472.596H875.059M807.794 -405.332V-338.067M807.794 -405.332H875.059M807.794 -338.067V-270.802M807.794 -338.067H875.059M807.794 -270.802V-203.538M807.794 -270.802H875.059M807.794 -203.538V-136.273M807.794 -203.538H875.059M807.794 -136.273V-69.0087M807.794 -136.273H875.059M807.794 -69.0087V-1.74408M807.794 -69.0087H875.059M807.794 -1.74408V65.5205M807.794 -1.74408H875.059M807.794 65.5205V132.785M807.794 65.5205H875.059M807.794 132.785V200.05M807.794 132.785H875.059M807.794 200.05V267.314M807.794 200.05H875.059M807.794 267.314V334.579M807.794 267.314H875.059M807.794 334.579V401.843M807.794 334.579H875.059M807.794 401.843V469.108M807.794 401.843H875.059M807.794 469.108V536.372M807.794 469.108H875.059M807.794 536.372H875.059M875.059 -808.919V-741.654M875.059 -808.919H942.323M875.059 -741.654V-674.39M875.059 -741.654H942.323M875.059 -674.39V-607.125M875.059 -674.39H942.323M875.059 -607.125V-539.861M875.059 -607.125H942.323M875.059 -539.861V-472.596M875.059 -539.861H942.323M875.059 -472.596V-405.332M875.059 -472.596H942.323M875.059 -405.332V-338.067M875.059 -405.332H942.323M875.059 -338.067V-270.802M875.059 -338.067H942.323M875.059 -270.802V-203.538M875.059 -270.802H942.323M875.059 -203.538V-136.273M875.059 -203.538H942.323M875.059 -136.273V-69.0087M875.059 -136.273H942.323M875.059 -69.0087V-1.74408M875.059 -69.0087H942.323M875.059 -1.74408V65.5205M875.059 -1.74408H942.323M875.059 65.5205V132.785M875.059 65.5205H942.323M875.059 132.785V200.05M875.059 132.785H942.323M875.059 200.05V267.314M875.059 200.05H942.323M875.059 267.314V334.579M875.059 267.314H942.323M875.059 334.579V401.843M875.059 334.579H942.323M875.059 401.843V469.108M875.059 401.843H942.323M875.059 469.108V536.372M875.059 469.108H942.323M875.059 536.372H942.323M942.323 -808.919V-741.654M942.323 -808.919H1009.59M942.323 -741.654V-674.39M942.323 -741.654H1009.59M942.323 -674.39V-607.125M942.323 -674.39H1009.59M942.323 -607.125V-539.861M942.323 -607.125H1009.59M942.323 -539.861V-472.596M942.323 -539.861H1009.59M942.323 -472.596V-405.332M942.323 -472.596H1009.59M942.323 -405.332V-338.067M942.323 -405.332H1009.59M942.323 -338.067V-270.802M942.323 -338.067H1009.59M942.323 -270.802V-203.538M942.323 -270.802H1009.59M942.323 -203.538V-136.273M942.323 -203.538H1009.59M942.323 -136.273V-69.0087M942.323 -136.273H1009.59M942.323 -69.0087V-1.74408M942.323 -69.0087H1009.59M942.323 -1.74408V65.5205M942.323 -1.74408H1009.59M942.323 65.5205V132.785M942.323 65.5205H1009.59M942.323 132.785V200.05M942.323 132.785H1009.59M942.323 200.05V267.314M942.323 200.05H1009.59M942.323 267.314V334.579M942.323 267.314H1009.59M942.323 334.579V401.843M942.323 334.579H1009.59M942.323 401.843V469.108M942.323 401.843H1009.59M942.323 469.108V536.372M942.323 469.108H1009.59M942.323 536.372H1009.59M1009.59 -808.919V-741.654M1009.59 -808.919H1076.85M1009.59 -741.654V-674.39M1009.59 -741.654H1076.85M1009.59 -674.39V-607.125M1009.59 -674.39H1076.85M1009.59 -607.125V-539.861M1009.59 -607.125H1076.85M1009.59 -539.861V-472.596M1009.59 -539.861H1076.85M1009.59 -472.596V-405.332M1009.59 -472.596H1076.85M1009.59 -405.332V-338.067M1009.59 -405.332H1076.85M1009.59 -338.067V-270.802M1009.59 -338.067H1076.85M1009.59 -270.802V-203.538M1009.59 -270.802H1076.85M1009.59 -203.538V-136.273M1009.59 -203.538H1076.85M1009.59 -136.273V-69.0087M1009.59 -136.273H1076.85M1009.59 -69.0087V-1.74408M1009.59 -69.0087H1076.85M1009.59 -1.74408V65.5205M1009.59 -1.74408H1076.85M1009.59 65.5205V132.785M1009.59 65.5205H1076.85M1009.59 132.785V200.05M1009.59 132.785H1076.85M1009.59 200.05V267.314M1009.59 200.05H1076.85M1009.59 267.314V334.579M1009.59 267.314H1076.85M1009.59 334.579V401.843M1009.59 334.579H1076.85M1009.59 401.843V469.108M1009.59 401.843H1076.85M1009.59 469.108V536.372M1009.59 469.108H1076.85M1009.59 536.372H1076.85M1076.85 -808.919V-741.654M1076.85 -808.919H1144.12M1076.85 -741.654V-674.39M1076.85 -741.654H1144.12M1076.85 -674.39V-607.125M1076.85 -674.39H1144.12M1076.85 -607.125V-539.861M1076.85 -607.125H1144.12M1076.85 -539.861V-472.596M1076.85 -539.861H1144.12M1076.85 -472.596V-405.332M1076.85 -472.596H1144.12M1076.85 -405.332V-338.067M1076.85 -405.332H1144.12M1076.85 -338.067V-270.802M1076.85 -338.067H1144.12M1076.85 -270.802V-203.538M1076.85 -270.802H1144.12M1076.85 -203.538V-136.273M1076.85 -203.538H1144.12M1076.85 -136.273V-69.0087M1076.85 -136.273H1144.12M1076.85 -69.0087V-1.74408M1076.85 -69.0087H1144.12M1076.85 -1.74408V65.5205M1076.85 -1.74408H1144.12M1076.85 65.5205V132.785M1076.85 65.5205H1144.12M1076.85 132.785V200.05M1076.85 132.785H1144.12M1076.85 200.05V267.314M1076.85 200.05H1144.12M1076.85 267.314V334.579M1076.85 267.314H1144.12M1076.85 334.579V401.843M1076.85 334.579H1144.12M1076.85 401.843V469.108M1076.85 401.843H1144.12M1076.85 469.108V536.372M1076.85 469.108H1144.12M1076.85 536.372H1144.12M1144.12 -808.919V-741.654M1144.12 -808.919H1211.38M1144.12 -741.654V-674.39M1144.12 -741.654H1211.38M1144.12 -674.39V-607.125M1144.12 -674.39H1211.38M1144.12 -607.125V-539.861M1144.12 -607.125H1211.38M1144.12 -539.861V-472.596M1144.12 -539.861H1211.38M1144.12 -472.596V-405.332M1144.12 -472.596H1211.38M1144.12 -405.332V-338.067M1144.12 -405.332H1211.38M1144.12 -338.067V-270.802M1144.12 -338.067H1211.38M1144.12 -270.802V-203.538M1144.12 -270.802H1211.38M1144.12 -203.538V-136.273M1144.12 -203.538H1211.38M1144.12 -136.273V-69.0087M1144.12 -136.273H1211.38M1144.12 -69.0087V-1.74408M1144.12 -69.0087H1211.38M1144.12 -1.74408V65.5205M1144.12 -1.74408H1211.38M1144.12 65.5205V132.785M1144.12 65.5205H1211.38M1144.12 132.785V200.05M1144.12 132.785H1211.38M1144.12 200.05V267.314M1144.12 200.05H1211.38M1144.12 267.314V334.579M1144.12 267.314H1211.38M1144.12 334.579V401.843M1144.12 334.579H1211.38M1144.12 401.843V469.108M1144.12 401.843H1211.38M1144.12 469.108V536.372M1144.12 469.108H1211.38M1144.12 536.372H1211.38M1211.38 -808.919V-741.654M1211.38 -808.919H1278.65M1211.38 -741.654V-674.39M1211.38 -741.654H1278.65M1211.38 -674.39V-607.125M1211.38 -674.39H1278.65M1211.38 -607.125V-539.861M1211.38 -607.125H1278.65M1211.38 -539.861V-472.596M1211.38 -539.861H1278.65M1211.38 -472.596V-405.332M1211.38 -472.596H1278.65M1211.38 -405.332V-338.067M1211.38 -405.332H1278.65M1211.38 -338.067V-270.802M1211.38 -338.067H1278.65M1211.38 -270.802V-203.538M1211.38 -270.802H1278.65M1211.38 -203.538V-136.273M1211.38 -203.538H1278.65M1211.38 -136.273V-69.0087M1211.38 -136.273H1278.65M1211.38 -69.0087V-1.74408M1211.38 -69.0087H1278.65M1211.38 -1.74408V65.5205M1211.38 -1.74408H1278.65M1211.38 65.5205V132.785M1211.38 65.5205H1278.65M1211.38 132.785V200.05M1211.38 132.785H1278.65M1211.38 200.05V267.314M1211.38 200.05H1278.65M1211.38 267.314V334.579M1211.38 267.314H1278.65M1211.38 334.579V401.843M1211.38 334.579H1278.65M1211.38 401.843V469.108M1211.38 401.843H1278.65M1211.38 469.108V536.372M1211.38 469.108H1278.65M1211.38 536.372H1278.65M1278.65 -808.919V-741.654M1278.65 -808.919H1345.91M1278.65 -741.654V-674.39M1278.65 -741.654H1345.91M1278.65 -674.39V-607.125M1278.65 -674.39H1345.91M1278.65 -607.125V-539.861M1278.65 -607.125H1345.91M1278.65 -539.861V-472.596M1278.65 -539.861H1345.91M1278.65 -472.596V-405.332M1278.65 -472.596H1345.91M1278.65 -405.332V-338.067M1278.65 -405.332H1345.91M1278.65 -338.067V-270.802M1278.65 -338.067H1345.91M1278.65 -270.802V-203.538M1278.65 -270.802H1345.91M1278.65 -203.538V-136.273M1278.65 -203.538H1345.91M1278.65 -136.273V-69.0087M1278.65 -136.273H1345.91M1278.65 -69.0087V-1.74408M1278.65 -69.0087H1345.91M1278.65 -1.74408V65.5205M1278.65 -1.74408H1345.91M1278.65 65.5205V132.785M1278.65 65.5205H1345.91M1278.65 132.785V200.05M1278.65 132.785H1345.91M1278.65 200.05V267.314M1278.65 200.05H1345.91M1278.65 267.314V334.579M1278.65 267.314H1345.91M1278.65 334.579V401.843M1278.65 334.579H1345.91M1278.65 401.843V469.108M1278.65 401.843H1345.91M1278.65 469.108V536.372M1278.65 469.108H1345.91M1278.65 536.372H1345.91M1345.91 -808.919V-741.654M1345.91 -808.919H1413.18M1345.91 -741.654V-674.39M1345.91 -741.654H1413.18M1345.91 -674.39V-607.125M1345.91 -674.39H1413.18M1345.91 -607.125V-539.861M1345.91 -607.125H1413.18M1345.91 -539.861V-472.596M1345.91 -539.861H1413.18M1345.91 -472.596V-405.332M1345.91 -472.596H1413.18M1345.91 -405.332V-338.067M1345.91 -405.332H1413.18M1345.91 -338.067V-270.802M1345.91 -338.067H1413.18M1345.91 -270.802V-203.538M1345.91 -270.802H1413.18M1345.91 -203.538V-136.273M1345.91 -203.538H1413.18M1345.91 -136.273V-69.0087M1345.91 -136.273H1413.18M1345.91 -69.0087V-1.74408M1345.91 -69.0087H1413.18M1345.91 -1.74408V65.5205M1345.91 -1.74408H1413.18M1345.91 65.5205V132.785M1345.91 65.5205H1413.18M1345.91 132.785V200.05M1345.91 132.785H1413.18M1345.91 200.05V267.314M1345.91 200.05H1413.18M1345.91 267.314V334.579M1345.91 267.314H1413.18M1345.91 334.579V401.843M1345.91 334.579H1413.18M1345.91 401.843V469.108M1345.91 401.843H1413.18M1345.91 469.108V536.372M1345.91 469.108H1413.18M1345.91 536.372H1413.18M1413.18 -808.919V-741.654M1413.18 -808.919H1480.44M1413.18 -741.654V-674.39M1413.18 -741.654H1480.44M1413.18 -674.39V-607.125M1413.18 -674.39H1480.44M1413.18 -607.125V-539.861M1413.18 -607.125H1480.44M1413.18 -539.861V-472.596M1413.18 -539.861H1480.44M1413.18 -472.596V-405.332M1413.18 -472.596H1480.44M1413.18 -405.332V-338.067M1413.18 -405.332H1480.44M1413.18 -338.067V-270.802M1413.18 -338.067H1480.44M1413.18 -270.802V-203.538M1413.18 -270.802H1480.44M1413.18 -203.538V-136.273M1413.18 -203.538H1480.44M1413.18 -136.273V-69.0087M1413.18 -136.273H1480.44M1413.18 -69.0087V-1.74408M1413.18 -69.0087H1480.44M1413.18 -1.74408V65.5205M1413.18 -1.74408H1480.44M1413.18 65.5205V132.785M1413.18 65.5205H1480.44M1413.18 132.785V200.05M1413.18 132.785H1480.44M1413.18 200.05V267.314M1413.18 200.05H1480.44M1413.18 267.314V334.579M1413.18 267.314H1480.44M1413.18 334.579V401.843M1413.18 334.579H1480.44M1413.18 401.843V469.108M1413.18 401.843H1480.44M1413.18 469.108V536.372M1413.18 469.108H1480.44M1413.18 536.372H1480.44M1480.44 -808.919V-741.654M1480.44 -808.919H1547.7M1480.44 -741.654V-674.39M1480.44 -741.654H1547.7M1480.44 -674.39V-607.125M1480.44 -674.39H1547.7M1480.44 -607.125V-539.861M1480.44 -607.125H1547.7M1480.44 -539.861V-472.596M1480.44 -539.861H1547.7M1480.44 -472.596V-405.332M1480.44 -472.596H1547.7M1480.44 -405.332V-338.067M1480.44 -405.332H1547.7M1480.44 -338.067V-270.802M1480.44 -338.067H1547.7M1480.44 -270.802V-203.538M1480.44 -270.802H1547.7M1480.44 -203.538V-136.273M1480.44 -203.538H1547.7M1480.44 -136.273V-69.0087M1480.44 -136.273H1547.7M1480.44 -69.0087V-1.74408M1480.44 -69.0087H1547.7M1480.44 -1.74408V65.5205M1480.44 -1.74408H1547.7M1480.44 65.5205V132.785M1480.44 65.5205H1547.7M1480.44 132.785V200.05M1480.44 132.785H1547.7M1480.44 200.05V267.314M1480.44 200.05H1547.7M1480.44 267.314V334.579M1480.44 267.314H1547.7M1480.44 334.579V401.843M1480.44 334.579H1547.7M1480.44 401.843V469.108M1480.44 401.843H1547.7M1480.44 469.108V536.372M1480.44 469.108H1547.7M1480.44 536.372H1547.7M1547.7 -808.919V-741.654M1547.7 -808.919H1614.97M1547.7 -741.654V-674.39M1547.7 -741.654H1614.97M1547.7 -674.39V-607.125M1547.7 -674.39H1614.97M1547.7 -607.125V-539.861M1547.7 -607.125H1614.97M1547.7 -539.861V-472.596M1547.7 -539.861H1614.97M1547.7 -472.596V-405.332M1547.7 -472.596H1614.97M1547.7 -405.332V-338.067M1547.7 -405.332H1614.97M1547.7 -338.067V-270.802M1547.7 -338.067H1614.97M1547.7 -270.802V-203.538M1547.7 -270.802H1614.97M1547.7 -203.538V-136.273M1547.7 -203.538H1614.97M1547.7 -136.273V-69.0087M1547.7 -136.273H1614.97M1547.7 -69.0087V-1.74408M1547.7 -69.0087H1614.97M1547.7 -1.74408V65.5205M1547.7 -1.74408H1614.97M1547.7 65.5205V132.785M1547.7 65.5205H1614.97M1547.7 132.785V200.05M1547.7 132.785H1614.97M1547.7 200.05V267.314M1547.7 200.05H1614.97M1547.7 267.314V334.579M1547.7 267.314H1614.97M1547.7 334.579V401.843M1547.7 334.579H1614.97M1547.7 401.843V469.108M1547.7 401.843H1614.97M1547.7 469.108V536.372M1547.7 469.108H1614.97M1547.7 536.372H1614.97M1614.97 -808.919V-741.654M1614.97 -808.919H1682.23M1614.97 -741.654V-674.39M1614.97 -741.654H1682.23M1614.97 -674.39V-607.125M1614.97 -674.39H1682.23M1614.97 -607.125V-539.861M1614.97 -607.125H1682.23M1614.97 -539.861V-472.596M1614.97 -539.861H1682.23M1614.97 -472.596V-405.332M1614.97 -472.596H1682.23M1614.97 -405.332V-338.067M1614.97 -405.332H1682.23M1614.97 -338.067V-270.802M1614.97 -338.067H1682.23M1614.97 -270.802V-203.538M1614.97 -270.802H1682.23M1614.97 -203.538V-136.273M1614.97 -203.538H1682.23M1614.97 -136.273V-69.0087M1614.97 -136.273H1682.23M1614.97 -69.0087V-1.74408M1614.97 -69.0087H1682.23M1614.97 -1.74408V65.5205M1614.97 -1.74408H1682.23M1614.97 65.5205V132.785M1614.97 65.5205H1682.23M1614.97 132.785V200.05M1614.97 132.785H1682.23M1614.97 200.05V267.314M1614.97 200.05H1682.23M1614.97 267.314V334.579M1614.97 267.314H1682.23M1614.97 334.579V401.843M1614.97 334.579H1682.23M1614.97 401.843V469.108M1614.97 401.843H1682.23M1614.97 469.108V536.372M1614.97 469.108H1682.23M1614.97 536.372H1682.23M1682.23 -808.919V-741.654M1682.23 -808.919H1749.5M1682.23 -741.654V-674.39M1682.23 -741.654H1749.5M1682.23 -674.39V-607.125M1682.23 -674.39H1749.5M1682.23 -607.125V-539.861M1682.23 -607.125H1749.5M1682.23 -539.861V-472.596M1682.23 -539.861H1749.5M1682.23 -472.596V-405.332M1682.23 -472.596H1749.5M1682.23 -405.332V-338.067M1682.23 -405.332H1749.5M1682.23 -338.067V-270.802M1682.23 -338.067H1749.5M1682.23 -270.802V-203.538M1682.23 -270.802H1749.5M1682.23 -203.538V-136.273M1682.23 -203.538H1749.5M1682.23 -136.273V-69.0087M1682.23 -136.273H1749.5M1682.23 -69.0087V-1.74408M1682.23 -69.0087H1749.5M1682.23 -1.74408V65.5205M1682.23 -1.74408H1749.5M1682.23 65.5205V132.785M1682.23 65.5205H1749.5M1682.23 132.785V200.05M1682.23 132.785H1749.5M1682.23 200.05V267.314M1682.23 200.05H1749.5M1682.23 267.314V334.579M1682.23 267.314H1749.5M1682.23 334.579V401.843M1682.23 334.579H1749.5M1682.23 401.843V469.108M1682.23 401.843H1749.5M1682.23 469.108V536.372M1682.23 469.108H1749.5M1682.23 536.372H1749.5M1749.5 -808.919V-741.654M1749.5 -808.919H1816.76M1749.5 -741.654V-674.39M1749.5 -741.654H1816.76M1749.5 -674.39V-607.125M1749.5 -674.39H1816.76M1749.5 -607.125V-539.861M1749.5 -607.125H1816.76M1749.5 -539.861V-472.596M1749.5 -539.861H1816.76M1749.5 -472.596V-405.332M1749.5 -472.596H1816.76M1749.5 -405.332V-338.067M1749.5 -405.332H1816.76M1749.5 -338.067V-270.802M1749.5 -338.067H1816.76M1749.5 -270.802V-203.538M1749.5 -270.802H1816.76M1749.5 -203.538V-136.273M1749.5 -203.538H1816.76M1749.5 -136.273V-69.0087M1749.5 -136.273H1816.76M1749.5 -69.0087V-1.74408M1749.5 -69.0087H1816.76M1749.5 -1.74408V65.5205M1749.5 -1.74408H1816.76M1749.5 65.5205V132.785M1749.5 65.5205H1816.76M1749.5 132.785V200.05M1749.5 132.785H1816.76M1749.5 200.05V267.314M1749.5 200.05H1816.76M1749.5 267.314V334.579M1749.5 267.314H1816.76M1749.5 334.579V401.843M1749.5 334.579H1816.76M1749.5 401.843V469.108M1749.5 401.843H1816.76M1749.5 469.108V536.372M1749.5 469.108H1816.76M1749.5 536.372H1816.76M1816.76 -808.919V-741.654M1816.76 -808.919H1884.03M1816.76 -741.654V-674.39M1816.76 -741.654H1884.03M1816.76 -674.39V-607.125M1816.76 -674.39H1884.03M1816.76 -607.125V-539.861M1816.76 -607.125H1884.03M1816.76 -539.861V-472.596M1816.76 -539.861H1884.03M1816.76 -472.596V-405.332M1816.76 -472.596H1884.03M1816.76 -405.332V-338.067M1816.76 -405.332H1884.03M1816.76 -338.067V-270.802M1816.76 -338.067H1884.03M1816.76 -270.802V-203.538M1816.76 -270.802H1884.03M1816.76 -203.538V-136.273M1816.76 -203.538H1884.03M1816.76 -136.273V-69.0087M1816.76 -136.273H1884.03M1816.76 -69.0087V-1.74408M1816.76 -69.0087H1884.03M1816.76 -1.74408V65.5205M1816.76 -1.74408H1884.03M1816.76 65.5205V132.785M1816.76 65.5205H1884.03M1816.76 132.785V200.05M1816.76 132.785H1884.03M1816.76 200.05V267.314M1816.76 200.05H1884.03M1816.76 267.314V334.579M1816.76 267.314H1884.03M1816.76 334.579V401.843M1816.76 334.579H1884.03M1816.76 401.843V469.108M1816.76 401.843H1884.03M1816.76 469.108V536.372M1816.76 469.108H1884.03M1816.76 536.372H1884.03M1884.03 -808.919V-741.654M1884.03 -808.919H1951.29M1884.03 -741.654V-674.39M1884.03 -741.654H1951.29M1884.03 -674.39V-607.125M1884.03 -674.39H1951.29M1884.03 -607.125V-539.861M1884.03 -607.125H1951.29M1884.03 -539.861V-472.596M1884.03 -539.861H1951.29M1884.03 -472.596V-405.332M1884.03 -472.596H1951.29M1884.03 -405.332V-338.067M1884.03 -405.332H1951.29M1884.03 -338.067V-270.802M1884.03 -338.067H1951.29M1884.03 -270.802V-203.538M1884.03 -270.802H1951.29M1884.03 -203.538V-136.273M1884.03 -203.538H1951.29M1884.03 -136.273V-69.0087M1884.03 -136.273H1951.29M1884.03 -69.0087V-1.74408M1884.03 -69.0087H1951.29M1884.03 -1.74408V65.5205M1884.03 -1.74408H1951.29M1884.03 65.5205V132.785M1884.03 65.5205H1951.29M1884.03 132.785V200.05M1884.03 132.785H1951.29M1884.03 200.05V267.314M1884.03 200.05H1951.29M1884.03 267.314V334.579M1884.03 267.314H1951.29M1884.03 334.579V401.843M1884.03 334.579H1951.29M1884.03 401.843V469.108M1884.03 401.843H1951.29M1884.03 469.108V536.372M1884.03 469.108H1951.29M1884.03 536.372H1951.29M1951.29 -808.919V-741.654M1951.29 -808.919H2018.56M1951.29 -741.654V-674.39M1951.29 -741.654H2018.56M1951.29 -674.39V-607.125M1951.29 -674.39H2018.56M1951.29 -607.125V-539.861M1951.29 -607.125H2018.56M1951.29 -539.861V-472.596M1951.29 -539.861H2018.56M1951.29 -472.596V-405.332M1951.29 -472.596H2018.56M1951.29 -405.332V-338.067M1951.29 -405.332H2018.56M1951.29 -338.067V-270.802M1951.29 -338.067H2018.56M1951.29 -270.802V-203.538M1951.29 -270.802H2018.56M1951.29 -203.538V-136.273M1951.29 -203.538H2018.56M1951.29 -136.273V-69.0087M1951.29 -136.273H2018.56M1951.29 -69.0087V-1.74408M1951.29 -69.0087H2018.56M1951.29 -1.74408V65.5205M1951.29 -1.74408H2018.56M1951.29 65.5205V132.785M1951.29 65.5205H2018.56M1951.29 132.785V200.05M1951.29 132.785H2018.56M1951.29 200.05V267.314M1951.29 200.05H2018.56M1951.29 267.314V334.579M1951.29 267.314H2018.56M1951.29 334.579V401.843M1951.29 334.579H2018.56M1951.29 401.843V469.108M1951.29 401.843H2018.56M1951.29 469.108V536.372M1951.29 469.108H2018.56M1951.29 536.372H2018.56M2018.56 -808.919V-741.654M2018.56 -808.919H2085.82V-741.654M2018.56 -741.654V-674.39M2018.56 -741.654H2085.82M2018.56 -674.39V-607.125M2018.56 -674.39H2085.82M2018.56 -607.125V-539.861M2018.56 -607.125H2085.82M2018.56 -539.861V-472.596M2018.56 -539.861H2085.82M2018.56 -472.596V-405.332M2018.56 -472.596H2085.82M2018.56 -405.332V-338.067M2018.56 -405.332H2085.82M2018.56 -338.067V-270.802M2018.56 -338.067H2085.82M2018.56 -270.802V-203.538M2018.56 -270.802H2085.82M2018.56 -203.538V-136.273M2018.56 -203.538H2085.82M2018.56 -136.273V-69.0087M2018.56 -136.273H2085.82M2018.56 -69.0087V-1.74408M2018.56 -69.0087H2085.82M2018.56 -1.74408V65.5205M2018.56 -1.74408H2085.82M2018.56 65.5205V132.785M2018.56 65.5205H2085.82M2018.56 132.785V200.05M2018.56 132.785H2085.82M2018.56 200.05V267.314M2018.56 200.05H2085.82M2018.56 267.314V334.579M2018.56 267.314H2085.82M2018.56 334.579V401.843M2018.56 334.579H2085.82M2018.56 401.843V469.108M2018.56 401.843H2085.82M2018.56 469.108V536.372M2018.56 469.108H2085.82M2018.56 536.372H2085.82V469.108M2085.82 -741.654V-674.39M2085.82 -674.39V-607.125M2085.82 -607.125V-539.861M2085.82 -539.861V-472.596M2085.82 -472.596V-405.332M2085.82 -405.332V-338.067M2085.82 -338.067V-270.802M2085.82 -270.802V-203.538M2085.82 -203.538V-136.273M2085.82 -136.273V-69.0087M2085.82 -69.0087V-1.74408M2085.82 -1.74408V65.5205M2085.82 65.5205V132.785M2085.82 132.785V200.05M2085.82 200.05V267.314M2085.82 267.314V334.579M2085.82 334.579V401.843M2085.82 401.843V469.108" stroke="url(#paint0_radial_192_945)" stroke-opacity="0.2" stroke-width="0.840807"/>
</g>
<g style="mix-blend-mode:soft-light" opacity="0.8">
<path d="M-604.762 -560.04V-539.861M-604.762 -539.861V-519.682M-604.762 -539.861H-624.942M-604.762 -539.861H-584.583M-604.762 -21.9238V-1.74444M-604.762 -1.74444V18.4349M-604.762 -1.74444H-624.942M-604.762 -1.74444H-584.583M-604.762 516.193V536.372M-604.762 536.372V556.551M-604.762 536.372H-624.942M-604.762 536.372H-584.583M-66.6456 -560.04V-539.861M-66.6456 -539.861V-519.682M-66.6456 -539.861H-86.825M-66.6456 -539.861H-46.4662M-66.6456 -21.9238V-1.74444M-66.6456 -1.74444V18.4349M-66.6456 -1.74444H-86.825M-66.6456 -1.74444H-46.4662M-66.6456 516.193V536.372M-66.6456 536.372V556.551M-66.6456 536.372H-86.825M-66.6456 536.372H-46.4662M471.471 -560.04V-539.861M471.471 -539.861V-519.682M471.471 -539.861H451.292M471.471 -539.861H491.65M471.471 -21.9238V-1.74444M471.471 -1.74444V18.4349M471.471 -1.74444H451.292M471.471 -1.74444H491.65M471.471 516.193V536.372M471.471 536.372V556.551M471.471 536.372H451.292M471.471 536.372H491.65M1009.59 -560.04V-539.861M1009.59 -539.861V-519.682M1009.59 -539.861H989.408M1009.59 -539.861H1029.77M1009.59 -21.9238V-1.74444M1009.59 -1.74444V18.4349M1009.59 -1.74444H989.408M1009.59 -1.74444H1029.77M1009.59 516.193V536.372M1009.59 536.372V556.551M1009.59 536.372H989.408M1009.59 536.372H1029.77M1547.7 -560.04V-539.861M1547.7 -539.861V-519.682M1547.7 -539.861H1527.52M1547.7 -539.861H1567.88M1547.7 -21.9238V-1.74444M1547.7 -1.74444V18.4349M1547.7 -1.74444H1527.52M1547.7 -1.74444H1567.88M1547.7 516.193V536.372M1547.7 536.372V556.551M1547.7 536.372H1527.52M1547.7 536.372H1567.88M2085.82 -560.04V-539.861M2085.82 -539.861V-519.682M2085.82 -539.861H2065.64M2085.82 -539.861H2106M2085.82 -21.9238V-1.74444M2085.82 -1.74444V18.4349M2085.82 -1.74444H2065.64M2085.82 -1.74444H2106M2085.82 516.193V536.372M2085.82 536.372V556.551M2085.82 536.372H2065.64M2085.82 536.372H2106M-604.762 -829.099V-808.919M-604.762 -808.919V-788.74M-604.762 -808.919H-624.942M-604.762 -808.919H-584.583M-604.762 -290.982V-270.803M-604.762 -270.803V-250.623M-604.762 -270.803H-624.942M-604.762 -270.803H-584.583M-604.762 247.134V267.314M-604.762 267.314V287.493M-604.762 267.314H-624.942M-604.762 267.314H-584.583M-66.6456 -829.099V-808.919M-66.6456 -808.919V-788.74M-66.6456 -808.919H-86.825M-66.6456 -808.919H-46.4662M-66.6456 -290.982V-270.803M-66.6456 -270.803V-250.623M-66.6456 -270.803H-86.825M-66.6456 -270.803H-46.4662M-66.6456 247.134V267.314M-66.6456 267.314V287.493M-66.6456 267.314H-86.825M-66.6456 267.314H-46.4662M471.471 -829.099V-808.919M471.471 -808.919V-788.74M471.471 -808.919H451.292M471.471 -808.919H491.65M471.471 -290.982V-270.803M471.471 -270.803V-250.623M471.471 -270.803H451.292M471.471 -270.803H491.65M471.471 247.134V267.314M471.471 267.314V287.493M471.471 267.314H451.292M471.471 267.314H491.65M1009.59 -829.099V-808.919M1009.59 -808.919V-788.74M1009.59 -808.919H989.408M1009.59 -808.919H1029.77M1009.59 -290.982V-270.803M1009.59 -270.803V-250.623M1009.59 -270.803H989.408M1009.59 -270.803H1029.77M1009.59 247.134V267.314M1009.59 267.314V287.493M1009.59 267.314H989.408M1009.59 267.314H1029.77M1547.7 -829.099V-808.919M1547.7 -808.919V-788.74M1547.7 -808.919H1527.52M1547.7 -808.919H1567.88M1547.7 -290.982V-270.803M1547.7 -270.803V-250.623M1547.7 -270.803H1527.52M1547.7 -270.803H1567.88M1547.7 247.134V267.314M1547.7 267.314V287.493M1547.7 267.314H1527.52M1547.7 267.314H1567.88M2085.82 -829.099V-808.919M2085.82 -808.919V-788.74M2085.82 -808.919H2065.64M2085.82 -808.919H2106M2085.82 -290.982V-270.803M2085.82 -270.803V-250.623M2085.82 -270.803H2065.64M2085.82 -270.803H2106M2085.82 247.134V267.314M2085.82 267.314V287.493M2085.82 267.314H2065.64M2085.82 267.314H2106M-873.821 -560.04V-539.861M-873.821 -539.861V-519.682M-873.821 -539.861H-894M-873.821 -539.861H-853.641M-873.821 -21.9238V-1.74444M-873.821 -1.74444V18.4349M-873.821 -1.74444H-894M-873.821 -1.74444H-853.641M-873.821 516.193V536.372M-873.821 536.372V556.551M-873.821 536.372H-894M-873.821 536.372H-853.641M-335.704 -560.04V-539.861M-335.704 -539.861V-519.682M-335.704 -539.861H-355.883M-335.704 -539.861H-315.525M-335.704 -21.9238V-1.74444M-335.704 -1.74444V18.4349M-335.704 -1.74444H-355.883M-335.704 -1.74444H-315.525M-335.704 516.193V536.372M-335.704 536.372V556.551M-335.704 536.372H-355.883M-335.704 536.372H-315.525M202.413 -560.04V-539.861M202.413 -539.861V-519.682M202.413 -539.861H182.233M202.413 -539.861H222.592M202.413 -21.9238V-1.74444M202.413 -1.74444V18.4349M202.413 -1.74444H182.233M202.413 -1.74444H222.592M202.413 516.193V536.372M202.413 536.372V556.551M202.413 536.372H182.233M202.413 536.372H222.592M740.529 -560.04V-539.861M740.529 -539.861V-519.682M740.529 -539.861H720.35M740.529 -539.861H760.709M740.529 -21.9238V-1.74444M740.529 -1.74444V18.4349M740.529 -1.74444H720.35M740.529 -1.74444H760.709M740.529 516.193V536.372M740.529 536.372V556.551M740.529 536.372H720.35M740.529 536.372H760.709M1278.65 -560.04V-539.861M1278.65 -539.861V-519.682M1278.65 -539.861H1258.47M1278.65 -539.861H1298.83M1278.65 -21.9238V-1.74444M1278.65 -1.74444V18.4349M1278.65 -1.74444H1258.47M1278.65 -1.74444H1298.83M1278.65 516.193V536.372M1278.65 536.372V556.551M1278.65 536.372H1258.47M1278.65 536.372H1298.83M1816.76 -560.04V-539.861M1816.76 -539.861V-519.682M1816.76 -539.861H1796.58M1816.76 -539.861H1836.94M1816.76 -21.9238V-1.74444M1816.76 -1.74444V18.4349M1816.76 -1.74444H1796.58M1816.76 -1.74444H1836.94M1816.76 516.193V536.372M1816.76 536.372V556.551M1816.76 536.372H1796.58M1816.76 536.372H1836.94M-873.821 -829.099V-808.919M-873.821 -808.919V-788.74M-873.821 -808.919H-894M-873.821 -808.919H-853.641M-873.821 -290.982V-270.803M-873.821 -270.803V-250.623M-873.821 -270.803H-894M-873.821 -270.803H-853.641M-873.821 247.134V267.314M-873.821 267.314V287.493M-873.821 267.314H-894M-873.821 267.314H-853.641M-335.704 -829.099V-808.919M-335.704 -808.919V-788.74M-335.704 -808.919H-355.883M-335.704 -808.919H-315.525M-335.704 -290.982V-270.803M-335.704 -270.803V-250.623M-335.704 -270.803H-355.883M-335.704 -270.803H-315.525M-335.704 247.134V267.314M-335.704 267.314V287.493M-335.704 267.314H-355.883M-335.704 267.314H-315.525M202.413 -829.099V-808.919M202.413 -808.919V-788.74M202.413 -808.919H182.233M202.413 -808.919H222.592M202.413 -290.982V-270.803M202.413 -270.803V-250.623M202.413 -270.803H182.233M202.413 -270.803H222.592M202.413 247.134V267.314M202.413 267.314V287.493M202.413 267.314H182.233M202.413 267.314H222.592M740.529 -829.099V-808.919M740.529 -808.919V-788.74M740.529 -808.919H720.35M740.529 -808.919H760.709M740.529 -290.982V-270.803M740.529 -270.803V-250.623M740.529 -270.803H720.35M740.529 -270.803H760.709M740.529 247.134V267.314M740.529 267.314V287.493M740.529 267.314H720.35M740.529 267.314H760.709M1278.65 -829.099V-808.919M1278.65 -808.919V-788.74M1278.65 -808.919H1258.47M1278.65 -808.919H1298.83M1278.65 -290.982V-270.803M1278.65 -270.803V-250.623M1278.65 -270.803H1258.47M1278.65 -270.803H1298.83M1278.65 247.134V267.314M1278.65 267.314V287.493M1278.65 267.314H1258.47M1278.65 267.314H1298.83M1816.76 -829.099V-808.919M1816.76 -808.919V-788.74M1816.76 -808.919H1796.58M1816.76 -808.919H1836.94M1816.76 -290.982V-270.803M1816.76 -270.803V-250.623M1816.76 -270.803H1796.58M1816.76 -270.803H1836.94M1816.76 247.134V267.314M1816.76 267.314V287.493M1816.76 267.314H1796.58M1816.76 267.314H1836.94" stroke="url(#paint1_radial_192_945)" stroke-opacity="0.2" stroke-width="1.68161"/>
</g>
<defs>
<radialGradient id="paint0_radial_192_945" cx="0" cy="0" r="1" gradientUnits="userSpaceOnUse" gradientTransform="translate(606 -136.273) rotate(90) scale(672.646 1479.82)">
<stop/>
<stop offset="1" stop-color="white" stop-opacity="0"/>
</radialGradient>
<radialGradient id="paint1_radial_192_945" cx="0" cy="0" r="1" gradientUnits="userSpaceOnUse" gradientTransform="translate(606 -136.274) rotate(90) scale(692.825 1500)">
<stop/>
<stop offset="1" stop-color="white" stop-opacity="0"/>
</radialGradient>
</defs>
</svg>
