<svg width="590" height="253" viewBox="0 0 590 253" fill="none" xmlns="http://www.w3.org/2000/svg">
<path opacity="0.4" d="M1261.86 6.19979L1246.32 1M1261.86 6.19979H1215.81M1261.86 6.19979L1277.91 11.5713M1261.86 6.19979H1294.46M1246.32 1L1251.97 1.00203L1257.57 1.01329L1263.05 1.04494L1268.35 1.10729L1273.43 1.20846L1278.22 1.36075L1282.67 1.5723L1286.8 1.84208L1290.35 2.21512L1293.57 2.64742L1294.46 2.79884V6.19979M1246.32 1H1201.02M1201.02 1H1155.72M1201.02 1L1215.81 6.19979M1155.72 1H1110.42M1155.72 1L1169.77 6.19979M1110.42 1H1065.12M1110.42 1L1123.73 6.19979M1065.12 1H1019.81M1065.12 1L1077.69 6.19979M1019.81 1H974.513M1019.81 1L1031.65 6.19979M974.513 1H929.213M974.513 1L985.611 6.19979M929.213 1H883.912M929.213 1L939.571 6.19979M883.912 1H838.61M883.912 1L893.53 6.19979M838.61 1H793.31M838.61 1L847.489 6.19979M793.31 1H748.009M793.31 1L801.448 6.19979M748.009 1H702.709M748.009 1L755.407 6.19979M702.709 1H657.407M702.709 1L704.352 2.28461L706.845 4.22944L709.366 6.19979M657.407 1H612.106M657.407 1L658.869 2.28461L663.326 6.19979M612.106 1H566.806M612.106 1L617.285 6.19979M566.806 1H521.504M566.806 1L568.453 2.93049L570.122 4.88349L570.682 5.54062L571.245 6.19979M521.504 1H476.203M521.504 1L522.877 2.93049L523.339 3.57842L523.803 4.22944L525.204 6.19979M476.203 1H430.903M476.203 1L479.163 6.19979M430.903 1L431.177 1.64076L431.45 2.28461L432.84 5.54062L433.122 6.19979M430.903 1H385.602M385.602 1H340.301M385.602 1L387.082 6.19979M340.301 1H295M340.301 1L340.575 2.93049L341.041 6.19979M295 1H249.699M295 1V6.19979M249.699 1H204.398M249.699 1L249.425 2.93049L248.959 6.19979M204.398 1H159.097M204.398 1L202.918 6.19979M159.097 1L158.823 1.64076L158.55 2.28461L157.16 5.54062L156.878 6.19979M159.097 1H113.796M113.796 1H68.4949M113.796 1L111.213 5.54062L110.837 6.19979M68.4949 1H23.1943M68.4949 1L67.1227 2.93049L66.6605 3.57842L65.7318 4.88349L65.2654 5.54062L64.7959 6.19979M23.1943 1H-22.1063M23.1943 1L21.5473 2.93049L19.8784 4.88349L19.3183 5.54062L18.755 6.19979M-22.1063 1H-67.407M-22.1063 1L-27.2847 6.19979M-67.407 1H-112.709M-67.407 1L-68.8686 2.28461L-73.3256 6.19979M-112.709 1H-158.009M-112.709 1L-119.366 6.19979M-158.009 1H-203.31M-158.009 1L-165.407 6.19979M-203.31 1H-248.611M-203.31 1L-211.448 6.19979M-248.611 1H-293.912M-248.611 1L-257.489 6.19979M-293.912 1H-339.213M-293.912 1L-303.53 6.19979M-339.213 1H-384.513M-339.213 1L-349.571 6.19979M-384.513 1H-429.815M-384.513 1L-395.611 6.19979M-429.815 1H-475.115M-429.815 1L-441.652 6.19979M-475.115 1H-520.416M-475.115 1L-487.693 6.19979M-520.416 1H-565.718M-520.416 1L-533.734 6.19979M-565.718 1H-611.018M-565.718 1L-579.774 6.19979M-611.018 1H-656.319M-611.018 1L-625.815 6.19979M-656.319 1L-661.972 1.00203L-667.567 1.01329L-673.045 1.04494L-678.352 1.10729L-683.428 1.20846L-688.22 1.36075L-692.671 1.5723L-696.802 1.84208L-700.347 2.21512L-703.575 2.64742L-704.462 2.79887V6.19979M-656.319 1L-671.855 6.19979M-579.774 6.19979H-533.734M-579.774 6.19979H-625.815M-579.774 6.19979L-594.298 11.5713M-533.734 6.19979L-547.493 11.5713M-533.734 6.19979H-487.693M-395.611 6.19979H-349.571M-395.611 6.19979H-441.652M-395.611 6.19979L-398.442 7.52631L-407.077 11.5713M-349.571 6.19979L-360.272 11.5713M-349.571 6.19979H-303.53M-211.448 6.19979H-165.407M-211.448 6.19979H-257.489M-211.448 6.19979L-213.524 7.52631L-214.569 8.19265L-219.857 11.5713M-165.407 6.19979L-166.349 6.86101L-167.295 7.52631L-173.051 11.5713M-165.407 6.19979H-119.366M-27.2847 6.19979L-27.9448 6.86101L-32.636 11.5713M-27.2847 6.19979H18.755M-27.2847 6.19979H-73.3256M18.755 6.19979L17.6234 7.52631L17.0528 8.19265L16.4813 8.86307L14.169 11.5713M18.755 6.19979H64.7959M156.878 6.19979H202.918M156.878 6.19979H110.837M156.878 6.19979L154.585 11.5713M202.918 6.19979L202.73 6.86101L202.542 7.52631L202.351 8.19265L201.776 10.2111L201.39 11.5713M202.918 6.19979H248.959M341.041 6.19979H387.082M341.041 6.19979H295M341.041 6.19979L341.805 11.5713M387.082 6.19979L387.27 6.86101L387.458 7.52631L387.649 8.19265L388.61 11.5713M387.082 6.19979H433.122M525.204 6.19979H571.245M525.204 6.19979H479.163M525.204 6.19979L526.147 7.52631L528.059 10.2111L528.541 10.8896L529.026 11.5713M571.245 6.19979L572.377 7.52631L572.947 8.19265L573.519 8.86307L575.831 11.5713M571.245 6.19979H617.285M709.366 6.19979H755.407M709.366 6.19979H663.326M709.366 6.19979L711.065 7.52631L711.92 8.19265L716.246 11.5713M755.407 6.19979L756.349 6.86101L757.295 7.52631L763.051 11.5713M755.407 6.19979H801.448M893.53 6.19979H939.571M893.53 6.19979H847.489M893.53 6.19979L895.984 7.52631L897.218 8.19265L903.467 11.5713M939.571 6.19979L950.272 11.5713M939.571 6.19979H985.611M1077.69 6.19979H1123.73M1077.69 6.19979H1031.65M1077.69 6.19979L1090.69 11.5713M1123.73 6.19979L1137.49 11.5713M1123.73 6.19979H1169.77M-704.623 54.8253H-704.462M-658.282 54.8253L-640.704 47.9628M-658.282 54.8253L-676.534 61.9505M-658.282 54.8253H-605.322M-658.282 54.8253H-704.462M-640.704 47.9628H-692.688M-640.704 47.9628L-623.762 41.3486M-640.704 47.9628H-588.721M-692.688 47.9628L-674.805 41.3486M-692.688 47.9628H-704.462M-692.688 47.9628L-704.462 52.3165M-640.915 28.813H-591.656M-640.915 28.813L-624.842 22.8682M-640.915 28.813H-690.173M-640.915 28.813L-657.559 34.9694M-591.656 28.813L-576.429 22.8682M-591.656 28.813L-607.423 34.9694M-591.656 28.813H-542.397M-624.842 22.8682H-576.429M-624.842 22.8682L-609.312 17.1247M-624.842 22.8682H-673.255M-576.429 22.8682H-528.016M-576.429 22.8682L-561.717 17.1247M-704.969 163.144H-704.462M-662.236 163.144L-639.569 151.767M-662.236 163.144L-686.029 175.088M-662.236 163.144H-593.861M-662.236 163.144H-704.462M-639.569 151.767L-617.95 140.915M-639.569 151.767H-572.814M-639.569 151.767H-704.462M-683.161 140.915H-617.95M-683.161 140.915L-661.046 130.555M-683.161 140.915H-704.462M-683.161 140.915L-704.462 150.895M-639.909 120.652H-577.582M-639.909 120.652L-619.687 111.178M-639.909 120.652H-702.236M-639.909 120.652L-661.046 130.555M-577.582 120.652L-558.707 111.178M-577.582 120.652L-597.31 130.555M-577.582 120.652H-515.254M-619.687 111.178H-558.707M-619.687 111.178H-680.665M-619.687 111.178L-600.32 102.105M-558.707 111.178L-540.632 102.105M-558.707 111.178H-497.728M-563.948 85.0645H-506.685M-563.948 85.0645L-546.848 77.0533M-563.948 85.0645H-621.211M-563.948 85.0645L-581.757 93.4079M-506.685 85.0645L-490.725 77.0533M-506.685 85.0645L-523.306 93.4079M-506.685 85.0645H-449.421M-546.848 77.0533H-490.725M-546.848 77.0533H-602.971M-546.848 77.0533L-530.415 69.3547M-490.725 77.0533L-475.387 69.3547M-490.725 77.0533H-434.601M-499.402 54.8253H-446.442M-499.402 54.8253L-484.754 47.9628M-499.402 54.8253H-552.362M-499.402 54.8253L-514.612 61.9505M-446.442 54.8253L-432.771 47.9628M-446.442 54.8253L-460.638 61.9505M-446.442 54.8253H-393.482M-484.754 47.9628H-432.771M-484.754 47.9628H-536.737M-484.754 47.9628L-470.636 41.3486M-432.771 47.9628L-419.593 41.3486M-432.771 47.9628H-380.787M-443.88 28.813H-394.621M-443.88 28.813L-431.191 22.8682M-443.88 28.813H-493.138M-443.88 28.813L-457.02 34.9694M-394.621 28.813L-382.779 22.8682M-394.621 28.813L-406.886 34.9694M-394.621 28.813H-345.362M-431.191 22.8682H-382.779M-431.191 22.8682L-418.93 17.1247M-431.191 22.8682H-479.604M-382.779 22.8682H-334.365M-382.779 22.8682L-371.335 17.1247M-669.432 360.4L-637.53 337.981M-669.432 360.4L-703.595 384.407M-669.432 360.4H-572.989M-669.432 360.4H-704.462M-637.53 337.981L-607.67 316.998M-637.53 337.981H-544.277M-637.53 337.981H-704.462M-638.178 278.819H-553.343M-638.178 278.819L-610.916 261.403M-638.178 278.819L-667.131 297.316M-638.178 278.819H-704.462M-553.343 278.819L-528.561 261.403M-553.343 278.819L-579.664 297.316M-553.343 278.819H-468.509M-610.916 261.403H-528.561M-610.916 261.403H-693.272M-610.916 261.403L-585.202 244.975M-528.561 261.403L-505.184 244.975M-528.561 261.403H-446.204M-537.919 214.767H-462.198M-537.919 214.767L-516.132 200.849M-537.919 214.767H-613.639M-537.919 214.767L-560.908 229.455M-462.198 214.767L-442.392 200.849M-462.198 214.767L-483.099 229.455M-462.198 214.767H-386.479M-516.132 200.849H-442.392M-516.132 200.849H-589.871M-516.132 200.849L-495.457 187.64M-442.392 200.849L-423.596 187.64M-442.392 200.849H-368.654M-457.114 163.144H-388.739M-457.114 163.144L-439.304 151.767M-457.114 163.144H-525.487M-457.114 163.144L-475.808 175.088M-388.739 163.144L-372.549 151.767M-388.739 163.144L-405.735 175.088M-388.739 163.144H-320.365M-439.304 151.767H-372.549M-439.304 151.767H-506.058M-439.304 151.767L-422.318 140.915M-372.549 151.767L-357.107 140.915M-372.549 151.767H-305.794M-390.6 120.652H-328.273M-390.6 120.652L-375.77 111.178M-390.6 120.652H-452.927M-390.6 120.652L-406.101 130.555M-328.273 120.652L-314.79 111.178M-328.273 120.652L-342.364 130.555M-328.273 120.652H-265.946M-375.77 111.178H-314.79M-375.77 111.178H-436.749M-375.77 111.178L-361.568 102.105M-314.79 111.178L-301.88 102.105M-314.79 111.178H-253.812M-334.895 85.0645H-277.632M-334.895 85.0645L-322.355 77.0533M-334.895 85.0645H-392.158M-334.895 85.0645L-347.955 93.4079M-277.632 85.0645L-276.181 84.0456L-266.232 77.0533M-277.632 85.0645L-289.504 93.4079M-277.632 85.0645H-220.368M-322.355 77.0533H-266.232M-322.355 77.0533H-378.478M-322.355 77.0533L-310.304 69.3547M-266.232 77.0533L-255.277 69.3547M-266.232 77.0533H-210.108M-287.562 54.8253H-234.601M-287.562 54.8253L-276.819 47.9628M-287.562 54.8253H-340.522M-287.562 54.8253L-298.716 61.9505M-234.601 54.8253L-224.836 47.9628M-234.601 54.8253L-238.359 57.4661L-244.742 61.9505M-234.601 54.8253H-181.641M-276.819 47.9628H-224.836M-276.819 47.9628H-328.803M-276.819 47.9628L-266.466 41.3486M-224.836 47.9628L-215.424 41.3486M-224.836 47.9628H-172.852M-246.846 28.813H-197.587M-246.846 28.813L-237.54 22.8682M-246.846 28.813H-296.104M-246.846 28.813L-256.481 34.9694M-197.587 28.813L-191.214 24.3357L-190.169 23.5999L-189.127 22.8682M-197.587 28.813L-206.347 34.9694M-197.587 28.813H-148.328M-237.54 22.8682H-189.127M-237.54 22.8682L-228.549 17.1247M-237.54 22.8682H-285.953M-189.127 22.8682H-140.714M-189.127 22.8682L-180.954 17.1247M-634.489 615.783H-501.704M-634.489 615.783L-592.678 573.808M-634.489 615.783L-680.433 661.908M-634.489 615.783L-704.462 615.784M-501.704 615.783L-465.866 573.808M-501.704 615.783L-541.085 661.908M-501.704 615.783H-368.921M-592.678 573.808H-465.866M-592.678 573.808L-554.466 535.448M-592.678 573.808H-704.462M-465.866 573.808L-433.114 535.448M-465.866 573.808H-339.055M-487.131 467.848H-375.397M-487.131 467.848L-457.314 437.913M-487.131 467.848H-598.863M-487.131 467.848L-519.409 500.253M-375.397 467.848L-349.84 437.913M-375.397 467.848L-403.065 500.253M-375.397 467.848H-263.665M-457.314 437.913H-349.84M-457.314 437.913H-564.787M-457.314 437.913L-429.686 410.178M-349.84 437.913L-326.159 410.178M-349.84 437.913H-242.367M-380.102 360.4H-283.659M-380.102 360.4L-357.77 337.981M-380.102 360.4H-476.546M-380.102 360.4L-404.016 384.407M-283.659 360.4L-264.517 337.981M-283.659 360.4L-304.156 384.407M-283.659 360.4H-187.216M-357.77 337.981H-264.517M-357.77 337.981H-451.024M-357.77 337.981L-336.869 316.998M-264.517 337.981L-246.602 316.998M-264.517 337.981H-171.265M-298.841 278.819H-214.006M-298.841 278.819L-281.492 261.403M-298.841 278.819H-383.674M-298.841 278.819L-317.265 297.316M-214.006 278.819L-199.136 261.403M-214.006 278.819L-229.799 297.316M-214.006 278.819H-129.172M-281.492 261.403H-199.136M-281.492 261.403H-363.848M-281.492 261.403L-265.129 244.975M-199.136 261.403L-185.11 244.975M-199.136 261.403H-116.78M-235.04 214.767H-159.319M-235.04 214.767L-221.175 200.849M-235.04 214.767H-310.759M-235.04 214.767L-249.669 229.455M-159.319 214.767L-147.436 200.849M-159.319 214.767L-171.859 229.455M-159.319 214.767H-83.5992M-221.175 200.849H-147.436M-221.175 200.849H-294.915M-221.175 200.849L-208.018 187.64M-147.436 200.849L-136.158 187.64M-147.436 200.849H-73.6962M-183.617 163.144H-115.244M-183.617 163.144L-172.284 151.767M-183.617 163.144H-251.992M-183.617 163.144L-195.514 175.088M-115.244 163.144L-105.529 151.767M-115.244 163.144L-125.441 175.088M-115.244 163.144H-46.87M-172.284 151.767H-105.529M-172.284 151.767H-239.04M-172.284 151.767L-161.475 140.915M-105.529 151.767L-96.2642 140.915M-105.529 151.767H-38.7744M-141.291 120.652H-78.9632M-141.291 120.652L-131.853 111.178M-141.291 120.652H-203.618M-141.291 120.652L-151.154 130.555M-78.9632 120.652L-70.8748 111.178M-78.9632 120.652L-87.418 130.555M-78.9632 120.652H-16.6363M-131.853 111.178H-70.8748M-131.853 111.178H-192.833M-131.853 111.178L-122.816 102.105M-70.8748 111.178L-63.1279 102.105M-70.8748 111.178H-9.89514M-105.842 85.0645H-48.5785M-105.842 85.0645L-97.8624 77.0533M-105.842 85.0645H-163.105M-105.842 85.0645L-114.154 93.4079M-48.5785 85.0645L-49.4541 86.0886L-55.7028 93.4079M-48.5785 85.0645L-41.7394 77.0533M-48.5785 85.0645H8.68444M-97.8624 77.0533H-41.7394M-97.8624 77.0533H-153.985M-97.8624 77.0533L-90.1936 69.3547M-41.7394 77.0533L-35.1659 69.3547M-41.7394 77.0533H14.3845M-75.7211 54.8253H-22.7612M-75.7211 54.8253L-68.8853 47.9628M-75.7211 54.8253H-128.681M-75.7211 54.8253L-82.8184 61.9505M-22.7612 54.8253L-16.9018 47.9628M-22.7612 54.8253L-25.0151 57.4661L-26.5362 59.2474L-28.8443 61.9505M-22.7612 54.8253H30.1989M-68.8853 47.9628H-16.9018M-68.8853 47.9628H-120.869M-68.8853 47.9628L-62.2971 41.3486M-16.9018 47.9628L-14.7592 45.4538L-13.3474 43.8003L-11.2538 41.3486M-16.9018 47.9628H35.0817M-49.8101 28.813H-0.552258M-49.8101 28.813L-45.35 24.3357L-43.8893 22.8682M-49.8101 28.813H-99.069M-49.8101 28.813L-55.1645 34.1876L-55.9422 34.9694M-0.552258 28.813L3.2717 24.3357L3.8985 23.5999L4.52415 22.8682M-0.552258 28.813L-3.15712 31.8636L-5.8078 34.9694M-0.552258 28.813H48.7067M-43.8893 22.8682H4.52415M-43.8893 22.8682L-38.1674 17.1247M-43.8893 22.8682H-92.3018M4.52415 22.8682H52.9367M4.52415 22.8682L9.42778 17.1247M-103.352 615.783H29.4316M-103.352 615.783L-85.4337 573.808M-103.352 615.783H-236.136M-103.352 615.783L-123.043 661.908M29.4316 615.783L41.3783 573.808M29.4316 615.783L16.3053 661.908M29.4316 615.783H162.216M-85.4337 573.808H41.3783M-85.4337 573.808H-212.245M-85.4337 573.808L-69.057 535.448M41.3783 573.808L52.2953 535.448M41.3783 573.808H168.189M-40.1986 467.848H71.5339M-40.1986 467.848L-27.4201 437.913M-40.1986 467.848H-151.932M-40.1986 467.848L-54.0329 500.253M71.5339 467.848L80.0533 437.913M71.5339 467.848L62.3118 500.253M71.5339 467.848H183.268M-27.4201 437.913H80.0533M-27.4201 437.913H-134.893M-27.4201 437.913L-15.5796 410.178M80.0533 437.913L87.947 410.178M80.0533 437.913H187.527M5.67042 360.4H102.113M5.67042 360.4L15.2413 337.981M5.67042 360.4H-90.7724M5.67042 360.4L-4.57822 384.407M102.113 360.4L108.494 337.981M102.113 360.4L95.2815 384.407M102.113 360.4H198.557M15.2413 337.981H108.494M15.2413 337.981H-78.0116M15.2413 337.981L24.199 316.998M108.494 337.981L114.466 316.998M108.494 337.981H201.747M40.4975 278.819H125.331M40.4975 278.819L47.9321 261.403M40.4975 278.819H-44.337M40.4975 278.819L32.6007 297.316M125.331 278.819L130.288 261.403M125.331 278.819L120.067 297.316M125.331 278.819H210.166M47.9321 261.403H130.288M47.9321 261.403H-34.4236M47.9321 261.403L54.9449 244.975M130.288 261.403L134.963 244.975M130.288 261.403H212.644M67.8401 214.767H143.561M67.8401 214.767L73.7817 200.849M67.8401 214.767H-7.87959M67.8401 214.767L61.5705 229.455M143.561 214.767L147.521 200.849M143.561 214.767L139.381 229.455M143.561 214.767H219.28M73.7817 200.849H147.521M73.7817 200.849H0.043277M73.7817 200.849L79.4213 187.64M147.521 200.849L151.281 187.64M147.521 200.849H221.261M89.8782 163.144H158.252M89.8782 163.144L94.735 151.767M89.8782 163.144H21.5046M89.8782 163.144L84.7799 175.088M158.252 163.144L161.491 151.767M158.252 163.144L154.853 175.088M158.252 163.144H226.626M94.735 151.767H161.491M94.735 151.767H27.9803M94.735 151.767L96.4986 147.638L99.3679 140.915M161.491 151.767L164.579 140.915M161.491 151.767H228.245M108.018 120.652H170.345M108.018 120.652L112.063 111.178M108.018 120.652H45.6905M108.018 120.652L104.866 128.038L103.791 130.555M170.345 120.652L171.371 117.05L173.042 111.178M170.345 120.652L167.527 130.555M170.345 120.652H232.673M112.063 111.178L112.556 110.022L115.936 102.105M112.063 111.178H173.042M112.063 111.178H51.0835M173.042 111.178L174.023 107.73L174.346 106.592L174.669 105.462L175.624 102.105M173.042 111.178H234.021M123.21 85.0645H180.473M123.21 85.0645L124.937 81.0185L125.364 80.0201L125.788 79.0257L126.211 78.0374L126.63 77.0533M123.21 85.0645H65.9474M123.21 85.0645L119.649 93.4079M180.473 85.0645L182.192 79.0257L182.474 78.0374L182.753 77.0533M180.473 85.0645L178.099 93.4079M180.473 85.0645H237.737M126.63 77.0533H182.753M126.63 77.0533H70.5074M126.63 77.0533L128.7 72.206L129.107 71.2505L129.917 69.3547M182.753 77.0533L184.133 72.206L184.405 71.2505L184.675 70.3001L184.945 69.3547M182.753 77.0533H238.877M136.12 54.8253H189.08M136.12 54.8253L139.05 47.9628M136.12 54.8253H83.1589M136.12 54.8253L135.369 56.5811L134.231 59.2474L133.078 61.9505M189.08 54.8253L188.83 55.7012L187.309 61.0451L187.052 61.9505M189.08 54.8253L191.033 47.9628M189.08 54.8253H242.04M139.05 47.9628H191.033M139.05 47.9628H87.0662M139.05 47.9628L141.873 41.3486M191.033 47.9628L191.747 45.4538L191.983 44.625L192.218 43.8003L192.915 41.3486M191.033 47.9628H243.017M147.224 28.813H196.482M147.224 28.813L149.136 24.3357L149.762 22.8682M147.224 28.813H97.9655M147.224 28.813L146.249 31.0961L145.922 31.8636L145.592 32.6352L144.596 34.9694M196.482 28.813L196.698 28.0588L197.124 26.5596L197.547 25.0736L198.174 22.8682M196.482 28.813L195.614 31.8636L195.395 32.6352L194.953 34.1876L194.731 34.9694M196.482 28.813H245.741M149.762 22.8682H198.174M149.762 22.8682L151.911 17.8319L152.214 17.1247M149.762 22.8682H101.349M198.174 22.8682L198.382 22.1395L198.588 21.4139L198.795 20.6914L198.999 19.9719L199.608 17.8319L199.81 17.1247M198.174 22.8682H246.588M427.784 615.783H560.568M427.784 615.783L421.811 573.808M427.784 615.783H295M427.784 615.783L434.348 661.908M560.568 615.783L548.623 573.808M560.568 615.783L573.695 661.908M560.568 615.783H693.352M421.811 573.808H548.623M421.811 573.808H295M421.811 573.808L416.352 535.448M548.623 573.808L537.705 535.448M548.623 573.808H675.434M406.733 467.848H518.466M406.733 467.848L402.473 437.913M406.733 467.848H295M406.733 467.848L411.345 500.253M518.466 467.848L509.947 437.913M518.466 467.848L527.688 500.253M518.466 467.848H630.199M402.473 437.913H509.947M402.473 437.913H295M402.473 437.913L398.526 410.178M509.947 437.913L502.053 410.178M509.947 437.913H617.42M391.443 360.4H487.887M391.443 360.4L388.253 337.981M391.443 360.4H295M391.443 360.4L394.86 384.407M487.887 360.4L481.506 337.981M487.887 360.4L494.718 384.407M487.887 360.4H584.33M388.253 337.981H481.506M388.253 337.981H295M388.253 337.981L385.267 316.998M481.506 337.981L475.534 316.998M481.506 337.981H574.759M379.834 278.819H464.669M379.834 278.819L377.356 261.403M379.834 278.819H295M379.834 278.819L382.466 297.316M464.669 278.819L459.712 261.403M464.669 278.819L469.933 297.316M464.669 278.819H549.502M377.356 261.403H459.712M377.356 261.403H295M377.356 261.403L375.018 244.975M459.712 261.403L455.037 244.975M459.712 261.403H542.068M370.72 214.767H446.439M370.72 214.767L368.739 200.849M370.72 214.767H295M370.72 214.767L372.81 229.455M446.439 214.767L442.479 200.849M446.439 214.767L450.619 229.455M446.439 214.767H522.16M368.739 200.849H442.479M368.739 200.849H295M368.739 200.849L366.859 187.64M442.479 200.849L438.719 187.64M442.479 200.849H516.218M363.374 163.144H431.748M363.374 163.144L361.755 151.767M363.374 163.144H295M363.374 163.144L365.074 175.088M431.748 163.144L428.509 151.767M431.748 163.144L435.147 175.088M431.748 163.144H500.122M361.755 151.767H428.509M361.755 151.767H295M361.755 151.767L360.211 140.915M428.509 151.767L425.421 140.915M428.509 151.767H495.265M357.327 120.652H419.655M357.327 120.652L355.979 111.178M357.327 120.652H295M357.327 120.652L358.737 130.555M419.655 120.652L417.288 112.34L416.958 111.178M419.655 120.652L422.473 130.555M419.655 120.652H481.982M355.979 111.178L355.815 110.022L354.688 102.105M355.979 111.178H416.958M355.979 111.178H295M416.958 111.178L415.976 107.73L415.654 106.592L415.331 105.462L414.376 102.105M416.958 111.178H477.937M352.263 85.0645H409.527M352.263 85.0645L351.123 77.0533M352.263 85.0645H295M352.263 85.0645L352.702 88.1529L352.851 89.1933L352.999 90.2388L353.299 92.3461L353.451 93.4079M409.527 85.0645L407.808 79.0257L407.246 77.0533M409.527 85.0645L411.901 93.4079M409.527 85.0645H466.79M351.123 77.0533H407.246M351.123 77.0533H295M351.123 77.0533L350.028 69.3547M407.246 77.0533L405.867 72.206L405.595 71.2505L405.325 70.3001L405.055 69.3547M407.246 77.0533H463.37M347.96 54.8253H400.92M347.96 54.8253L346.984 47.9628M347.96 54.8253H295M347.96 54.8253L348.974 61.9505M400.92 54.8253L401.17 55.7012L402.691 61.0451L402.948 61.9505M400.92 54.8253L398.967 47.9628M400.92 54.8253H453.88M346.984 47.9628H398.967M346.984 47.9628H295M346.984 47.9628L346.042 41.3486M398.967 47.9628L398.253 45.4538L398.017 44.625L397.782 43.8003L397.085 41.3486M398.967 47.9628H450.95M344.259 28.813H393.518M344.259 28.813L343.412 22.8682M344.259 28.813H295M344.259 28.813L345.135 34.9694M393.518 28.813L393.302 28.0588L392.875 26.5596L392.664 25.8145L392.242 24.3357L392.034 23.5999L391.825 22.8682M393.518 28.813L394.386 31.8636L394.605 32.6352L395.047 34.1876L395.269 34.9694M393.518 28.813H442.776M343.412 22.8682L343.309 22.1395L343.205 21.4139L343.103 20.6914L342.595 17.1247M343.412 22.8682H391.825M343.412 22.8682H295M391.825 22.8682H440.238M391.825 22.8682L391.412 21.4139L391.205 20.6914L391.001 19.9719L390.392 17.8319L390.19 17.1247M958.921 615.783H1091.7M958.921 615.783L929.055 573.808M958.921 615.783H826.137M958.921 615.783L991.738 661.908M1091.7 615.783L1055.87 573.808M1091.7 615.783L1131.09 661.908M1091.7 615.783H1224.49M929.055 573.808H1055.87M929.055 573.808H802.245M929.055 573.808L901.762 535.448M1055.87 573.808L1023.11 535.448M1055.87 573.808H1182.68M853.665 467.848H965.398M853.665 467.848L832.367 437.913M853.665 467.848H741.932M853.665 467.848L876.721 500.253M965.398 467.848L939.84 437.913M965.398 467.848L993.065 500.253M965.398 467.848H1077.13M832.367 437.913H939.84M832.367 437.913H724.893M832.367 437.913L812.633 410.178M939.84 437.913L916.159 410.178M939.84 437.913H1047.31M777.216 360.4H873.659M777.216 360.4L761.264 337.981M777.216 360.4H680.772M777.216 360.4L794.298 384.407M873.659 360.4L854.518 337.981M873.659 360.4L894.156 384.407M873.659 360.4H970.102M761.264 337.981H854.518M761.264 337.981H668.012M761.264 337.981L746.335 316.998M854.518 337.981L836.602 316.998M854.518 337.981H947.77M719.171 278.819H804.006M719.171 278.819L706.78 261.403M719.171 278.819H634.337M719.171 278.819L732.332 297.316M804.006 278.819L789.136 261.403M804.006 278.819L819.799 297.316M804.006 278.819H888.841M706.78 261.403H789.136M706.78 261.403H624.424M706.78 261.403L695.092 244.975M789.136 261.403L775.11 244.975M789.136 261.403H871.492M673.599 214.767H749.319M673.599 214.767L663.696 200.849M673.599 214.767H597.88M673.599 214.767L684.049 229.455M749.319 214.767L737.436 200.849M749.319 214.767L761.859 229.455M749.319 214.767H825.04M663.696 200.849H737.436M663.696 200.849H589.957M663.696 200.849L654.298 187.64M737.436 200.849L726.158 187.64M737.436 200.849H811.175M636.87 163.144H705.244M636.87 163.144L628.774 151.767M636.87 163.144H568.495M636.87 163.144L645.368 175.088M705.244 163.144L695.529 151.767M705.244 163.144L715.441 175.088M705.244 163.144H773.617M628.774 151.767H695.529M628.774 151.767H562.02M628.774 151.767L621.054 140.915M695.529 151.767L686.264 140.915M695.529 151.767H762.284M606.636 120.652L607.499 121.866L608.369 123.086L613.681 130.555M606.636 120.652H668.963M606.636 120.652L599.895 111.178M606.636 120.652H544.309M668.963 120.652L660.875 111.178M668.963 120.652L677.418 130.555M668.963 120.652H731.291M599.895 111.178H660.875M599.895 111.178H538.917M599.895 111.178L593.44 102.105M660.875 111.178L653.128 102.105M660.875 111.178H721.853M581.316 85.0645H638.58M581.316 85.0645L575.616 77.0533M581.316 85.0645H524.053M581.316 85.0645L587.252 93.4079M638.58 85.0645L634.271 80.0201L631.739 77.0533M638.58 85.0645L645.703 93.4079M638.58 85.0645H695.842M575.616 77.0533H631.739M575.616 77.0533H519.493M575.616 77.0533L570.812 70.3001L570.138 69.3547M631.739 77.0533L625.166 69.3547M631.739 77.0533H687.862M559.801 54.8253H612.761M559.801 54.8253L558.563 53.0849L554.918 47.9628M559.801 54.8253H506.841M559.801 54.8253L561.05 56.5811L563.585 60.1437L564.87 61.9505M612.761 54.8253L606.902 47.9628M612.761 54.8253L615.015 57.4661L616.536 59.2474L618.844 61.9505M612.761 54.8253H665.721M554.918 47.9628H606.902M554.918 47.9628H502.934M554.918 47.9628L551.372 42.9786L550.211 41.3486M606.902 47.9628L604.759 45.4538L603.347 43.8003L601.254 41.3486M606.902 47.9628H658.885M541.293 28.813H590.552M541.293 28.813L538.632 25.0736L537.063 22.8682M541.293 28.813H492.034M541.293 28.813L545.673 34.9694M590.552 28.813L586.728 24.3357L586.102 23.5999L585.476 22.8682M590.552 28.813L593.157 31.8636L595.808 34.9694M590.552 28.813H639.81M537.063 22.8682H585.476M537.063 22.8682L535.003 19.9719L533.986 18.5422L533.48 17.8319L532.977 17.1247M537.063 22.8682H488.651M585.476 22.8682H633.889M585.476 22.8682L580.572 17.1247M1262.26 437.913H1154.79M1262.26 437.913L1226.74 410.178M1262.26 437.913H1294.46M1262.26 437.913L1294.46 463.057M1162.99 360.4H1259.43M1162.99 360.4L1134.28 337.981M1162.99 360.4H1066.55M1162.99 360.4L1193.73 384.407M1259.43 360.4L1227.53 337.981M1259.43 360.4L1293.59 384.407M1259.43 360.4H1294.46M1134.28 337.981H1227.53M1134.28 337.981H1041.02M1134.28 337.981L1107.4 316.998M1227.53 337.981L1197.67 316.998M1227.53 337.981H1294.46M1058.51 278.819H1143.34M1058.51 278.819L1036.2 261.403M1058.51 278.819H973.674M1058.51 278.819L1082.2 297.316M1143.34 278.819L1118.56 261.403M1143.34 278.819L1169.66 297.316M1143.34 278.819H1228.18M1036.2 261.403H1118.56M1036.2 261.403H953.848M1036.2 261.403L1015.17 244.975M1118.56 261.403L1095.18 244.975M1118.56 261.403H1200.92M976.479 214.767H1052.2M976.479 214.767L958.654 200.849M976.479 214.767H900.759M976.479 214.767L995.288 229.455M1052.2 214.767L1032.39 200.849M1052.2 214.767L1073.1 229.455M1052.2 214.767H1127.92M958.654 200.849H1032.39M958.654 200.849H884.915M958.654 200.849L941.737 187.64M1032.39 200.849L1013.6 187.64M1032.39 200.849H1106.13M910.365 163.144H978.739M910.365 163.144L895.794 151.767M910.365 163.144H841.992M910.365 163.144L925.661 175.088M978.739 163.144L962.549 151.767M978.739 163.144L995.735 175.088M978.739 163.144H1047.11M895.794 151.767H962.549M895.794 151.767H829.039M895.794 151.767L881.896 140.915M962.549 151.767L947.107 140.915M962.549 151.767H1029.3M855.946 120.652H918.273M855.946 120.652L843.812 111.178M855.946 120.652H793.618M855.946 120.652L868.628 130.555M918.273 120.652L904.79 111.178M918.273 120.652L932.364 130.555M918.273 120.652H980.6M843.812 111.178H904.79M843.812 111.178H782.833M843.812 111.178L832.192 102.105M904.79 111.178L891.88 102.105M904.79 111.178H965.77M810.368 85.0645H867.631M810.368 85.0645L800.108 77.0533M810.368 85.0645H753.105M810.368 85.0645L821.054 93.4079M867.631 85.0645L856.232 77.0533M867.631 85.0645L879.505 93.4079M867.631 85.0645H924.895M800.108 77.0533H856.232M800.108 77.0533H743.985M800.108 77.0533L790.249 69.3547M856.232 77.0533L845.277 69.3547M856.232 77.0533H912.355M771.641 54.8253H824.601M771.641 54.8253L762.852 47.9628M771.641 54.8253H718.681M771.641 54.8253L773.891 56.5811L775.023 57.4661L780.768 61.9505M824.601 54.8253L814.836 47.9628M824.601 54.8253L834.742 61.9505M824.601 54.8253H877.561M762.852 47.9628H814.836M762.852 47.9628H710.869M762.852 47.9628L754.382 41.3486M814.836 47.9628L805.424 41.3486M814.836 47.9628H866.819M738.328 28.813H787.587M738.328 28.813L730.714 22.8682M738.328 28.813H689.069M738.328 28.813L746.212 34.9694M787.587 28.813L781.214 24.3357L780.169 23.5999L779.127 22.8682M787.587 28.813L796.347 34.9694M787.587 28.813H836.845M730.714 22.8682H779.127M730.714 22.8682L724.265 17.8319L723.358 17.1247M730.714 22.8682H682.302M779.127 22.8682H827.54M779.127 22.8682L770.954 17.1247M1279.36 214.767L1253.61 200.849M1279.36 214.767H1203.64M1279.36 214.767L1294.46 222.932M1279.36 214.767H1294.46M1253.61 200.849H1179.87M1253.61 200.849L1229.18 187.64M1253.61 200.849H1294.46M1183.86 163.144H1252.24M1183.86 163.144L1162.81 151.767M1183.86 163.144H1115.49M1183.86 163.144L1205.96 175.088M1252.24 163.144L1229.57 151.767M1252.24 163.144L1276.03 175.088M1252.24 163.144H1294.46M1162.81 151.767H1229.57M1162.81 151.767H1096.06M1162.81 151.767L1142.74 140.915M1229.57 151.767L1207.95 140.915M1229.57 151.767H1294.46M1105.25 120.652H1167.58M1105.25 120.652L1087.73 111.178M1105.25 120.652H1042.93M1105.25 120.652L1123.57 130.555M1167.58 120.652L1148.71 111.178M1167.58 120.652L1187.31 130.555M1167.58 120.652H1229.91M1087.73 111.178H1148.71M1087.73 111.178H1026.75M1087.73 111.178L1070.94 102.105M1148.71 111.178L1130.63 102.105M1148.71 111.178H1209.69M1039.42 85.0645H1096.68M1039.42 85.0645L1024.6 77.0533M1039.42 85.0645H982.158M1039.42 85.0645L1054.86 93.4079M1096.68 85.0645L1080.72 77.0533M1096.68 85.0645L1113.31 93.4079M1096.68 85.0645H1153.95M1024.6 77.0533H1080.72M1024.6 77.0533H968.478M1024.6 77.0533L1010.36 69.3547M1080.72 77.0533L1065.39 69.3547M1080.72 77.0533H1136.85M983.482 54.8253H1036.44M983.482 54.8253L970.787 47.9628M983.482 54.8253H930.522M983.482 54.8253L996.664 61.9505M1036.44 54.8253L1022.77 47.9628M1036.44 54.8253L1050.64 61.9505M1036.44 54.8253H1089.4M970.787 47.9628H1022.77M970.787 47.9628H918.803M970.787 47.9628L958.551 41.3486M1022.77 47.9628L1009.59 41.3486M1022.77 47.9628H1074.75M935.362 28.813H984.621M935.362 28.813L924.365 22.8682M935.362 28.813H886.104M935.362 28.813L946.75 34.9694M984.621 28.813L972.778 22.8682M984.621 28.813L996.885 34.9694M984.621 28.813H1033.88M924.365 22.8682H972.778M924.365 22.8682L913.74 17.1247M924.365 22.8682H875.953M972.778 22.8682H1021.19M972.778 22.8682L961.335 17.1247M1268.47 85.0645L1249.09 77.0533M1268.47 85.0645H1211.21M1268.47 85.0645L1288.66 93.4079M1268.47 85.0645H1294.46M1249.09 77.0533H1192.97M1249.09 77.0533L1230.47 69.3547M1249.09 77.0533H1294.46M1195.32 54.8253H1248.28M1195.32 54.8253L1178.72 47.9628M1195.32 54.8253H1142.36M1195.32 54.8253L1212.56 61.9505M1248.28 54.8253L1230.7 47.9628M1248.28 54.8253L1266.53 61.9505M1248.28 54.8253H1294.46M1178.72 47.9628H1230.7M1178.72 47.9628H1126.74M1178.72 47.9628L1162.72 41.3486M1230.7 47.9628L1213.76 41.3486M1230.7 47.9628H1282.69M1132.4 28.813H1181.66M1132.4 28.813L1118.02 22.8682M1132.4 28.813H1083.14M1132.4 28.813L1147.29 34.9694M1181.66 28.813L1166.43 22.8682M1181.66 28.813L1197.42 34.9694M1181.66 28.813H1230.91M1118.02 22.8682H1166.43M1118.02 22.8682L1104.12 17.1247M1118.02 22.8682H1069.6M1166.43 22.8682H1214.84M1166.43 22.8682L1151.72 17.1247M1197.42 34.9694L1213.76 41.3486M1197.42 34.9694H1247.56M1197.42 34.9694H1147.29M1230.91 28.813L1214.84 22.8682M1230.91 28.813L1247.56 34.9694M1230.91 28.813H1280.17M1214.84 22.8682H1263.25M1214.84 22.8682L1199.31 17.1247M1151.72 17.1247H1104.12M1151.72 17.1247H1199.31M1151.72 17.1247L1137.49 11.5713M1247.56 34.9694L1264.81 41.3486M1247.56 34.9694H1294.46M1280.17 28.813L1263.25 22.8682M1280.17 28.813L1294.46 33.8335M1280.17 28.813H1294.46M1263.25 22.8682L1246.91 17.1247M1263.25 22.8682H1294.46M1199.31 17.1247H1246.91M1199.31 17.1247L1184.3 11.5713M1246.91 17.1247L1231.1 11.5713M1246.91 17.1247H1294.46M1213.76 41.3486H1264.81M1213.76 41.3486H1162.72M1282.69 47.9628L1264.81 41.3486M1282.69 47.9628L1294.46 52.3165M1282.69 47.9628H1294.46M1264.81 41.3486H1294.46M1162.72 41.3486H1111.68M1162.72 41.3486L1147.29 34.9694M1147.29 34.9694H1097.15M1266.53 61.9505L1285.5 69.3547M1266.53 61.9505H1212.56M1266.53 61.9505H1294.46M1294.62 54.8253H1294.46M1285.5 69.3547H1230.47M1285.5 69.3547L1294.46 72.854M1285.5 69.3547H1294.46M1230.47 69.3547H1175.44M1230.47 69.3547L1212.56 61.9505M1212.56 61.9505H1158.59M996.885 34.9694L1009.59 41.3486M996.885 34.9694H1047.02M996.885 34.9694H946.75M1033.88 28.813L1021.19 22.8682M1033.88 28.813L1047.02 34.9694M1033.88 28.813H1083.14M1021.19 22.8682H1069.6M1021.19 22.8682L1008.93 17.1247M961.335 17.1247H1008.93M961.335 17.1247L950.272 11.5713M961.335 17.1247H913.74M1047.02 34.9694L1060.64 41.3486M1047.02 34.9694H1097.15M1083.14 28.813L1069.6 22.8682M1083.14 28.813L1097.15 34.9694M1069.6 22.8682L1056.53 17.1247M1008.93 17.1247H1056.53M1008.93 17.1247L997.077 11.5713M1097.15 34.9694L1111.68 41.3486M1104.12 17.1247H1056.53M1104.12 17.1247L1090.69 11.5713M1056.53 17.1247L1043.88 11.5713M1009.59 41.3486H1060.64M1009.59 41.3486H958.551M1074.75 47.9628L1060.64 41.3486M1074.75 47.9628L1089.4 54.8253M1074.75 47.9628H1126.74M1060.64 41.3486H1111.68M958.551 41.3486H907.509M958.551 41.3486L946.75 34.9694M1111.68 41.3486L1126.74 47.9628M946.75 34.9694H896.616M1089.4 54.8253L1104.61 61.9505M1089.4 54.8253H1142.36M1126.74 47.9628L1142.36 54.8253M1142.36 54.8253L1158.59 61.9505M1050.64 61.9505L1065.39 69.3547M1050.64 61.9505H1104.61M1050.64 61.9505H996.664M1104.61 61.9505L1120.41 69.3547M1104.61 61.9505H1158.59M1158.59 61.9505L1175.44 69.3547M1065.39 69.3547H1120.41M1065.39 69.3547H1010.36M1136.85 77.0533L1120.41 69.3547M1136.85 77.0533L1153.95 85.0645M1136.85 77.0533H1192.97M1120.41 69.3547H1175.44M1010.36 69.3547H955.332M1010.36 69.3547L996.664 61.9505M1175.44 69.3547L1192.97 77.0533M996.664 61.9505H942.69M1153.95 85.0645L1171.76 93.4079M1153.95 85.0645H1211.21M1192.97 77.0533L1211.21 85.0645M1211.21 85.0645L1230.21 93.4079M1113.31 93.4079L1130.63 102.105M1113.31 93.4079H1171.76M1113.31 93.4079H1054.86M1171.76 93.4079L1190.32 102.105M1171.76 93.4079H1230.21M1230.21 93.4079L1250.01 102.105M1230.21 93.4079H1288.66M1288.66 93.4079H1294.46M1288.66 93.4079L1294.46 95.8068M1130.63 102.105H1190.32M1130.63 102.105H1070.94M1209.69 111.178L1190.32 102.105M1209.69 111.178L1229.91 120.652M1209.69 111.178H1270.67M1190.32 102.105H1250.01M1070.94 102.105H1011.26M1070.94 102.105L1054.86 93.4079M1250.01 102.105L1270.67 111.178M1250.01 102.105H1294.46M1054.86 93.4079H996.406M1229.91 120.652L1251.05 130.555M1229.91 120.652H1292.24M1270.67 111.178L1292.24 120.652M1270.67 111.178H1294.46M1294.77 102.105H1294.46M1292.24 120.652L1294.46 121.629M1292.24 120.652H1294.46M1187.31 130.555L1207.95 140.915M1187.31 130.555H1251.05M1187.31 130.555H1123.57M1251.05 130.555L1273.16 140.915M1251.05 130.555H1294.46M1295 121.866L1294.46 121.629M1207.95 140.915H1273.16M1207.95 140.915H1142.74M1273.16 140.915H1294.46M1273.16 140.915L1294.46 150.895M1142.74 140.915H1077.53M1142.74 140.915L1123.57 130.555M1123.57 130.555H1059.84M1276.03 175.088H1205.96M1276.03 175.088L1294.46 184.34M1276.03 175.088H1294.46M1294.97 163.144H1294.46M1205.96 175.088H1135.88M1205.96 175.088L1229.18 187.64M1294.66 184.442L1294.46 184.34M796.347 34.9694L805.424 41.3486M796.347 34.9694H846.481M796.347 34.9694H746.212M836.845 28.813L827.54 22.8682M836.845 28.813L846.481 34.9694M836.845 28.813H886.104M827.54 22.8682H875.953M827.54 22.8682L818.549 17.1247M770.954 17.1247H818.549M770.954 17.1247L767.959 15.0205L763.051 11.5713M770.954 17.1247H723.358M846.481 34.9694L856.466 41.3486M846.481 34.9694H896.616M886.104 28.813L875.953 22.8682M886.104 28.813L896.616 34.9694M875.953 22.8682L866.144 17.1247M818.549 17.1247H866.144M818.549 17.1247L809.857 11.5713M896.616 34.9694L907.509 41.3486M913.74 17.1247L903.467 11.5713M913.74 17.1247H866.144M866.144 17.1247L864.942 16.4195L862.551 15.0205L856.662 11.5713M805.424 41.3486H856.466M805.424 41.3486H754.382M866.819 47.9628L856.466 41.3486M866.819 47.9628L877.561 54.8253M866.819 47.9628H918.803M856.466 41.3486H907.509M754.382 41.3486H703.339M754.382 41.3486L746.212 34.9694M907.509 41.3486L918.803 47.9628M746.212 34.9694H696.077M877.561 54.8253L888.716 61.9505M877.561 54.8253H930.522M918.803 47.9628L920.244 48.8059L930.522 54.8253M930.522 54.8253L942.69 61.9505M834.742 61.9505L836.036 62.8611L845.277 69.3547M834.742 61.9505H888.716M834.742 61.9505H780.768M888.716 61.9505L900.304 69.3547M888.716 61.9505H942.69M942.69 61.9505L955.332 69.3547M845.277 69.3547H900.304M845.277 69.3547H790.249M912.355 77.0533L900.304 69.3547M912.355 77.0533L924.895 85.0645M912.355 77.0533H968.478M900.304 69.3547H955.332M790.249 69.3547H735.221M790.249 69.3547L780.768 61.9505M955.332 69.3547L968.478 77.0533M780.768 61.9505H726.793M924.895 85.0645L937.955 93.4079M924.895 85.0645H982.158M968.478 77.0533L982.158 85.0645M982.158 85.0645L996.406 93.4079M879.505 93.4079L891.88 102.105M879.505 93.4079H937.955M879.505 93.4079H821.054M937.955 93.4079L951.568 102.105M937.955 93.4079H996.406M996.406 93.4079L1011.26 102.105M891.88 102.105H951.568M891.88 102.105H832.192M965.77 111.178L951.568 102.105M965.77 111.178L980.6 120.652M965.77 111.178H1026.75M951.568 102.105H1011.26M832.192 102.105H772.504M832.192 102.105L821.054 93.4079M1011.26 102.105L1026.75 111.178M821.054 93.4079H762.603M980.6 120.652L996.1 130.555M980.6 120.652H1042.93M1026.75 111.178L1042.93 120.652M1042.93 120.652L1059.84 130.555M932.364 130.555L947.107 140.915M932.364 130.555H996.1M932.364 130.555H868.628M996.1 130.555L1012.32 140.915M996.1 130.555H1059.84M1059.84 130.555L1077.53 140.915M947.107 140.915H1012.32M947.107 140.915H881.896M1029.3 151.767L1012.32 140.915M1029.3 151.767L1047.11 163.144M1029.3 151.767H1096.06M1012.32 140.915H1077.53M881.896 140.915H816.686M881.896 140.915L868.628 130.555M1077.53 140.915L1096.06 151.767M868.628 130.555H804.891M1047.11 163.144L1065.81 175.088M1047.11 163.144H1115.49M1096.06 151.767L1115.49 163.144M1115.49 163.144L1135.88 175.088M995.735 175.088L1013.6 187.64M995.735 175.088H1065.81M995.735 175.088H925.661M1065.81 175.088L1085.46 187.64M1065.81 175.088H1135.88M1135.88 175.088L1157.32 187.64M1013.6 187.64H1085.46M1013.6 187.64H941.737M1106.13 200.849L1085.46 187.64M1106.13 200.849L1127.92 214.767M1106.13 200.849H1179.87M1085.46 187.64H1157.32M941.737 187.64H869.877M941.737 187.64L925.661 175.088M1157.32 187.64L1179.87 200.849M1157.32 187.64H1229.18M925.661 175.088H855.588M1127.92 214.767L1150.91 229.455M1127.92 214.767H1203.64M1179.87 200.849L1203.64 214.767M1229.18 187.64H1294.46M1203.64 214.767L1228.72 229.455M1073.1 229.455L1095.18 244.975M1073.1 229.455H1150.91M1073.1 229.455H995.288M1150.91 229.455L1175.2 244.975M1150.91 229.455H1228.72M1228.72 229.455L1255.22 244.975M1228.72 229.455H1294.46M1095.18 244.975H1175.2M1095.18 244.975H1015.17M1200.92 261.403L1175.2 244.975M1200.92 261.403L1228.18 278.819M1200.92 261.403H1283.27M1175.2 244.975H1255.22M1015.17 244.975H935.147M1015.17 244.975L995.288 229.455M1255.22 244.975L1283.27 261.403M1255.22 244.975H1294.46M995.288 229.455H917.478M1228.18 278.819L1257.13 297.316M1228.18 278.819H1294.46M1283.27 261.403H1294.46M1283.27 261.403L1294.46 267.956M1169.66 297.316L1197.67 316.998M1169.66 297.316H1257.13M1169.66 297.316H1082.2M1257.13 297.316L1287.94 316.998M1257.13 297.316H1294.46M1197.67 316.998H1287.94M1197.67 316.998H1107.4M1287.94 316.998L1294.46 321.165M1287.94 316.998H1294.46M1107.4 316.998H1017.14M1107.4 316.998L1082.2 297.316M1082.2 297.316H994.731M1293.59 384.407H1193.73M1293.59 384.407H1294.46M1293.59 384.407L1294.46 385.016M1193.73 384.407H1093.88M1193.73 384.407L1226.74 410.178M595.808 34.9694L597.827 37.3342L598.506 38.1304L601.254 41.3486M595.808 34.9694H645.942M595.808 34.9694H545.673M639.81 28.813L635.35 24.3357L633.889 22.8682M639.81 28.813L645.164 34.1876L645.942 34.9694M639.81 28.813H689.069M633.889 22.8682H682.302M633.889 22.8682L628.167 17.1247M580.572 17.1247H628.167M580.572 17.1247L578.775 15.0205L575.831 11.5713M580.572 17.1247H532.977M645.942 34.9694L647.51 36.5422L652.297 41.3486M645.942 34.9694H696.077M689.069 28.813L682.302 22.8682M689.069 28.813L696.077 34.9694M682.302 22.8682L677.376 18.5422L675.763 17.1247M628.167 17.1247H675.763M628.167 17.1247L622.636 11.5713M696.077 34.9694L703.339 41.3486M723.358 17.1247L722.456 16.4195L716.246 11.5713M723.358 17.1247H675.763M675.763 17.1247L673.367 15.0205L669.441 11.5713M601.254 41.3486H652.297M601.254 41.3486H550.211M658.885 47.9628L652.297 41.3486M658.885 47.9628L665.721 54.8253M658.885 47.9628H710.869M652.297 41.3486H703.339M550.211 41.3486H499.169M550.211 41.3486L545.673 34.9694M703.339 41.3486L710.869 47.9628M545.673 34.9694H495.539M665.721 54.8253L670.125 59.2474L671.019 60.1437L672.818 61.9505M665.721 54.8253H718.681M710.869 47.9628L718.681 54.8253M718.681 54.8253L726.793 61.9505M618.844 61.9505L625.166 69.3547M618.844 61.9505H672.818M618.844 61.9505H564.87M672.818 61.9505L680.194 69.3547M672.818 61.9505H726.793M726.793 61.9505L735.221 69.3547M625.166 69.3547H680.194M625.166 69.3547H570.138M687.862 77.0533L683.034 72.206L682.083 71.2505L680.194 69.3547M687.862 77.0533L695.842 85.0645M687.862 77.0533H743.985M680.194 69.3547H735.221M570.138 69.3547H515.111M570.138 69.3547L564.87 61.9505M735.221 69.3547L743.985 77.0533M564.87 61.9505H510.896M695.842 85.0645L704.154 93.4079M695.842 85.0645H753.105M743.985 77.0533L753.105 85.0645M753.105 85.0645L762.603 93.4079M645.703 93.4079L649.377 97.7104L650.306 98.8009L653.128 102.105M645.703 93.4079H704.154M645.703 93.4079H587.252M704.154 93.4079L712.816 102.105M704.154 93.4079H762.603M762.603 93.4079L772.504 102.105M653.128 102.105H712.816M653.128 102.105H593.44M721.853 111.178L712.816 102.105M721.853 111.178L731.291 120.652M721.853 111.178H782.833M712.816 102.105H772.504M593.44 102.105H533.752M593.44 102.105L591.868 99.8964L587.252 93.4079M772.504 102.105L782.833 111.178M587.252 93.4079H528.802M731.291 120.652L741.154 130.555M731.291 120.652H793.618M782.833 111.178L793.618 120.652M793.618 120.652L804.891 130.555M677.418 130.555L686.264 140.915M677.418 130.555H741.154M677.418 130.555H613.681M741.154 130.555L751.475 140.915M741.154 130.555H804.891M804.891 130.555L816.686 140.915M686.264 140.915H751.475M686.264 140.915H621.054M762.284 151.767L751.475 140.915M762.284 151.767L773.617 163.144M762.284 151.767H829.039M751.475 140.915H816.686M621.054 140.915H555.843M621.054 140.915L613.681 130.555M816.686 140.915L829.039 151.767M613.681 130.555H549.946M773.617 163.144L785.514 175.088M773.617 163.144H841.992M829.039 151.767L841.992 163.144M841.992 163.144L855.588 175.088M715.441 175.088L726.158 187.64M715.441 175.088H785.514M715.441 175.088H645.368M785.514 175.088L798.018 187.64M785.514 175.088H855.588M855.588 175.088L869.877 187.64M726.158 187.64H798.018M726.158 187.64H654.298M811.175 200.849L798.018 187.64M811.175 200.849L825.04 214.767M811.175 200.849H884.915M798.018 187.64H869.877M654.298 187.64H582.439M654.298 187.64L645.368 175.088M869.877 187.64L884.915 200.849M645.368 175.088H575.294M825.04 214.767L839.669 229.455M825.04 214.767H900.759M884.915 200.849L900.759 214.767M900.759 214.767L917.478 229.455M761.859 229.455L775.11 244.975M761.859 229.455H839.669M761.859 229.455H684.049M839.669 229.455L855.128 244.975M839.669 229.455H917.478M917.478 229.455L935.147 244.975M775.11 244.975H855.128M775.11 244.975H695.092M871.492 261.403L855.128 244.975M871.492 261.403L888.841 278.819M871.492 261.403H953.848M855.128 244.975H935.147M695.092 244.975H615.073M695.092 244.975L684.049 229.455M935.147 244.975L953.848 261.403M684.049 229.455H606.24M888.841 278.819L907.265 297.316M888.841 278.819H973.674M953.848 261.403L973.674 278.819M973.674 278.819L994.731 297.316M819.799 297.316L836.602 316.998M819.799 297.316H907.265M819.799 297.316H732.332M907.265 297.316L926.869 316.998M907.265 297.316H994.731M994.731 297.316L1017.14 316.998M836.602 316.998H926.869M836.602 316.998H746.335M947.77 337.981L926.869 316.998M947.77 337.981L970.102 360.4M947.77 337.981H1041.02M926.869 316.998H1017.14M746.335 316.998H656.068M746.335 316.998L732.332 297.316M1017.14 316.998L1041.02 337.981M732.332 297.316H644.866M970.102 360.4L994.016 384.407M970.102 360.4H1066.55M1041.02 337.981L1066.55 360.4M1066.55 360.4L1093.88 384.407M894.156 384.407L916.159 410.178M894.156 384.407H994.016M894.156 384.407H794.298M994.016 384.407L1019.69 410.178M994.016 384.407H1093.88M1093.88 384.407L1123.21 410.178M916.159 410.178H1019.69M916.159 410.178H812.633M1047.31 437.913L1019.69 410.178M1047.31 437.913L1077.13 467.848M1047.31 437.913H1154.79M1019.69 410.178H1123.21M812.633 410.178H709.106M812.633 410.178L794.298 384.407M1123.21 410.178L1154.79 437.913M1123.21 410.178H1226.74M794.298 384.407H694.438M1077.13 467.848L1109.41 500.253M1077.13 467.848H1188.86M1154.79 437.913L1188.86 467.848M1226.74 410.178H1294.46M1188.86 467.848L1225.75 500.253M1188.86 467.848H1294.46M993.065 500.253L1023.11 535.448M993.065 500.253H1109.41M993.065 500.253H876.721M1109.41 500.253L1144.47 535.448M1109.41 500.253H1225.75M1225.75 500.253L1265.82 535.448M1225.75 500.253H1294.46M1023.11 535.448H1144.47M1023.11 535.448H901.762M1182.68 573.808L1144.47 535.448M1182.68 573.808L1224.49 615.783M1182.68 573.808H1294.46M1144.47 535.448H1265.82M901.762 535.448H780.409M901.762 535.448L876.721 500.253M1265.82 535.448H1294.46M1265.82 535.448L1294.46 560.609M876.721 500.253H760.376M1224.49 615.783L1270.43 661.908M1224.49 615.783H1294.46M1131.09 661.908L1174.56 712.83M1131.09 661.908H1270.43M1131.09 661.908H991.738M1270.43 661.908L1294.46 686.031M1270.43 661.908H1294.46M1174.56 712.83H1027.97M1174.56 712.83L1294.46 712.829M1027.97 712.83H881.375M1027.97 712.83L991.738 661.908M991.738 661.908H852.39M395.269 34.9694L395.493 35.7543L395.717 36.5422L395.943 37.3342L396.168 38.1304L396.855 40.5381L397.085 41.3486M395.269 34.9694H445.404M395.269 34.9694H345.135M442.776 28.813L440.864 24.3357L440.238 22.8682M442.776 28.813L444.408 32.6352L445.404 34.9694M442.776 28.813H492.034M440.238 22.8682H488.651M440.238 22.8682L438.391 18.5422L437.786 17.1247M390.19 17.1247L389.991 16.4195L389.197 13.6316L388.61 11.5713M390.19 17.1247H437.786M390.19 17.1247H342.595M445.404 34.9694L445.739 35.7543L446.076 36.5422L446.413 37.3342L446.754 38.1304L448.127 41.3486M445.404 34.9694H495.539M492.034 28.813L489.486 24.3357L488.651 22.8682M492.034 28.813L495.539 34.9694M488.651 22.8682L487.002 19.9719L485.784 17.8319L485.382 17.1247M437.786 17.1247L437.486 16.4195L436.888 15.0205L436.295 13.6316L436.001 12.9418L435.415 11.5713M437.786 17.1247H485.382M495.539 34.9694L498.25 39.7318L499.169 41.3486M532.977 17.1247L530.002 12.9418L529.026 11.5713M532.977 17.1247H485.382M485.382 17.1247L482.61 12.255L482.22 11.5713M397.085 41.3486H448.127M397.085 41.3486H346.042M450.95 47.9628L448.127 41.3486M450.95 47.9628L453.88 54.8253M450.95 47.9628H502.934M448.127 41.3486H499.169M346.042 41.3486H295M346.042 41.3486L345.135 34.9694M499.169 41.3486L502.934 47.9628M345.135 34.9694H295M453.88 54.8253L454.631 56.5811L455.769 59.2474L456.922 61.9505M453.88 54.8253H506.841M502.934 47.9628L503.415 48.8059L506.841 54.8253M506.841 54.8253L507.339 55.7012L507.841 56.5811L508.343 57.4661L510.896 61.9505M402.948 61.9505L405.055 69.3547M402.948 61.9505H456.922M402.948 61.9505H348.974M456.922 61.9505L460.083 69.3547M456.922 61.9505H510.896M510.896 61.9505L514.041 67.4764L514.575 68.4135L515.111 69.3547M405.055 69.3547H460.083M405.055 69.3547H350.028M463.37 77.0533L463.789 78.0374L464.212 79.0257L464.636 80.0201L466.79 85.0645M463.37 77.0533L461.71 73.1657L461.3 72.206L460.893 71.2505L460.083 69.3547M463.37 77.0533H519.493M460.083 69.3547H515.111M350.028 69.3547H295M350.028 69.3547L348.974 61.9505M515.111 69.3547L519.493 77.0533M348.974 61.9505H295M466.79 85.0645L469.899 92.3461L470.351 93.4079M466.79 85.0645H524.053M519.493 77.0533L520.616 79.0257L524.053 85.0645M524.053 85.0645L525.811 88.1529L528.802 93.4079M411.901 93.4079L413.126 97.7104L413.435 98.8009L414.376 102.105M411.901 93.4079H470.351M411.901 93.4079H353.451M470.351 93.4079L474.064 102.105M470.351 93.4079H528.802M528.802 93.4079L533.752 102.105M414.376 102.105H474.064M414.376 102.105H354.688M477.937 111.178L474.064 102.105M477.937 111.178L481.982 120.652M477.937 111.178H538.917M474.064 102.105H533.752M354.688 102.105H295M354.688 102.105L354.373 99.8964L353.755 95.5479L353.451 93.4079M533.752 102.105L538.917 111.178M353.451 93.4079H295M481.982 120.652L485.134 128.038L486.21 130.555M481.982 120.652H544.309M538.917 111.178L544.309 120.652M544.309 120.652L547.095 125.548L549.946 130.555M422.473 130.555L425.421 140.915M422.473 130.555H486.21M422.473 130.555H358.737M486.21 130.555L490.632 140.915M486.21 130.555H549.946M549.946 130.555L555.843 140.915M425.421 140.915H490.632M425.421 140.915H360.211M495.265 151.767L494.085 149.006L490.632 140.915M495.265 151.767L500.122 163.144M495.265 151.767H562.02M490.632 140.915H555.843M360.211 140.915H295M360.211 140.915L358.737 130.555M555.843 140.915L562.02 151.767M358.737 130.555H295M500.122 163.144L505.22 175.088M500.122 163.144H568.495M562.02 151.767L568.495 163.144M568.495 163.144L575.294 175.088M435.147 175.088L438.719 187.64M435.147 175.088H505.22M435.147 175.088H365.074M505.22 175.088L510.579 187.64M505.22 175.088H575.294M575.294 175.088L582.439 187.64M438.719 187.64H510.579M438.719 187.64H366.859M516.218 200.849L510.579 187.64M516.218 200.849L522.16 214.767M516.218 200.849H589.957M510.579 187.64H582.439M366.859 187.64H295M366.859 187.64L365.291 176.623L365.074 175.088M582.439 187.64L589.957 200.849M365.074 175.088H295M522.16 214.767L528.429 229.455M522.16 214.767H597.88M589.957 200.849L595.859 211.219L597.88 214.767M597.88 214.767L606.24 229.455M450.619 229.455L455.037 244.975M450.619 229.455H528.429M450.619 229.455H372.81M528.429 229.455L535.055 244.975M528.429 229.455H606.24M606.24 229.455L615.073 244.975M455.037 244.975H535.055M455.037 244.975H375.018M542.068 261.403L535.055 244.975M542.068 261.403L549.502 278.819M542.068 261.403H624.424M535.055 244.975H615.073M375.018 244.975H295M375.018 244.975L372.81 229.455M615.073 244.975L624.424 261.403M372.81 229.455H295M549.502 278.819L557.399 297.316M549.502 278.819H634.337M624.424 261.403L634.337 278.819M634.337 278.819L644.866 297.316M469.933 297.316L475.534 316.998M469.933 297.316H557.399M469.933 297.316H382.466M557.399 297.316L565.801 316.998M557.399 297.316H644.866M644.866 297.316L656.068 316.998M475.534 316.998H565.801M475.534 316.998H385.267M574.759 337.981L565.801 316.998M574.759 337.981L584.33 360.4M574.759 337.981H668.012M565.801 316.998H656.068M385.267 316.998H295M385.267 316.998L382.466 297.316M656.068 316.998L668.012 337.981M382.466 297.316H295M584.33 360.4L594.578 384.407M584.33 360.4H680.772M668.012 337.981L680.772 360.4M680.772 360.4L694.438 384.407M494.718 384.407L502.053 410.178M494.718 384.407H594.578M494.718 384.407H394.86M594.578 384.407L605.58 410.178M594.578 384.407H694.438M694.438 384.407L709.106 410.178M502.053 410.178H605.58M502.053 410.178H398.526M617.42 437.913L605.58 410.178M617.42 437.913L630.199 467.848M617.42 437.913H724.893M605.58 410.178H709.106M398.526 410.178H295M398.526 410.178L394.86 384.407M709.106 410.178L724.893 437.913M394.86 384.407H295M630.199 467.848L644.033 500.253M630.199 467.848H741.932M724.893 437.913L741.932 467.848M741.932 467.848L760.376 500.253M527.688 500.253L537.705 535.448M527.688 500.253H644.033M527.688 500.253H411.345M644.033 500.253L659.057 535.448M644.033 500.253H760.376M760.376 500.253L780.409 535.448M537.705 535.448H659.057M537.705 535.448H416.352M675.434 573.808L659.057 535.448M675.434 573.808L693.352 615.783M675.434 573.808H802.245M659.057 535.448H780.409M416.352 535.448H295M416.352 535.448L411.345 500.253M780.409 535.448L802.245 573.808M411.345 500.253H295M693.352 615.783L713.043 661.908M693.352 615.783H826.137M802.245 573.808L826.137 615.783M826.137 615.783L852.39 661.908M573.695 661.908L588.187 712.83M573.695 661.908H713.043M573.695 661.908H434.348M713.043 661.908L734.781 712.83M713.043 661.908H852.39M852.39 661.908L881.375 712.83M734.781 712.83H588.187M734.781 712.83H881.375M588.187 712.83H441.594M441.594 712.83H295M441.594 712.83L434.348 661.908M434.348 661.908H295M194.731 34.9694L194.507 35.7543L194.283 36.5422L194.058 37.3342L193.832 38.1304L193.376 39.7318L193.145 40.5381L192.915 41.3486M194.731 34.9694H244.866M194.731 34.9694H144.596M245.741 28.813L246.588 22.8682M245.741 28.813L244.866 34.9694M245.741 28.813H295M246.588 22.8682L246.691 22.1395L246.795 21.4139L246.897 20.6914L247.405 17.1247M246.588 22.8682H295M199.81 17.1247L200.01 16.4195L200.803 13.6316L201.39 11.5713M199.81 17.1247H247.405M199.81 17.1247H152.214M244.866 34.9694L244.753 35.7543L244.642 36.5422L244.528 37.3342L243.958 41.3486M244.866 34.9694H295M295 28.813V22.8682M295 28.813V34.9694M295 22.8682V17.1247M247.405 17.1247H295M247.405 17.1247L247.704 15.0205L247.804 14.3245L248.195 11.5713M295 34.9694V41.3486M342.595 17.1247L342.297 15.0205L342.196 14.3245L342.099 13.6316L342 12.9418L341.903 12.255L341.805 11.5713M342.595 17.1247H295M295 17.1247V11.5713M192.915 41.3486H243.958M192.915 41.3486H141.873M243.017 47.9628L242.896 48.8059L242.776 49.6542L242.04 54.8253M243.017 47.9628L243.958 41.3486M243.017 47.9628H295M243.958 41.3486H295M141.873 41.3486H90.8308M141.873 41.3486L142.562 39.7318L142.906 38.9295L143.246 38.1304L143.587 37.3342L143.924 36.5422L144.261 35.7543L144.596 34.9694M295 41.3486V47.9628M144.596 34.9694H94.4612M242.04 54.8253L241.026 61.9505M242.04 54.8253H295M295 47.9628V54.8253M295 54.8253V61.9505M187.052 61.9505L184.945 69.3547M187.052 61.9505H241.026M187.052 61.9505H133.078M241.026 61.9505L239.972 69.3547M241.026 61.9505H295M295 61.9505V69.3547M184.945 69.3547H239.972M184.945 69.3547H129.917M238.877 77.0533L239.972 69.3547M238.877 77.0533L237.737 85.0645M238.877 77.0533H295M239.972 69.3547H295M129.917 69.3547H74.8894M129.917 69.3547L133.078 61.9505M295 69.3547V77.0533M133.078 61.9505H79.1038M237.737 85.0645L237.298 88.1529L236.851 91.2894L236.549 93.4079M237.737 85.0645H295M295 77.0533V85.0645M295 85.0645V93.4079M178.099 93.4079L176.874 97.7104L176.565 98.8009L175.624 102.105M178.099 93.4079H236.549M178.099 93.4079H119.649M236.549 93.4079L236.245 95.5479L235.627 99.8964L235.312 102.105M236.549 93.4079H295M295 93.4079V102.105M175.624 102.105H235.312M175.624 102.105H115.936M234.021 111.178L234.185 110.022L235.312 102.105M234.021 111.178L232.673 120.652M234.021 111.178H295M235.312 102.105H295M115.936 102.105H56.2484M115.936 102.105L119.649 93.4079M295 102.105V111.178M119.649 93.4079H61.1978M232.673 120.652L231.264 130.555M232.673 120.652H295M295 111.178V120.652M295 120.652V130.555M167.527 130.555L164.579 140.915M167.527 130.555H231.264M167.527 130.555H103.791M231.264 130.555L229.789 140.915M231.264 130.555H295M295 130.555V140.915M164.579 140.915H229.789M164.579 140.915H99.3679M228.245 151.767L229.789 140.915M228.245 151.767L226.626 163.144M228.245 151.767H295M229.789 140.915H295M99.3679 140.915H34.1572M99.3679 140.915L103.791 130.555M295 140.915V151.767M103.791 130.555H40.054M226.626 163.144L224.926 175.088M226.626 163.144H295M295 151.767V163.144M295 163.144V175.088M154.853 175.088L151.281 187.64M154.853 175.088H224.926M154.853 175.088H84.7799M224.926 175.088L223.141 187.64M224.926 175.088H295M295 175.088V187.64M151.281 187.64H223.141M151.281 187.64H79.4213M221.261 200.849L223.141 187.64M221.261 200.849L219.28 214.767M221.261 200.849H295M223.141 187.64H295M79.4213 187.64H7.56105M79.4213 187.64L84.7799 175.088M295 187.64V200.849M84.7799 175.088H14.7062M219.28 214.767L217.19 229.455M219.28 214.767H295M295 200.849V214.767M295 214.767V229.455M139.381 229.455L134.963 244.975M139.381 229.455H217.19M139.381 229.455H61.5705M217.19 229.455L214.982 244.975M217.19 229.455H295M295 229.455V244.975M134.963 244.975H214.982M134.963 244.975H54.9449M212.644 261.403L214.982 244.975M212.644 261.403L210.166 278.819M212.644 261.403H295M214.982 244.975H295M54.9449 244.975H-25.0734M54.9449 244.975L61.5705 229.455M295 244.975V261.403M61.5705 229.455H-16.2396M210.166 278.819L207.534 297.316M210.166 278.819H295M295 261.403V278.819M295 278.819V297.316M120.067 297.316L114.466 316.998M120.067 297.316H207.534M120.067 297.316H32.6007M207.534 297.316L204.733 316.998M207.534 297.316H295M295 297.316V316.998M114.466 316.998H204.733M114.466 316.998H24.199M201.747 337.981L204.733 316.998M201.747 337.981L198.557 360.4M201.747 337.981H295M204.733 316.998H295M24.199 316.998H-66.068M24.199 316.998L32.6007 297.316M295 316.998V337.981M32.6007 297.316H-54.8657M198.557 360.4L195.14 384.407M198.557 360.4H295M295 337.981V360.4M295 360.4V384.407M95.2815 384.407L87.947 410.178M95.2815 384.407H195.14M95.2815 384.407H-4.57822M195.14 384.407L191.473 410.178M195.14 384.407H295M295 384.407V410.178M87.947 410.178H191.473M87.947 410.178H-15.5796M187.527 437.913L191.473 410.178M187.527 437.913L183.268 467.848M187.527 437.913H295M191.473 410.178H295M-15.5796 410.178H-119.106M-15.5796 410.178L-4.57822 384.407M295 410.178V437.913M-4.57822 384.407H-104.438M183.268 467.848L178.655 500.253M183.268 467.848H295M295 437.913V467.848M295 467.848V500.253M62.3118 500.253L52.2953 535.448M62.3118 500.253H178.655M62.3118 500.253H-54.0329M178.655 500.253L173.648 535.448M178.655 500.253H295M295 500.253V535.448M52.2953 535.448H173.648M52.2953 535.448H-69.057M168.189 573.808L173.648 535.448M168.189 573.808L162.216 615.783M168.189 573.808H295M173.648 535.448H295M-69.057 535.448H-190.409M-69.057 535.448L-54.0329 500.253M295 535.448V573.808M-54.0329 500.253H-170.376M162.216 615.783L155.652 661.908M162.216 615.783H295M295 573.808V615.783M295 615.783V661.908M16.3053 661.908L1.81311 712.83M16.3053 661.908H155.652M16.3053 661.908H-123.043M155.652 661.908L148.406 712.83M155.652 661.908H295M295 661.908V712.83M148.406 712.83H1.81311M148.406 712.83H295M1.81311 712.83H-144.781M-144.781 712.83H-291.375M-144.781 712.83L-123.043 661.908M-123.043 661.908H-262.39M-5.8078 34.9694L-8.50632 38.1304L-11.2538 41.3486M-5.8078 34.9694H44.3267M-5.8078 34.9694H-55.9422M48.7067 28.813L52.9367 22.8682M48.7067 28.813L44.3267 34.9694M48.7067 28.813H97.9655M52.9367 22.8682H101.349M52.9367 22.8682L56.0142 18.5422L57.023 17.1247M9.42778 17.1247H57.023M9.42778 17.1247L11.2247 15.0205L14.169 11.5713M9.42778 17.1247H-38.1674M44.3267 34.9694L39.7885 41.3486M44.3267 34.9694H94.4612M97.9655 28.813L101.349 22.8682M97.9655 28.813L94.4612 34.9694M101.349 22.8682L102.998 19.9719L104.216 17.8319L104.618 17.1247M57.023 17.1247H104.618M57.023 17.1247L59.9984 12.9418L60.974 11.5713M94.4612 34.9694L91.7501 39.7318L90.8308 41.3486M152.214 17.1247L152.514 16.4195L153.112 15.0205L153.999 12.9418L154.585 11.5713M152.214 17.1247H104.618M104.618 17.1247L105.019 16.4195L105.817 15.0205L107.779 11.5713M-11.2538 41.3486H39.7885M-11.2538 41.3486H-62.2971M35.0817 47.9628L35.6803 47.1227L36.2748 46.2857L38.6277 42.9786L39.7885 41.3486M35.0817 47.9628L31.4368 53.0849L30.1989 54.8253M35.0817 47.9628H87.0662M39.7885 41.3486H90.8308M-62.2971 41.3486H-113.339M-62.2971 41.3486L-57.5101 36.5422L-55.9422 34.9694M90.8308 41.3486L87.0662 47.9628M-55.9422 34.9694H-106.078M30.1989 54.8253L29.5763 55.7012L28.9495 56.5811L27.0537 59.2474L26.4144 60.1437L25.1297 61.9505M30.1989 54.8253H83.1589M87.0662 47.9628L86.5852 48.8059L83.1589 54.8253M83.1589 54.8253L82.6612 55.7012L82.1594 56.5811L81.6566 57.4661L79.1038 61.9505M-28.8443 61.9505L-35.1659 69.3547M-28.8443 61.9505H25.1297M-28.8443 61.9505H-82.8184M25.1297 61.9505L19.8617 69.3547M25.1297 61.9505H79.1038M79.1038 61.9505L74.8894 69.3547M-35.1659 69.3547H19.8617M-35.1659 69.3547H-90.1936M14.3845 77.0533L19.8617 69.3547M14.3845 77.0533L8.68444 85.0645M14.3845 77.0533H70.5074M19.8617 69.3547H74.8894M-90.1936 69.3547H-145.221M-90.1936 69.3547L-82.8184 61.9505M74.8894 69.3547L70.5074 77.0533M-82.8184 61.9505H-136.793M8.68444 85.0645L2.74803 93.4079M8.68444 85.0645H65.9474M70.5074 77.0533L69.384 79.0257L65.9474 85.0645M65.9474 85.0645L64.1889 88.1529L62.4034 91.2894L61.1978 93.4079M-55.7028 93.4079L-59.3768 97.7104L-63.1279 102.105M-55.7028 93.4079H2.74803M-55.7028 93.4079H-114.154M2.74803 93.4079L-3.44027 102.105M2.74803 93.4079H61.1978M61.1978 93.4079L56.2484 102.105M-63.1279 102.105H-3.44027M-63.1279 102.105H-122.816M-9.89514 111.178L-3.44027 102.105M-9.89514 111.178L-16.6363 120.652M-9.89514 111.178H51.0835M-3.44027 102.105H56.2484M-122.816 102.105H-182.504M-122.816 102.105L-114.154 93.4079M56.2484 102.105L51.0835 111.178M-114.154 93.4079H-172.603M-16.6363 120.652L-18.3687 123.086L-23.6815 130.555M-16.6363 120.652H45.6905M51.0835 111.178L45.6905 120.652M45.6905 120.652L45.0003 121.866L42.9045 125.548L40.054 130.555M-87.418 130.555L-96.2642 140.915M-87.418 130.555H-23.6815M-87.418 130.555H-151.154M-23.6815 130.555L-31.0535 140.915M-23.6815 130.555H40.054M40.054 130.555L34.1572 140.915M-96.2642 140.915H-31.0535M-96.2642 140.915H-161.475M-38.7744 151.767L-33.9062 144.926L-31.0535 140.915M-38.7744 151.767L-46.87 163.144M-38.7744 151.767H27.9803M-31.0535 140.915H34.1572M-161.475 140.915H-226.686M-161.475 140.915L-151.154 130.555M34.1572 140.915L27.9803 151.767M-151.154 130.555H-214.891M-46.87 163.144L-55.3675 175.088M-46.87 163.144H21.5046M27.9803 151.767L21.5046 163.144M21.5046 163.144L14.7062 175.088M-125.441 175.088L-136.158 187.64M-125.441 175.088H-55.3675M-125.441 175.088H-195.514M-55.3675 175.088L-64.2981 187.64M-55.3675 175.088H14.7062M14.7062 175.088L7.56105 187.64M-136.158 187.64H-64.2981M-136.158 187.64H-208.018M-73.6962 200.849L-64.2981 187.64M-73.6962 200.849L-83.5992 214.767M-73.6962 200.849H0.043277M-64.2981 187.64H7.56105M-208.018 187.64H-279.877M-208.018 187.64L-195.514 175.088M7.56105 187.64L0.043277 200.849M-195.514 175.088H-265.588M-83.5992 214.767L-94.0488 229.455M-83.5992 214.767H-7.87959M0.043277 200.849L-7.87959 214.767M-7.87959 214.767L-16.2396 229.455M-171.859 229.455L-185.11 244.975M-171.859 229.455H-94.0488M-171.859 229.455H-249.669M-94.0488 229.455L-105.092 244.975M-94.0488 229.455H-16.2396M-16.2396 229.455L-25.0734 244.975M-185.11 244.975H-105.092M-185.11 244.975H-265.129M-116.78 261.403L-105.092 244.975M-116.78 261.403L-129.172 278.819M-116.78 261.403H-34.4236M-105.092 244.975H-25.0734M-265.129 244.975H-345.147M-265.129 244.975L-249.669 229.455M-25.0734 244.975L-34.4236 261.403M-249.669 229.455H-327.478M-129.172 278.819L-142.332 297.316M-129.172 278.819H-44.337M-34.4236 261.403L-44.337 278.819M-44.337 278.819L-54.8657 297.316M-229.799 297.316L-246.602 316.998M-229.799 297.316H-142.332M-229.799 297.316H-317.265M-142.332 297.316L-156.335 316.998M-142.332 297.316H-54.8657M-54.8657 297.316L-66.068 316.998M-246.602 316.998H-156.335M-246.602 316.998H-336.869M-171.265 337.981L-156.335 316.998M-171.265 337.981L-187.216 360.4M-171.265 337.981H-78.0116M-156.335 316.998H-66.068M-336.869 316.998H-427.136M-336.869 316.998L-317.265 297.316M-66.068 316.998L-78.0116 337.981M-317.265 297.316H-404.732M-187.216 360.4L-204.297 384.407M-187.216 360.4H-90.7724M-78.0116 337.981L-90.7724 360.4M-90.7724 360.4L-104.438 384.407M-304.156 384.407L-326.159 410.178M-304.156 384.407H-204.297M-304.156 384.407H-404.016M-204.297 384.407L-222.633 410.178M-204.297 384.407H-104.438M-104.438 384.407L-119.106 410.178M-326.159 410.178H-222.633M-326.159 410.178H-429.686M-242.367 437.913L-222.633 410.178M-242.367 437.913L-263.665 467.848M-242.367 437.913H-134.893M-222.633 410.178H-119.106M-429.686 410.178H-533.212M-429.686 410.178L-404.016 384.407M-119.106 410.178L-134.893 437.913M-404.016 384.407H-503.876M-263.665 467.848L-286.721 500.253M-263.665 467.848H-151.932M-134.893 437.913L-151.932 467.848M-151.932 467.848L-170.376 500.253M-403.065 500.253L-433.114 535.448M-403.065 500.253H-286.721M-403.065 500.253H-519.409M-286.721 500.253L-311.762 535.448M-286.721 500.253H-170.376M-170.376 500.253L-190.409 535.448M-433.114 535.448H-311.762M-433.114 535.448H-554.466M-339.055 573.808L-311.762 535.448M-339.055 573.808L-368.921 615.783M-339.055 573.808H-212.245M-311.762 535.448H-190.409M-554.466 535.448H-675.819M-554.466 535.448L-519.409 500.253M-190.409 535.448L-212.245 573.808M-519.409 500.253H-635.753M-368.921 615.783L-401.737 661.908M-368.921 615.783H-236.136M-212.245 573.808L-236.136 615.783M-236.136 615.783L-262.39 661.908M-541.085 661.908L-584.562 712.83M-541.085 661.908H-401.737M-541.085 661.908H-680.433M-401.737 661.908L-437.968 712.83M-401.737 661.908H-262.39M-262.39 661.908L-291.375 712.83M-437.968 712.83H-584.562M-437.968 712.83H-291.375M-584.562 712.83L-704.462 712.829M-680.433 661.908L-704.462 686.031M-680.433 661.908H-704.462M-206.347 34.9694L-215.424 41.3486M-206.347 34.9694H-156.212M-206.347 34.9694H-256.481M-148.328 28.813L-140.714 22.8682M-148.328 28.813L-156.212 34.9694M-148.328 28.813H-99.069M-140.714 22.8682H-92.3018M-140.714 22.8682L-133.358 17.1247M-180.954 17.1247H-133.358M-180.954 17.1247L-177.959 15.0205L-173.051 11.5713M-180.954 17.1247H-228.549M-156.212 34.9694L-164.382 41.3486M-156.212 34.9694H-106.078M-99.069 28.813L-92.3018 22.8682M-99.069 28.813L-106.078 34.9694M-92.3018 22.8682L-87.3763 18.5422L-85.7626 17.1247M-133.358 17.1247L-132.456 16.4195L-126.246 11.5713M-133.358 17.1247H-85.7626M-106.078 34.9694L-113.339 41.3486M-38.1674 17.1247L-32.636 11.5713M-38.1674 17.1247H-85.7626M-85.7626 17.1247L-83.367 15.0205L-79.441 11.5713M-215.424 41.3486H-164.382M-215.424 41.3486H-266.466M-172.852 47.9628L-164.382 41.3486M-172.852 47.9628L-181.641 54.8253M-172.852 47.9628H-120.869M-164.382 41.3486H-113.339M-266.466 41.3486H-317.509M-266.466 41.3486L-256.481 34.9694M-113.339 41.3486L-120.869 47.9628M-256.481 34.9694H-306.616M-181.641 54.8253L-183.891 56.5811L-190.768 61.9505M-181.641 54.8253H-128.681M-120.869 47.9628L-128.681 54.8253M-128.681 54.8253L-136.793 61.9505M-244.742 61.9505L-246.036 62.8611L-255.277 69.3547M-244.742 61.9505H-190.768M-244.742 61.9505H-298.716M-190.768 61.9505L-200.249 69.3547M-190.768 61.9505H-136.793M-136.793 61.9505L-137.828 62.8611L-145.221 69.3547M-255.277 69.3547H-200.249M-255.277 69.3547H-310.304M-210.108 77.0533L-200.249 69.3547M-210.108 77.0533L-220.368 85.0645M-210.108 77.0533H-153.985M-200.249 69.3547H-145.221M-310.304 69.3547H-365.332M-310.304 69.3547L-298.716 61.9505M-145.221 69.3547L-153.985 77.0533M-298.716 61.9505H-352.69M-220.368 85.0645L-231.054 93.4079M-220.368 85.0645H-163.105M-153.985 77.0533L-163.105 85.0645M-163.105 85.0645L-172.603 93.4079M-289.504 93.4079L-301.88 102.105M-289.504 93.4079H-231.054M-289.504 93.4079H-347.955M-231.054 93.4079L-242.192 102.105M-231.054 93.4079H-172.603M-172.603 93.4079L-182.504 102.105M-301.88 102.105H-242.192M-301.88 102.105H-361.568M-253.812 111.178L-242.192 102.105M-253.812 111.178L-265.946 120.652M-253.812 111.178H-192.833M-242.192 102.105H-182.504M-361.568 102.105H-421.256M-361.568 102.105L-347.955 93.4079M-182.504 102.105L-192.833 111.178M-347.955 93.4079H-406.406M-265.946 120.652L-278.628 130.555M-265.946 120.652H-203.618M-192.833 111.178L-203.618 120.652M-203.618 120.652L-214.891 130.555M-342.364 130.555L-357.107 140.915M-342.364 130.555H-278.628M-342.364 130.555H-406.101M-278.628 130.555L-291.896 140.915M-278.628 130.555H-214.891M-214.891 130.555L-226.686 140.915M-357.107 140.915H-291.896M-357.107 140.915H-422.318M-305.794 151.767L-291.896 140.915M-305.794 151.767L-320.365 163.144M-305.794 151.767H-239.04M-291.896 140.915H-226.686M-422.318 140.915H-487.529M-422.318 140.915L-406.101 130.555M-226.686 140.915L-239.04 151.767M-406.101 130.555H-469.837M-320.365 163.144L-335.661 175.088M-320.365 163.144H-251.992M-239.04 151.767L-251.992 163.144M-251.992 163.144L-265.588 175.088M-405.735 175.088L-423.596 187.64M-405.735 175.088H-335.661M-405.735 175.088H-475.808M-335.661 175.088L-351.737 187.64M-335.661 175.088H-265.588M-265.588 175.088L-279.877 187.64M-423.596 187.64H-351.737M-423.596 187.64H-495.457M-368.654 200.849L-351.737 187.64M-368.654 200.849L-386.479 214.767M-368.654 200.849H-294.915M-351.737 187.64H-279.877M-495.457 187.64H-567.316M-495.457 187.64L-475.808 175.088M-279.877 187.64L-294.915 200.849M-475.808 175.088H-545.881M-386.479 214.767L-405.289 229.455M-386.479 214.767H-310.759M-294.915 200.849L-310.759 214.767M-310.759 214.767L-327.478 229.455M-483.099 229.455L-505.184 244.975M-483.099 229.455H-405.289M-483.099 229.455H-560.908M-405.289 229.455L-425.165 244.975M-405.289 229.455H-327.478M-327.478 229.455L-345.147 244.975M-505.184 244.975H-425.165M-505.184 244.975H-585.202M-446.204 261.403L-425.165 244.975M-446.204 261.403L-468.509 278.819M-446.204 261.403H-363.848M-425.165 244.975H-345.147M-585.202 244.975H-665.22M-585.202 244.975L-560.908 229.455M-345.147 244.975L-363.848 261.403M-560.908 229.455H-638.718M-468.509 278.819L-492.198 297.316M-468.509 278.819H-383.674M-363.848 261.403L-383.674 278.819M-383.674 278.819L-404.732 297.316M-579.664 297.316L-607.67 316.998M-579.664 297.316H-492.198M-579.664 297.316H-667.131M-492.198 297.316L-517.403 316.998M-492.198 297.316H-404.732M-404.732 297.316L-427.136 316.998M-607.67 316.998H-517.403M-607.67 316.998H-697.937M-544.277 337.981L-517.403 316.998M-544.277 337.981L-572.989 360.4M-544.277 337.981H-451.024M-517.403 316.998H-427.136M-697.937 316.998L-667.131 297.316M-697.937 316.998H-704.462M-697.937 316.998L-704.462 321.166M-427.136 316.998L-451.024 337.981M-667.131 297.316H-704.462M-572.989 360.4L-603.735 384.407M-572.989 360.4H-476.546M-451.024 337.981L-476.546 360.4M-476.546 360.4L-503.876 384.407M-703.595 384.407H-603.735M-703.595 384.407H-704.462M-703.595 384.407L-704.462 385.016M-603.735 384.407L-636.74 410.178M-603.735 384.407H-503.876M-503.876 384.407L-533.212 410.178M-672.26 437.913L-636.74 410.178M-672.26 437.913H-564.787M-672.26 437.913H-704.462M-672.26 437.913L-704.462 463.057M-636.74 410.178H-533.212M-636.74 410.178H-704.462M-533.212 410.178L-564.787 437.913M-564.787 437.913L-598.863 467.848M-598.863 467.848L-635.753 500.253M-598.863 467.848H-704.462M-635.753 500.253L-675.819 535.448M-635.753 500.253H-704.462M-675.819 535.448H-704.462M-675.819 535.448L-704.462 560.609M-406.886 34.9694L-419.593 41.3486M-406.886 34.9694H-356.75M-406.886 34.9694H-457.02M-345.362 28.813L-334.365 22.8682M-345.362 28.813L-356.75 34.9694M-345.362 28.813H-296.104M-334.365 22.8682H-285.953M-334.365 22.8682L-323.74 17.1247M-371.335 17.1247H-323.74M-371.335 17.1247L-360.272 11.5713M-371.335 17.1247H-418.93M-356.75 34.9694L-368.551 41.3486M-356.75 34.9694H-306.616M-296.104 28.813L-285.953 22.8682M-296.104 28.813L-306.616 34.9694M-285.953 22.8682L-276.144 17.1247M-323.74 17.1247L-322.437 16.4195L-313.467 11.5713M-323.74 17.1247H-276.144M-306.616 34.9694L-317.509 41.3486M-228.549 17.1247L-219.857 11.5713M-228.549 17.1247H-276.144M-276.144 17.1247L-274.942 16.4195L-266.662 11.5713M-419.593 41.3486H-368.551M-419.593 41.3486H-470.636M-380.787 47.9628L-368.551 41.3486M-380.787 47.9628L-393.482 54.8253M-380.787 47.9628H-328.803M-368.551 41.3486H-317.509M-470.636 41.3486H-521.678M-470.636 41.3486L-457.02 34.9694M-317.509 41.3486L-328.803 47.9628M-457.02 34.9694H-507.154M-393.482 54.8253L-406.664 61.9505M-393.482 54.8253H-340.522M-328.803 47.9628L-330.245 48.8059L-340.522 54.8253M-340.522 54.8253L-352.69 61.9505M-460.638 61.9505L-475.387 69.3547M-460.638 61.9505H-406.664M-460.638 61.9505H-514.612M-406.664 61.9505L-420.36 69.3547M-406.664 61.9505H-352.69M-352.69 61.9505L-365.332 69.3547M-475.387 69.3547H-420.36M-475.387 69.3547H-530.415M-434.601 77.0533L-420.36 69.3547M-434.601 77.0533L-449.421 85.0645M-434.601 77.0533H-378.478M-420.36 69.3547H-365.332M-530.415 69.3547H-585.443M-530.415 69.3547L-514.612 61.9505M-365.332 69.3547L-378.478 77.0533M-514.612 61.9505H-568.586M-449.421 85.0645L-464.855 93.4079M-449.421 85.0645H-392.158M-378.478 77.0533L-392.158 85.0645M-392.158 85.0645L-406.406 93.4079M-523.306 93.4079L-540.632 102.105M-523.306 93.4079H-464.855M-523.306 93.4079H-581.757M-464.855 93.4079L-480.944 102.105M-464.855 93.4079H-406.406M-406.406 93.4079L-421.256 102.105M-540.632 102.105H-480.944M-540.632 102.105H-600.32M-497.728 111.178L-480.944 102.105M-497.728 111.178L-515.254 120.652M-497.728 111.178H-436.749M-480.944 102.105H-421.256M-600.32 102.105H-660.008M-600.32 102.105L-581.757 93.4079M-421.256 102.105L-436.749 111.178M-581.757 93.4079H-640.207M-515.254 120.652L-533.574 130.555M-515.254 120.652H-452.927M-436.749 111.178L-452.927 120.652M-452.927 120.652L-469.837 130.555M-597.31 130.555L-617.95 140.915M-597.31 130.555H-533.574M-597.31 130.555H-661.046M-533.574 130.555L-552.739 140.915M-533.574 130.555H-469.837M-469.837 130.555L-487.529 140.915M-617.95 140.915H-552.739M-572.814 151.767L-552.739 140.915M-572.814 151.767L-593.861 163.144M-572.814 151.767H-506.058M-552.739 140.915H-487.529M-487.529 140.915L-506.058 151.767M-661.046 130.555H-704.462M-593.861 163.144L-615.955 175.088M-593.861 163.144H-525.487M-506.058 151.767L-525.487 163.144M-525.487 163.144L-545.881 175.088M-686.029 175.088H-615.955M-686.029 175.088H-704.462M-686.029 175.088L-704.462 184.34M-615.955 175.088L-639.176 187.64M-615.955 175.088H-545.881M-545.881 175.088L-567.316 187.64M-663.611 200.849L-639.176 187.64M-663.611 200.849L-689.358 214.767M-663.611 200.849H-589.871M-663.611 200.849H-704.462M-639.176 187.64H-567.316M-639.176 187.64H-704.462M-567.316 187.64L-589.871 200.849M-704.665 184.442L-704.462 184.34M-689.358 214.767H-613.639M-689.358 214.767H-704.462M-689.358 214.767L-704.462 222.932M-589.871 200.849L-613.639 214.767M-613.639 214.767L-638.718 229.455M-638.718 229.455L-665.22 244.975M-638.718 229.455H-704.462M-693.272 261.403L-665.22 244.975M-693.272 261.403H-704.462M-693.272 261.403L-704.462 267.956M-665.22 244.975H-704.462M-607.423 34.9694L-623.762 41.3486M-607.423 34.9694H-557.289M-607.423 34.9694H-657.559M-542.397 28.813L-528.016 22.8682M-542.397 28.813L-557.289 34.9694M-542.397 28.813H-493.138M-528.016 22.8682H-479.604M-528.016 22.8682L-514.122 17.1247M-561.717 17.1247H-514.122M-561.717 17.1247L-547.493 11.5713M-561.717 17.1247H-609.312M-557.289 34.9694L-572.72 41.3486M-557.289 34.9694H-507.154M-493.138 28.813L-479.604 22.8682M-493.138 28.813L-507.154 34.9694M-479.604 22.8682L-466.526 17.1247M-514.122 17.1247H-466.526M-514.122 17.1247L-500.687 11.5713M-507.154 34.9694L-521.678 41.3486M-418.93 17.1247L-407.077 11.5713M-418.93 17.1247H-466.526M-466.526 17.1247L-453.882 11.5713M-623.762 41.3486H-572.72M-623.762 41.3486H-674.805M-588.721 47.9628L-572.72 41.3486M-588.721 47.9628L-605.322 54.8253M-588.721 47.9628H-536.737M-572.72 41.3486H-521.678M-674.805 41.3486L-657.559 34.9694M-674.805 41.3486H-704.462M-521.678 41.3486L-536.737 47.9628M-657.559 34.9694H-704.462M-605.322 54.8253L-622.56 61.9505M-605.322 54.8253H-552.362M-536.737 47.9628L-552.362 54.8253M-552.362 54.8253L-568.586 61.9505M-676.534 61.9505L-695.498 69.3547M-676.534 61.9505H-622.56M-676.534 61.9505H-704.462M-622.56 61.9505L-640.47 69.3547M-622.56 61.9505H-568.586M-568.586 61.9505L-585.443 69.3547M-659.093 77.0533L-640.47 69.3547M-659.093 77.0533L-678.474 85.0645M-659.093 77.0533H-602.971M-659.093 77.0533H-704.462M-640.47 69.3547H-695.498M-640.47 69.3547H-585.443M-695.498 69.3547L-704.462 72.854M-695.498 69.3547H-704.462M-585.443 69.3547L-602.971 77.0533M-678.474 85.0645L-698.658 93.4079M-678.474 85.0645H-621.211M-678.474 85.0645H-704.462M-602.971 77.0533L-621.211 85.0645M-621.211 85.0645L-640.207 93.4079M-698.658 93.4079H-640.207M-698.658 93.4079L-704.462 95.8068M-698.658 93.4079H-704.462M-640.207 93.4079L-660.008 102.105M-680.665 111.178L-660.008 102.105M-680.665 111.178L-702.236 120.652M-680.665 111.178H-704.462M-660.008 102.105H-704.462M-704.774 102.105H-704.462M-702.236 120.652H-704.462M-702.236 120.652L-704.462 121.629M-705 121.866L-704.462 121.629M-690.173 28.813L-673.255 22.8682M-690.173 28.813H-704.462M-690.173 28.813L-704.462 33.8335M-673.255 22.8682L-656.907 17.1247M-673.255 22.8682H-704.462M-609.312 17.1247L-594.298 11.5713M-609.312 17.1247H-656.907M-656.907 17.1247L-641.103 11.5713M-656.907 17.1247H-704.462M950.272 11.5713H997.077M950.272 11.5713H903.467M985.611 6.19979L988.442 7.52631L997.077 11.5713M985.611 6.19979H1031.65M997.077 11.5713H1043.88M1031.65 6.19979L1034.67 7.52631L1036.19 8.19265L1043.88 11.5713M1043.88 11.5713H1090.69M1090.69 11.5713H1137.49M903.467 11.5713H856.662M1137.49 11.5713H1184.3M1184.3 11.5713L1169.77 6.19979M1184.3 11.5713H1231.1M1169.77 6.19979H1215.81M763.051 11.5713H809.857M763.051 11.5713H716.246M801.448 6.19979L803.524 7.52631L804.569 8.19265L809.857 11.5713M801.448 6.19979H847.489M809.857 11.5713H856.662M847.489 6.19979L856.662 11.5713M716.246 11.5713H669.441M575.831 11.5713H622.636M575.831 11.5713H529.026M617.285 6.19979L617.945 6.86101L618.606 7.52631L619.271 8.19265L622.636 11.5713M617.285 6.19979H663.326M622.636 11.5713H669.441M663.326 6.19979L669.441 11.5713M529.026 11.5713H482.22M388.61 11.5713H435.415M388.61 11.5713H341.805M433.122 6.19979L435.415 11.5713M433.122 6.19979H479.163M435.415 11.5713H482.22M479.163 6.19979L479.54 6.86101L479.918 7.52631L480.298 8.19265L482.22 11.5713M341.805 11.5713H295M201.39 11.5713H248.195M201.39 11.5713H154.585M248.959 6.19979L248.195 11.5713M248.959 6.19979H295M248.195 11.5713H295M295 6.19979V11.5713M154.585 11.5713H107.779M14.169 11.5713H60.974M14.169 11.5713H-32.636M64.7959 6.19979L63.8526 7.52631L61.9412 10.2111L60.974 11.5713M64.7959 6.19979H110.837M60.974 11.5713H107.779M110.837 6.19979L110.46 6.86101L110.082 7.52631L109.702 8.19265L107.779 11.5713M-32.636 11.5713H-79.441M-173.051 11.5713H-126.246M-173.051 11.5713H-219.857M-119.366 6.19979L-121.065 7.52631L-121.92 8.19265L-126.246 11.5713M-119.366 6.19979H-73.3256M-126.246 11.5713H-79.441M-73.3256 6.19979L-74.0794 6.86101L-79.441 11.5713M-219.857 11.5713H-266.662M-360.272 11.5713H-313.467M-360.272 11.5713H-407.077M-303.53 6.19979L-305.984 7.52631L-307.218 8.19265L-313.467 11.5713M-303.53 6.19979H-257.489M-313.467 11.5713H-266.662M-257.489 6.19979L-258.62 6.86101L-266.662 11.5713M-407.077 11.5713H-453.882M-547.493 11.5713H-500.687M-547.493 11.5713H-594.298M-487.693 6.19979L-500.687 11.5713M-487.693 6.19979H-441.652M-500.687 11.5713H-453.882M-441.652 6.19979L-444.671 7.52631L-446.191 8.19265L-453.882 11.5713M-594.298 11.5713H-641.103M-671.855 6.19979L-687.908 11.5713M-671.855 6.19979H-625.815M-671.855 6.19979H-704.462M-687.908 11.5713H-641.103M-687.908 11.5713L-704.462 17.1111M-687.908 11.5713H-704.462M-625.815 6.19979L-629.59 7.52631L-641.103 11.5713M1215.81 6.19979L1219.59 7.52631L1231.1 11.5713M1231.1 11.5713H1277.91M1277.91 11.5713L1294.46 17.1111M1277.91 11.5713H1294.46M1294.46 267.956V261.403M1294.46 267.956V278.819M1294.46 261.403V244.975M1294.46 278.819V282.065V297.316M1294.46 297.316V316.998M1294.46 140.915V130.555M1294.46 140.915V150.895M1294.46 6.19979V11.5713M1294.46 11.5713V17.1111M1294.46 17.1111L1294.5 17.1247H1294.46M1294.46 17.1111V17.1247M1294.46 17.1247V22.8682M1294.46 22.8682V28.813M1294.46 28.813V33.8335M1294.46 33.8335V34.9694M1294.46 34.9694V41.3486M1294.46 41.3486V47.9628M1294.46 47.9628V52.3165M1294.46 52.3165V54.8253M1294.46 54.8253V61.9505M1294.46 61.9505V69.3547M1294.46 69.3547V72.854M1294.46 72.854V77.0533M1294.46 77.0533V85.0645M1294.46 85.0645V93.4079M1294.46 93.4079V95.8068M1294.46 95.8068V102.105M1294.46 102.105V111.178M1294.46 111.178V120.652M1294.46 120.652V121.629M1294.46 121.629V130.555M1294.46 151.767V163.144M1294.46 151.767V150.895M1294.46 163.144V175.088M1294.46 175.088V184.34M1294.46 184.34V187.64M1294.46 187.64V200.849M1294.46 200.849V214.767M1294.46 214.767V222.932M1294.46 222.932V229.455M1294.46 229.455V244.975M1294.46 316.998V321.165M1294.46 321.165V337.981M1294.46 337.981V360.4M1294.46 360.4V384.407M1294.46 384.407V385.016M1294.46 385.016V410.178M1294.46 410.178V437.913M1294.46 437.913V463.057M1294.46 463.057V467.848M1294.46 467.848V500.253M1294.46 500.253V535.448M1294.46 535.448V560.609M1294.46 560.609V573.808M1294.46 573.808V615.783M1294.46 615.783V661.908M1294.46 661.908V686.031M1294.46 686.031V712.829M1294.46 712.829V713.011H-704.462V712.829M-704.462 151.767V163.144M-704.462 151.767V150.895M-704.462 150.895V140.915M-704.462 140.915V130.555M-704.462 130.555V121.629M-704.462 121.629V120.652M-704.462 120.652V111.178M-704.462 111.178V102.105M-704.462 102.105V95.8068M-704.462 95.8068V93.4079M-704.462 93.4079V85.0645M-704.462 85.0645V77.0533M-704.462 77.0533V72.854M-704.462 72.854V69.3547M-704.462 69.3547V61.9505M-704.462 61.9505V54.8253M-704.462 54.8253V52.3165M-704.462 52.3165V47.9628M-704.462 47.9628V41.3486M-704.462 41.3486V34.9694M-704.462 34.9694V33.8335M-704.462 33.8335V28.813M-704.462 28.813V22.8682M-704.462 22.8682V17.1247M-704.462 17.1247H-704.502L-704.462 17.1111M-704.462 17.1247V17.1111M-704.462 17.1111V11.5713M-704.462 11.5713V6.19979M-704.462 712.829V686.031M-704.462 686.031V661.908M-704.462 661.908V615.784M-704.462 615.784V573.808M-704.462 573.808V560.609M-704.462 560.609V535.448M-704.462 535.448V500.253M-704.462 500.253V467.848M-704.462 467.848V463.057M-704.462 463.057V437.913M-704.462 437.913V410.178M-704.462 410.178V385.016M-704.462 385.016V384.407M-704.462 384.407V360.4M-704.462 360.4V337.981M-704.462 337.981V321.166M-704.462 321.166V316.998M-704.462 316.998V297.316M-704.462 297.316V278.819M-704.462 278.819V267.956M-704.462 267.956V261.403M-704.462 261.403V244.975M-704.462 244.975V229.455M-704.462 229.455V222.932M-704.462 222.932V214.767M-704.462 214.767V200.849M-704.462 200.849V187.64M-704.462 187.64V184.34M-704.462 184.34V175.088M-704.462 175.088V163.144" stroke="url(#paint0_radial_191_943)" stroke-width="0.6" stroke-miterlimit="10" stroke-linecap="round" stroke-linejoin="round"/>
<defs>
<radialGradient id="paint0_radial_191_943" cx="0" cy="0" r="1" gradientUnits="userSpaceOnUse" gradientTransform="translate(295 357.005) rotate(90) scale(258.096 722.079)">
<stop stop-color="white"/>
<stop offset="1" stop-color="white" stop-opacity="0"/>
</radialGradient>
</defs>
</svg>
