<svg width="24" height="24" viewBox="0 0 24 24" fill="none" xmlns="http://www.w3.org/2000/svg">
<path d="M20.2394 9.55555C19.9457 9.26343 19.4708 9.26473 19.1787 9.5584L10.1628 18.6231C8.99308 19.7928 7.0933 19.7928 5.92141 18.6215C4.7504 17.4499 4.7504 15.5501 5.92155 14.379L15.2044 5.0474C15.9346 4.31716 17.1219 4.31716 17.8543 5.04898C18.5865 5.78116 18.5865 6.96831 17.8541 7.7007L10.1642 15.3906C10.1637 15.3911 10.1633 15.3916 10.1628 15.3921C9.86982 15.6835 9.39636 15.6831 9.104 15.3907C8.81114 15.0979 8.81114 14.6232 9.104 14.3304L12.8159 10.6177C13.1087 10.3248 13.1087 9.84988 12.8158 9.55702C12.5228 9.26417 12.0479 9.2642 11.7551 9.55713L8.04324 13.2697C7.16463 14.1483 7.16463 15.5727 8.04331 16.4514C8.92195 17.33 10.3464 17.33 11.2251 16.4514C11.2261 16.4504 11.2269 16.4493 11.2279 16.4483L18.9148 8.76132C20.233 7.44314 20.233 5.30623 18.9148 3.98805C17.5964 2.67065 15.4597 2.67065 14.1423 3.98805L4.85946 13.3197C3.10393 15.0752 3.10393 17.9245 4.86072 19.6822C6.61868 21.4392 9.46801 21.4392 11.2249 19.6823L20.2423 10.6162C20.5344 10.3225 20.5331 9.84767 20.2394 9.55555Z" fill="#4A4D4D"/>
</svg>
