<svg width="160" height="80" viewBox="0 0 160 80" fill="none" xmlns="http://www.w3.org/2000/svg">
<g clip-path="url(#clip0_286_638)">
<path d="M49.4191 24.5511H59.5735V27.869H54.743V51.1815H49.4191V24.5511ZM65.5938 41.1842L66.5062 27.869H66.8118L67.7242 41.1842H65.5938ZM59.6979 51.1815H64.9106L65.4037 44.1091H67.9141L68.4095 51.1815H73.6198L70.8434 24.5511H62.4744L59.6979 51.1815ZM81.2446 41.861V46.8813C81.2446 47.558 81.7684 47.7544 82.074 47.7544C82.576 47.7544 82.9253 47.3397 82.9253 46.8813V40.6825C82.9253 39.8528 82.7724 38.9361 80.7861 38.9361H78.625V36.0112H80.8734C82.3796 36.0112 82.9253 35.6619 82.9253 34.0247V28.7422C82.9253 28.2837 82.576 27.869 82.0738 27.869C81.7684 27.869 81.2446 28.0435 81.2446 28.7422V33.0859H75.9183V29.3098C75.9183 27.4543 76.1365 24.5511 79.8689 24.5511H84.2783C88.011 24.5511 88.2512 27.4543 88.2512 29.3098V33.566C88.2512 36.4692 86.2211 37.2551 84.6277 37.1895V37.4516C88.2074 37.3643 88.2512 40.1144 88.2512 41.0532V46.423C88.2512 48.3002 88.011 51.1815 84.2783 51.1815H79.8689C76.1365 51.1815 75.9183 48.2999 75.9183 46.4228V41.861H81.2446ZM91.7439 24.5511H104.077V51.1815H98.7507V27.869H97.0699V51.1815H91.7439V24.5511ZM112.895 39.1979V27.8692H113.594C114.161 27.8692 114.576 28.3491 114.576 29.2006V37.8663C114.576 38.7178 114.161 39.1977 113.594 39.1977L112.895 39.1979ZM107.569 51.1815H112.895V42.1228H115.951C119.662 42.1228 119.902 39.2414 119.902 37.3641V29.3098C119.902 27.4543 119.662 24.5511 115.951 24.5511H107.569V51.1815ZM130.401 46.8813C130.401 47.3397 130.052 47.7544 129.55 47.7544C129.244 47.7544 128.721 47.558 128.721 46.8813V28.7422C128.721 28.0435 129.245 27.869 129.55 27.869C130.052 27.869 130.401 28.2837 130.401 28.7422V46.8813ZM123.395 46.423C123.395 48.3002 123.635 51.1815 127.346 51.1815H131.777C135.487 51.1815 135.727 48.2999 135.727 46.4228V29.3098C135.727 27.4543 135.488 24.5511 131.777 24.5511H127.346C123.635 24.5511 123.395 27.4543 123.395 29.3098V46.423ZM153.059 24.5511H160V51.1815H154.674V34.483H154.478L151.727 51.1815H147.471L144.742 34.483H144.546V51.1815H139.22V24.5511H146.139L149.61 43.2796L153.059 24.5511ZM42.5169 14.7285C40.8866 7.5907 36.8001 1.78451 36.237 0.845703C35.3464 2.17711 32.0875 7.30701 30.4308 12.9822C28.6212 19.3341 28.3549 24.9658 28.9794 30.4883C29.5993 36.0327 31.9412 41.7299 31.9412 41.7299C33.1856 44.6985 35.0495 47.9071 36.2633 49.4789C38.0421 47.1652 42.1307 40.2673 43.4054 31.2742C44.1149 26.2537 44.1454 21.8664 42.5169 14.7285ZM36.237 47.689C35.436 46.1828 34.1917 43.3232 34.0738 38.8702C34.0432 34.5921 35.7611 30.903 36.2633 30.1392C36.7107 30.9032 38.1906 34.1118 38.3675 38.4993C38.4874 42.7777 37.0643 46.1607 36.237 47.689ZM42.0434 26.8429C41.9823 29.5716 41.6569 32.4529 41.2422 34.1774C41.3907 31.2088 41.035 27.0396 40.3538 23.7654C39.6728 20.5129 37.7453 15.056 36.2066 12.5456C34.7856 14.9468 33.0348 19.6616 32.1181 23.7435C31.1969 27.8252 31.1708 32.7804 31.1708 34.2647C30.9262 33.0203 30.3151 28.5457 30.4875 24.0709C30.6317 20.3821 31.4959 16.5622 31.9697 14.8158C33.777 8.98773 35.8223 5.2551 36.2064 4.66561C36.5908 5.2551 39.1663 9.86091 40.5022 14.6848C41.8317 19.5089 42.1001 24.1361 42.0434 26.8429Z" fill="#0079C2"/>
<path d="M39.0024 51.1375H26.6062V59.454C26.6173 59.454 26.626 59.4322 26.6368 59.4322C29.5574 56.5073 34.2943 56.5073 37.217 59.4322C40.1376 62.3354 40.1376 67.072 37.217 69.9971C37.2038 70.0187 37.1906 70.0187 37.1777 70.0406C37.1624 70.0406 37.1471 70.0625 37.1339 70.0843C34.2199 72.9657 30.4132 74.4062 26.6062 74.4062C22.7821 74.4062 18.9577 72.9657 16.0415 70.0406C10.8987 64.9109 10.2897 56.9437 14.21 51.1375C14.7482 50.3387 15.3615 49.5931 16.0415 48.911C18.9577 45.9862 22.7821 44.5454 26.6062 44.5454V24.5508C11.9116 24.5508 0 36.4471 0 51.1375C0 65.8278 11.9116 77.746 26.6062 77.746C34.2679 77.746 41.17 74.4935 46.0245 69.3203V51.1375H39.0024ZM160 58.9615H49.4189V77.746H160V58.9615ZM150.438 72.0751H151.841V69.2396H150.438V72.0751ZM150.438 67.1131H152.561L153.982 67.8221L154.333 68.5309L154.684 69.9486V70.6574C154.647 75.7358 151.38 73.8767 147.946 74.2018V62.5057H150.438V67.1131ZM131.997 62.5057V64.6322H130.225V74.2018H127.4V64.6322H125.628V62.5057H131.997ZM106.135 71.0119H106.485L107.187 70.6574V65.6954H106.135V71.0119ZM103.292 65.6956H102.221V70.6574L102.941 71.0119H103.292V65.6956ZM106.135 62.5057V63.5689H107.907L108.959 64.2777L109.679 64.9867L110.03 66.4044V70.3031L109.679 71.7208L108.959 72.4296L107.907 73.1383H106.135V74.2016H103.292V73.1383H101.52L100.449 72.4296L99.7476 71.7208L99.3969 70.3031V66.4044L99.7474 64.9867L100.449 64.2777L101.52 63.5689H103.292V62.5057H106.135ZM83.0895 62.5057V64.6322H80.963V67.1131H83.0895V69.2396H80.963V72.0751H83.444V74.2016H78.1276V62.5057H83.0895ZM57.5708 67.1131H58.9885V62.5057H61.4695V74.2018H58.9885V69.2396H57.5708V74.2018H54.7353V62.5057H57.5708V67.1131Z" fill="#0079C2"/>
</g>
<defs>
<clipPath id="clip0_286_638">
<rect width="160" height="80" fill="white"/>
</clipPath>
</defs>
</svg>
