<svg width="60" height="60" viewBox="0 0 60 60" fill="none" xmlns="http://www.w3.org/2000/svg">
<rect x="20" y="15" width="20" height="20" rx="10" fill="white"/>
<path d="M29.9995 5C19.393 5 10.7637 13.6293 10.7637 24.236C10.7637 34.2617 26.7299 51.5219 28.5502 53.4594L29.9995 55L31.4489 53.4594C33.2696 51.5236 49.2355 34.2617 49.2355 24.236C49.2363 13.6293 40.607 5 29.9995 5ZM29.9995 32.1964C25.6108 32.1964 22.0398 28.6255 22.0398 24.2367C22.0398 19.8478 25.6108 16.277 29.9995 16.277C34.3893 16.277 37.9592 19.8479 37.9592 24.2367C37.9592 28.6256 34.3893 32.1964 29.9995 32.1964Z" fill="#0292FF"/>
</svg>
