<svg width="158" height="44" viewBox="0 0 158 44" fill="none" xmlns="http://www.w3.org/2000/svg">
<g clip-path="url(#clip0_318_296)">
<path d="M6.56477 42.5504C4.46822 41.9863 2.66143 40.296 1.68366 38.4302C0.594343 36.3508 0.75393 37.1908 0.289062 21.6733L0.75393 7.63757L1.09483 6.74192C1.55196 5.52555 2.1315 4.44535 3.0008 3.7341C4.22803 3.28459 5.10664 1.77816 6.40981 1.48682C7.59057 0.867234 8.74962 0.980422 12.7706 1.02227C17.5061 1.0703 17.954 1.48682 18.5737 2.13201C21.2468 3.10669 22.3362 4.33367 23.3 6.98803L23.61 8.17526L24.0423 21.551C24.0917 34.9623 24.1491 35.5032 23.61 37.1131C22.79 39.5584 20.3836 41.4113 17.7216 42.3178C16.7499 42.6495 16.8693 42.7053 12.298 43.1424C8.40407 43.1379 7.21093 42.7239 6.56477 42.5504ZM16.7143 42.6243C19.533 41.8899 22.88 39.154 23.61 36.3508C23.8144 35.5667 23.61 33.3628 23.61 21.9411C23.9535 9.25027 23.7523 8.54239 23.455 7.58166C23.1435 5.47211 21.5209 3.41011 19.581 2.49434C17.9587 1.72887 16.2711 0.707696 11.5777 0.789813C7.09935 0.867307 6.0782 1.43768 4.31791 2.49447C2.59016 3.53267 1.46517 6.6939 1.14442 8.75636C1.0468 9.37617 1.14442 14.4633 1.14442 22.2374C1.14598 32.483 0.967776 35.1324 1.14442 35.9645C1.75184 38.8282 4.10097 41.6375 6.95215 42.3951C8.19334 42.7254 15.4623 42.9498 16.7143 42.6243ZM7.4511 21.6733C7.82144 19.8296 8.09881 18.2955 8.06782 18.2643C8.03684 18.2349 7.823 18.1931 7.59057 18.1746C7.19234 18.142 7.1722 18.1017 7.21558 17.4385C7.26052 16.7629 7.28066 16.7365 7.76256 16.7273C8.03685 16.7226 8.30337 16.6761 8.35449 16.6265C8.42113 16.5585 10.121 8.4604 10.1272 8.17526C10.1286 8.15358 9.95512 8.13653 9.74135 8.13653C9.38495 8.13653 9.35395 8.0792 9.35395 7.43923V6.74192H10.1071H10.8616L11.0586 5.81221L11.2553 4.88248H12.1477H13.0388L13.2556 5.77346L13.4726 6.66445L14.28 6.71095L15.0873 6.75742V7.44699C15.0873 8.06835 15.0517 8.13653 14.7217 8.13653H14.3544L14.7961 10.3447C15.0376 11.5595 15.4235 13.4762 15.6514 14.6059L16.0682 16.6591H16.6617H17.2566V17.3564C17.2566 17.8646 17.1931 18.0584 17.0243 18.0723C16.4679 18.1187 16.4061 18.1496 16.4323 18.3667C16.4587 18.5946 17.4999 23.9762 17.6596 24.7168C17.7387 25.0841 17.7122 25.0747 17.1513 24.5418C16.8258 24.2333 15.6885 23.3424 14.6223 22.5613L12.6856 21.1419L12.6406 22.3104C12.5971 23.4274 12.5786 23.4771 12.2206 23.4771C11.8627 23.4771 11.8442 23.4274 11.8006 22.3257L11.7557 21.173L9.66853 22.7271C8.5203 23.5809 7.42631 24.4486 7.23572 24.6532C7.04511 24.8594 6.86538 25.0267 6.83438 25.0267C6.80339 25.0267 7.08076 23.5174 7.4511 21.6733ZM9.89011 21.551C10.5689 21.0334 11.2227 20.5345 11.3436 20.4431C11.5203 20.3084 11.3404 20.1037 10.4324 19.3972C9.80953 18.9137 9.25169 18.5184 9.19281 18.5184C9.10137 18.5184 8.72794 20.1084 8.32196 22.2236C8.20108 22.8512 8.16234 22.868 9.89011 21.551ZM15.8467 20.7081C15.6561 19.6807 15.4514 18.7619 15.3926 18.6658C15.3229 18.5526 14.8982 18.782 14.187 19.3181C13.5841 19.7737 13.0868 20.1951 13.0821 20.2557C13.0715 20.3781 16.0652 22.6915 16.144 22.6218C16.172 22.5969 16.0373 21.7369 15.8467 20.7081ZM11.8333 18.8284V18.2087H11.0415H10.2495L10.9995 18.8284C11.4133 19.1693 11.7683 19.4484 11.7915 19.4484C11.8147 19.4484 11.8333 19.1693 11.8333 18.8284ZM13.5935 18.8981C13.9888 18.5961 14.3126 18.317 14.3126 18.2784C14.3126 18.2396 13.9267 18.2087 13.4541 18.2087H12.5956L12.6312 18.8284C12.6515 19.1693 12.715 19.4484 12.7706 19.4484C12.828 19.4484 13.1968 19.2005 13.5935 18.8981ZM11.8286 16.5956C11.8224 16.4126 9.98454 14.423 9.90405 14.513C9.80332 14.6262 9.39116 16.6452 9.45624 16.7102C9.61274 16.8652 11.8333 16.7582 11.8286 16.5956ZM14.9803 16.6188C14.9649 16.5538 14.9029 16.1709 14.8426 15.7665C14.6364 14.3689 14.6332 14.3674 13.5594 15.4862C13.0247 16.0438 12.6265 16.5647 12.6762 16.6452C12.7832 16.817 15.0238 16.7908 14.9803 16.6188ZM11.8333 13.7924C11.8333 12.9819 11.7806 12.3233 11.7171 12.3266C11.6536 12.3295 11.2956 12.6086 10.9236 12.9463L10.2448 13.5583L10.9733 14.4121C11.3745 14.8803 11.7309 15.2644 11.7683 15.2644C11.8039 15.2644 11.8333 14.6027 11.8333 13.7924ZM13.7253 14.138C14.2491 13.4777 14.232 13.4251 13.2047 12.6116L12.608 12.1389V13.7257V15.3126L12.935 15.0165C13.1147 14.8553 13.4712 14.4588 13.7253 14.138ZM11.201 11.6369L11.5777 11.2357L11.2133 10.8483C11.0136 10.6344 10.7951 10.4609 10.7283 10.4609C10.5842 10.4609 10.2851 11.4789 10.2851 11.9778C10.2836 12.266 10.3333 12.3048 10.5548 12.1854C10.7036 12.1048 10.9951 11.8586 11.201 11.6369ZM14.0026 11.389C13.9159 10.9335 13.8259 10.543 13.8012 10.5182C13.7779 10.495 13.5518 10.6468 13.2991 10.856L12.8403 11.2372L13.4479 11.7795C13.7811 12.0771 14.0785 12.2971 14.1064 12.2677C14.1359 12.2398 14.0879 11.8431 14.0026 11.389ZM11.8333 9.22123C11.8333 8.17993 11.8177 8.13653 11.463 8.13653C10.7765 8.13653 10.688 9.21193 11.3204 9.87203C11.548 10.1107 11.7574 10.3059 11.7853 10.3059C11.8115 10.3059 11.8333 9.8178 11.8333 9.22123ZM13.5626 8.75636C13.4712 8.31628 13.3703 8.2047 13.028 8.16443L12.608 8.11638V9.24758V10.3787L13.1412 9.83794C13.6168 9.35758 13.6632 9.23981 13.5626 8.75636Z" fill="white"/>
<path d="M11.4222 43.6229C9.00593 43.6323 7.01196 43.6232 4.84585 42.3818C4.19611 42.0093 3.59148 41.5851 3.05473 41.0608C1.70598 39.7638 0.767573 38.0994 0.356173 36.2739C-0.101872 34.3097 0.10127 31.4171 0.0964741 29.3251L0.0823599 16.8988L0.074919 12.1894C0.0783302 8.61681 0.105917 5.67141 2.82136 2.94111C3.32481 2.43501 3.92262 2.01417 4.5333 1.64815C7.31848 -0.0213276 10.1032 0.273077 13.1842 0.258666L13.7594 0.254785C14.5675 0.252017 15.3951 0.241165 16.198 0.339399C18.3678 0.605302 20.3023 1.64692 21.8364 3.18175C23.1522 4.49794 23.9657 6.18757 24.3353 8.00427C24.5647 9.13 24.515 10.2536 24.5162 11.3946L24.5204 15.0763C24.4883 19.4897 24.4883 23.9032 24.5204 28.3163L24.5273 32.2079C24.5305 34.7579 24.5214 36.7634 23.1544 39.041C22.7624 39.6943 22.3145 40.3209 21.7734 40.8598C18.6548 43.9665 15.4272 43.6246 11.4222 43.6229ZM8.7515 1.46483C6.53889 1.65777 4.57592 2.70929 3.1542 4.41474C2.22153 5.53335 1.63704 6.76634 1.41017 8.20603C1.20471 9.51075 1.3155 10.9514 1.31735 12.2724L1.3172 19.2924L1.31967 29.6524L1.31767 33.0184C1.31767 33.7145 1.29132 34.423 1.35564 35.1166C1.54561 37.1683 2.71692 39.2548 4.30011 40.5506C6.89358 42.6732 8.98022 42.4188 12.0719 42.4208C13.3835 42.4218 14.7074 42.4703 16.0175 42.4038C18.1256 42.1692 20.1659 41.0912 21.4948 39.4268C22.4032 38.2831 22.996 36.9213 23.2138 35.4772C23.4273 34.0762 23.3057 32.5475 23.303 31.1311L23.3173 24.1628L23.3047 13.7753L23.3067 10.8006C23.3079 10.1321 23.3336 9.45031 23.2595 8.78493C23.0123 6.56008 21.7941 4.54721 20.049 3.17028C19.5301 2.76073 18.9645 2.45763 18.3594 2.19622C16.1204 1.22931 14.2281 1.4526 11.8652 1.44548C10.872 1.44254 9.72788 1.35172 8.7515 1.46483Z" fill="#FEFEFE"/>
<path d="M11.1399 28.2253V32.2215H12.7351C13.4861 32.2215 14.0589 32.046 14.4536 31.6952C14.8483 31.3389 15.0456 30.8456 15.0456 30.2152C15.0456 29.5902 14.8483 29.1024 14.4536 28.7515C14.0644 28.4007 13.4943 28.2253 12.7433 28.2253H11.1399ZM14.429 36.637H11.1399V38.3144H9.0185V36.637H7.47266V35.2309H9.0185V33.9071H7.47266V32.2461H9.0185V26.4492H13.36C14.5057 26.4492 15.4321 26.8 16.1392 27.5017C16.8464 28.2034 17.2 29.1024 17.2 30.1987C17.2 31.2896 16.8354 32.1858 16.1064 32.8875C15.3828 33.5837 14.4372 33.9318 13.2696 33.9318H11.1399V35.2309H14.429V36.637Z" fill="white"/>
<path d="M36.5955 23.4784L35.7815 25.0105V30.1572H33.1484V13.4004H35.7815V20.7014L39.2765 13.4004H41.8619L38.1993 20.869L41.8619 30.1572H39.1569L36.5955 23.4784ZM52.0373 30.1572H49.3802L48.9254 27.117H45.6936L45.2388 30.1572H42.821L45.5021 13.4004H49.3563L52.0373 30.1572ZM46.0288 24.8429H48.5662L47.2974 16.3687L46.0288 24.8429ZM56.3528 30.1572H53.7197V13.4004H62.0263V30.1572H59.345V15.7942H56.3528V30.1572ZM67.1194 30.1572H64.4144V13.4004H66.7602V23.4304L69.4652 13.4004H72.7687V30.1572H70.3989V18.0204L67.1194 30.1572ZM74.4375 13.4004H82.5768V15.7942H79.8238V30.1572H77.1905V15.7942H74.4375V13.4004ZM92.759 30.1572H90.1017L89.6469 27.117H86.4154L85.9606 30.1572H83.5425L86.2238 13.4004H90.0778L92.759 30.1572ZM86.7503 24.8429H89.288L88.0192 16.3687L86.7503 24.8429ZM101.838 15.7942H98.7742V25.9918C98.7742 26.8377 98.6704 27.5321 98.463 28.0746C98.2553 28.6172 97.976 29.0481 97.625 29.3672C97.274 29.6705 96.8669 29.8858 96.4041 30.0136C95.9572 30.1412 95.4866 30.2052 94.9917 30.2052C94.7524 30.2052 94.5368 30.2052 94.3455 30.2052C94.1539 30.2052 93.9466 30.1891 93.7231 30.1572V27.7634C93.8667 27.7792 94.0182 27.7874 94.1779 27.7874C94.3374 27.7874 94.4891 27.7874 94.6328 27.7874C95.0475 27.7874 95.3988 27.6836 95.686 27.4762C95.9893 27.2685 96.1409 26.8377 96.1409 26.1834V13.4004H104.471V30.1572H101.838V15.7942ZM109.499 30.1572H106.866V13.4004H109.499V20.5818H112.491V13.4004H115.173V30.1572H112.491V22.9756H109.499V30.1572ZM120.194 20.4621H123.808V22.8559H120.194V27.7634H124.742V30.1572H117.56V13.4004H124.742V15.7942H120.194V20.4621ZM131.355 27.2127H130.11C128.785 27.2127 127.796 26.8617 127.142 26.1594C126.503 25.4574 126.184 24.4278 126.184 23.0715V18.4992C126.184 17.1426 126.503 16.1133 127.142 15.411C127.796 14.709 128.785 14.3578 130.11 14.3578H131.355V13.4004H133.988V14.3578H135.233C136.557 14.3578 137.539 14.709 138.177 15.411C138.831 16.1133 139.159 17.1426 139.159 18.4992V23.0715C139.159 24.4278 138.831 25.4574 138.177 26.1594C137.539 26.8617 136.557 27.2127 135.233 27.2127H133.988V30.1572H131.355V27.2127ZM133.988 16.7516V24.8189H135.233C135.648 24.8189 135.967 24.7072 136.19 24.4837C136.414 24.2605 136.525 23.8454 136.525 23.2391V18.3316C136.525 17.7252 136.414 17.3102 136.19 17.0868C135.967 16.8633 135.648 16.7516 135.233 16.7516H133.988ZM130.11 16.7516C129.695 16.7516 129.376 16.8633 129.152 17.0868C128.929 17.3102 128.817 17.7252 128.817 18.3316V23.2391C128.817 23.8454 128.929 24.2605 129.152 24.4837C129.376 24.7072 129.695 24.8189 130.11 24.8189H131.355V16.7516H130.11ZM140.242 13.4004H148.381V15.7942H145.629V30.1572H142.995V15.7942H140.242V13.4004ZM153.944 27.7634C154.359 27.7634 154.678 27.6517 154.901 27.4282C155.125 27.2048 155.236 26.79 155.236 26.1834V23.6699C155.236 23.0633 155.125 22.6485 154.901 22.4251C154.678 22.2016 154.359 22.0899 153.944 22.0899H152.699V27.7634H153.944ZM150.066 30.1572V13.4004H152.699V19.6961H153.944C155.268 19.6961 156.25 20.0471 156.888 20.7494C157.542 21.4516 157.869 22.481 157.869 23.8375V26.0158C157.869 27.3724 157.542 28.4017 156.888 29.1039C156.25 29.8062 155.268 30.1572 153.944 30.1572H150.066Z" fill="white"/>
</g>
<defs>
<clipPath id="clip0_318_296">
<rect width="158" height="44" fill="white"/>
</clipPath>
</defs>
</svg>
