<svg width="190" height="38" viewBox="0 0 190 38" fill="none" xmlns="http://www.w3.org/2000/svg">
<g clip-path="url(#clip0_4_67)">
<path d="M45.1914 3.78428H53.3075V25.8157H62.0028V32.7734H45.1914V3.78428Z" fill="#231F20"/>
<mask id="mask0_4_67" style="mask-type:luminance" maskUnits="userSpaceOnUse" x="-199" y="-65" width="2197" height="3107">
<path d="M-198.236 3041.51H1997.81V-64.3294H-198.236V3041.51Z" fill="white"/>
</mask>
<g mask="url(#mask0_4_67)">
<path d="M65.2666 21.0531V3.78433H73.3827V20.8871C73.3827 22.669 73.7147 26.6422 78.0199 26.6422C82.3288 26.6422 82.6608 22.669 82.6608 20.8871V3.78433H90.7769V21.0531C90.7769 24.1594 90.1129 33.5999 78.0199 33.5999C65.9306 33.5999 65.2666 24.1594 65.2666 21.0531Z" fill="#231F20"/>
</g>
<path d="M96.0684 3.78428H104.184V15.9584L112.924 3.78428H122.449L111.434 17.8214L122.737 32.7734H112.592L104.184 20.3079V32.7734H96.0684V3.78428Z" fill="#231F20"/>
<path d="M159.576 3.7827H167.692V32.772H159.576V3.7827Z" fill="#231F20"/>
<path d="M173.638 3.78428H181.754V25.8157H190.453V32.7734H173.638V3.78428Z" fill="#231F20"/>
<mask id="mask1_4_67" style="mask-type:luminance" maskUnits="userSpaceOnUse" x="-199" y="-65" width="2197" height="3107">
<path d="M-198.236 3041.51H1997.81V-64.3294H-198.236V3041.51Z" fill="white"/>
</mask>
<g mask="url(#mask1_4_67)">
<path d="M146.34 18.3017C146.34 12.5798 142.821 9.74291 138.966 9.74291C135.11 9.74291 131.591 12.5798 131.591 18.3017C131.591 24.0235 135.11 26.8605 138.966 26.8605C142.821 26.8605 146.34 24.0235 146.34 18.3017ZM123.032 18.3017C123.032 10.3774 128.12 2.62289 138.966 2.62289C149.815 2.62289 154.899 10.3774 154.899 18.3017C154.899 26.2259 149.815 33.9805 138.966 33.9805C128.12 33.9805 123.032 26.2259 123.032 18.3017Z" fill="#231F20"/>
</g>
<path d="M38.6576 -0.334656H0.452515V37.9515H38.6576V-0.334656ZM16.8422 27.4349C13.6955 27.4349 11.1168 25.1035 11.1166 21.7171V6.67218C11.1169 3.76922 15.3995 3.76922 15.3998 6.67218V21.554C15.3998 23.5498 18.2806 23.6716 18.2806 21.554V6.67218C18.2809 3.76922 22.5156 3.74709 22.5638 6.67218V21.7171C22.5637 25.1588 19.9925 27.4348 16.8422 27.4349ZM8.224 33.1302C5.80407 33.1301 3.93016 31.1861 3.93005 28.8694L3.90466 6.68292C3.97107 3.81647 8.14653 3.76884 8.224 6.67218V27.4671C8.21662 28.1275 8.79629 28.8693 9.55994 28.8509H29.3226L24.2054 16.8099C24.0727 16.3488 23.9809 15.8911 23.9808 15.43C23.9808 14.9209 24.2057 14.1057 24.5414 13.4417L29.2377 5.70929C29.5844 5.01583 30.2849 4.5473 31.1185 4.51398C32.2879 4.46233 33.2874 5.26607 33.3392 6.50909C33.3429 6.75626 33.2842 7.29881 33.1625 7.5423L28.8724 14.4818C28.4039 15.2602 28.4741 15.8729 28.6918 16.4632L35.2064 33.1302H8.224Z" fill="#E22739"/>
</g>
<defs>
<clipPath id="clip0_4_67">
<rect width="190" height="38" fill="white"/>
</clipPath>
</defs>
</svg>
