<svg width="24" height="18" viewBox="0 0 24 18" fill="none" xmlns="http://www.w3.org/2000/svg">
<rect x="0.333008" y="12.498" width="23.3333" height="4.66667" fill="#0292FF"/>
<rect x="7.93066" y="8.99805" width="2.33333" height="5.37329" transform="rotate(38.8999 7.93066 8.99805)" fill="#0292FF"/>
<rect width="2.33333" height="5.37329" transform="matrix(-0.778244 0.627962 0.627962 0.778244 16.1494 8.99805)" fill="#0292FF"/>
<path d="M23.6641 17.165L0.331055 17.1182L9.66406 10.165L11.998 12.0391L14.3311 10.1631L23.6641 17.165ZM23.667 17.1631L14.334 10.1631L23.667 1.8916V17.1631ZM9.66699 10.1631L0.333984 17.1035V1.8916L9.66699 10.1631ZM14.3311 7.99219L13.791 8.46191L11.9971 10.0215L10.2031 8.46191L9.66406 7.99219L1.49023 0.884766H22.5049L14.3311 7.99219Z" fill="#0292FF"/>
</svg>
