<svg width="850" height="850" viewBox="0 0 850 850" fill="none" xmlns="http://www.w3.org/2000/svg">
<path d="M62.197 424.998C62.197 625.37 224.63 787.803 425.002 787.803C625.373 787.803 787.807 625.37 787.807 424.998C787.807 224.627 625.373 62.1934 425.002 62.1934C224.63 62.1934 62.197 224.627 62.197 424.998ZM744.27 424.998C744.27 601.325 601.329 744.266 425.002 744.266C248.675 744.266 105.734 601.325 105.734 424.998C105.734 248.671 248.675 105.73 425.002 105.73C601.329 105.73 744.27 248.671 744.27 424.998Z" fill="white"/>
<path d="M0 425C0 659.721 190.279 850 425 850C659.721 850 850 659.721 850 425C850 190.279 659.721 0 425 0C190.279 0 0 190.279 0 425ZM807.5 425C807.5 636.249 636.249 807.5 425 807.5C213.751 807.5 42.5 636.249 42.5 425C42.5 213.751 213.751 42.5 425 42.5C636.249 42.5 807.5 213.751 807.5 425Z" fill="white"/>
<path d="M124.39 425C124.39 591.023 258.977 725.61 425 725.61C591.022 725.61 725.609 591.023 725.609 425C725.609 258.978 591.022 124.391 425 124.391C258.977 124.391 124.39 258.978 124.39 425ZM677.512 425C677.512 564.459 564.458 677.513 425 677.513C285.541 677.513 172.487 564.459 172.487 425C172.487 285.542 285.541 172.488 425 172.488C564.458 172.488 677.512 285.542 677.512 425Z" fill="white"/>
<path d="M186.587 424.999C186.587 556.671 293.329 663.413 425.001 663.413C556.674 663.413 663.416 556.671 663.416 424.999C663.416 293.326 556.674 186.584 425.001 186.584C293.329 186.584 186.587 293.326 186.587 424.999ZM615.733 424.999C615.733 530.337 530.34 615.73 425.001 615.73C319.663 615.73 234.27 530.337 234.27 424.999C234.27 319.66 319.663 234.267 425.001 234.267C530.34 234.267 615.733 319.66 615.733 424.999Z" fill="white"/>
<path d="M248.784 424.997C248.784 522.32 327.68 601.216 425.003 601.216C522.326 601.216 601.223 522.32 601.223 424.997C601.223 327.674 522.326 248.777 425.003 248.777C327.68 248.777 248.784 327.674 248.784 424.997ZM551.881 424.997C551.881 495.07 495.076 551.875 425.003 551.875C354.93 551.875 298.125 495.07 298.125 424.997C298.125 354.924 354.93 298.119 425.003 298.119C495.076 298.119 551.881 354.924 551.881 424.997Z" fill="white"/>
<path d="M310.977 424.999C310.977 487.973 362.027 539.023 425.001 539.023C487.975 539.023 539.025 487.973 539.025 424.999C539.025 362.025 487.975 310.975 425.001 310.975C362.027 310.975 310.977 362.025 310.977 424.999ZM493.416 424.999C493.416 462.783 462.785 493.414 425.001 493.414C387.217 493.414 356.586 462.783 356.586 424.999C356.586 387.215 387.217 356.584 425.001 356.584C462.785 356.584 493.416 387.215 493.416 424.999Z" fill="white"/>
</svg>
