<svg width="20" height="20" viewBox="0 0 20 20" fill="none" xmlns="http://www.w3.org/2000/svg">
<path d="M16.9193 2.5H10.5366C10.3827 2.50003 10.2351 2.56119 10.1264 2.67001L3.13963 9.65674C2.73003 10.0674 2.5 10.6237 2.5 11.2037C2.5 11.7837 2.73003 12.34 3.13963 12.7506L7.24892 16.8599C7.6594 17.2698 8.21577 17.5 8.79585 17.5C9.37594 17.5 9.93231 17.2698 10.3428 16.8599L17.3295 9.87317C17.4383 9.76437 17.4995 9.61681 17.4995 9.46293V3.08024C17.4995 2.92635 17.4384 2.77877 17.3296 2.66995C17.2208 2.56113 17.0732 2.5 16.9193 2.5ZM13.4378 8.30244C13.0935 8.30244 12.757 8.20035 12.4707 8.00908C12.1844 7.8178 11.9613 7.54594 11.8296 7.22786C11.6978 6.90978 11.6634 6.55978 11.7305 6.22211C11.7977 5.88444 11.9635 5.57427 12.2069 5.33083C12.4504 5.08738 12.7605 4.92159 13.0982 4.85443C13.4359 4.78726 13.7859 4.82173 14.104 4.95348C14.422 5.08524 14.6939 5.30835 14.8852 5.59461C15.0765 5.88087 15.1785 6.21743 15.1785 6.56171C15.1785 7.02338 14.9951 7.46615 14.6687 7.7926C14.3422 8.11905 13.8995 8.30244 13.4378 8.30244Z" fill="#0292FF"/>
</svg>
