<svg width="40" height="40" viewBox="0 0 40 40" fill="none" xmlns="http://www.w3.org/2000/svg">
<path d="M9.95215 13.1133C9.95215 13.1133 9.42994 13.5673 9.34082 13.6729C8.47567 14.6976 8.11082 16.0425 8.3418 17.3633C8.5728 18.6846 9.37284 19.827 10.5352 20.498C11.3218 20.9521 12.2113 21.1923 13.1084 21.1924C14.0895 21.1924 15.0341 20.9022 15.8389 20.3535C15.855 20.3425 15.8712 20.3316 15.8867 20.3203L18.582 18.3857C18.8427 18.2345 19.0597 18.1515 19.1982 18.1514C19.3926 18.1514 19.7336 18.3138 20.1328 18.5967C20.1453 18.6058 20.1581 18.6145 20.1709 18.623L29.2822 24.8184L30.5215 26.1748C31.4436 27.2002 29.8353 28.6143 28.2344 28.6143C27.7447 28.6142 27.2557 28.4821 26.8398 28.166C26.6814 28.9956 25.6152 29.4326 24.5967 29.4326C23.9563 29.4326 23.3348 29.2602 22.9697 28.9043C22.5689 29.7488 21.4491 30.1894 20.3701 30.1895C19.5028 30.1895 18.6614 29.9047 18.2412 29.3154C18.0868 30.1342 17.1514 30.6904 16.1357 30.6904C15.6606 30.6904 15.168 30.569 14.7295 30.2959L7.84473 26.2363V13.1133H9.95215ZM39.0566 10C39.5776 10 40 10.4224 40 10.9434V27.7842C40 28.3051 39.5776 28.7275 39.0566 28.7275H35.5078C34.987 28.7275 34.5655 28.305 34.5654 27.7842V10.9434C34.5654 10.4225 34.987 10.0001 35.5078 10H39.0566ZM4.49219 10C5.01298 10.0002 5.43457 10.4225 5.43457 10.9434V27.374C5.43437 27.8947 5.01286 28.3162 4.49219 28.3164H0.943359C0.422545 28.3164 0.000195687 27.8948 0 27.374V10.9434C0 10.4224 0.422424 10 0.943359 10H4.49219ZM32.1729 10.5996C32.1613 10.7122 32.1562 10.8277 32.1562 10.9434V23.2041L31.4404 23.3721L21.5264 16.6309C20.6823 16.0328 19.9377 15.7413 19.1992 15.7412C18.5678 15.7412 17.9406 15.9547 17.2598 16.3691L14.4814 18.3623C14.0504 18.656 13.5745 18.7821 13.1094 18.7822C12.6193 18.7822 12.1409 18.6425 11.7402 18.4111C10.602 17.7541 10.3347 16.2309 11.1816 15.2275L15.1895 11.8682C16.4312 10.8831 16.912 10.5993 18.4287 10.5996H32.1729Z" fill="white"/>
</svg>
