<svg width="40" height="40" viewBox="0 0 40 40" fill="none" xmlns="http://www.w3.org/2000/svg">
<path d="M29.0597 36.6633H35.6933C35.974 36.6633 36.2036 36.4337 36.2036 36.1531V26.9681C36.2036 26.6875 35.974 26.4578 35.6933 26.4578H29.0597C28.7791 26.4578 28.5494 26.6875 28.5494 26.9681V36.1531C28.5494 36.4338 28.7791 36.6633 29.0597 36.6633ZM16.813 36.1531V19.8241C16.813 19.5435 17.0427 19.3139 17.3233 19.3139H23.9569C24.2376 19.3139 24.4672 19.5435 24.4672 19.8241V36.1531C24.4672 36.4337 24.2376 36.6633 23.9569 36.6633H17.3233C17.0427 36.6633 16.813 36.4338 16.813 36.1531ZM3.90243 12.4252L8.97265 3.64581C9.21549 3.22483 9.61351 3.22483 9.85641 3.64581L14.9255 12.4252C15.1684 12.8461 14.9699 13.1906 14.4836 13.1906H12.7309V36.1531C12.7309 36.4338 12.5012 36.6634 12.2205 36.6634H6.60744C6.32678 36.6634 6.09716 36.4338 6.09716 36.1531V13.1906H4.34435C3.85854 13.1905 3.6596 12.8461 3.90243 12.4252Z" fill="white"/>
</svg>
