<svg width="850" height="850" viewBox="0 0 850 850" fill="none" xmlns="http://www.w3.org/2000/svg">
<path d="M425.002 62.1934C371.596 62.1934 318.85 73.9837 270.527 96.7226C222.204 119.461 179.498 152.588 145.456 193.738L179.001 221.489C208.958 185.277 246.54 156.126 289.064 136.116C331.588 116.105 378.005 105.73 425.002 105.73V62.1934Z" fill="#1D4ED8"/>
<path d="M425 0C326.101 1.17936e-06 230.298 34.4912 154.095 97.5319C77.8917 160.573 26.0598 248.216 7.52789 345.363C-11.0039 442.51 4.92462 543.079 52.5697 629.745C100.215 716.411 176.593 783.748 268.547 820.155L284.192 780.64C201.434 747.873 132.693 687.27 89.8127 609.271C46.9322 531.271 32.5964 440.759 49.2751 353.327C65.9538 265.894 112.602 187.015 181.185 130.279C249.768 73.5421 335.991 42.5 425 42.5V0Z" fill="#1E40AF"/>
<path d="M425 124.391C348.54 124.391 274.954 153.525 219.218 205.865L252.143 240.927C298.962 196.961 360.774 172.488 425 172.488V124.391Z" fill="#2563EB"/>
<path d="M425.001 186.584C364.361 186.584 306 209.691 261.795 251.202L294.437 285.961C329.8 252.752 376.489 234.267 425.001 234.267V186.584Z" fill="#3B82F6"/>
<path d="M425.003 248.777C387.789 248.777 351.531 260.559 321.424 282.432L350.426 322.35C372.103 306.601 398.209 298.119 425.003 298.119V248.777Z" fill="#60A5FA"/>
<path d="M425.001 310.975C405.795 310.975 386.9 315.826 370.069 325.079L392.042 365.047C402.14 359.495 413.477 356.584 425.001 356.584V310.975Z" fill="#93C5FD"/>
</svg>
