<svg width="154" height="100" viewBox="0 0 154 100" fill="none" xmlns="http://www.w3.org/2000/svg">
<path d="M78.4466 72.6893H84.2698V41.2586H78.4466V72.6893ZM71.4614 72.6893H77.2833V34.2734H71.4614V72.6893ZM64.4775 72.6893H70.2981V41.2586H64.4775V72.6893Z" fill="#D9BB6C"/>
<path d="M98.2349 37.7599L92.4183 43.5805V23.7736H98.2402M91.2537 44.7425L85.4318 50.567V16.7817H91.2537M78.4466 40.0906H84.2712V9.81385H78.4466V40.0906ZM71.4614 33.1054H77.282V2.83398H71.4614V33.1054ZM64.4776 40.0906H70.2968V9.81385H64.4776V40.0906ZM63.3116 50.5657L57.4897 44.7425V16.7817H63.3116M50.5059 23.7736V37.7586L56.3251 43.5818V23.7736" fill="black"/>
<path d="M18.112 79.8594C21.0256 79.8594 23.4068 82.2033 23.4068 85.0677V86.1857C23.4068 88.6228 21.6832 90.6806 19.3792 91.2423L24.1722 97.164H17.2509L12.5803 91.3953H9.7519V97.164H2.8306V79.8607C2.75478 79.8607 10.9711 79.8594 18.112 79.8594ZM9.7519 87.3573H15.6323C16.5055 87.3573 17.2216 86.6545 17.2216 85.7947V85.4606C17.2216 84.5994 16.5068 83.898 15.6323 83.898H9.7519M52.467 97.1629H62.2726C65.2874 97.1629 67.7537 94.6978 67.7537 91.6844C67.7537 88.6683 65.2874 86.2046 62.2726 86.2046H55.4192C54.9067 86.2046 54.4861 85.7853 54.4861 85.2742V84.827C54.4861 84.3159 54.9054 83.898 55.4192 83.898H59.8994C60.4118 83.898 60.8311 84.3159 60.8311 84.827V85.0493H67.7458C67.5927 82.169 65.1902 79.8596 62.2726 79.8596H52.467C49.4549 79.8596 46.9872 82.3247 46.9872 85.3394C46.9872 88.3529 49.4549 90.8179 52.467 90.8179H59.3231C59.8355 90.8179 60.2561 91.2372 60.2561 91.7496V92.1955C60.2561 92.7066 59.8342 93.1272 59.3231 93.1272H54.8415C54.3291 93.1272 53.9098 92.7066 53.9098 92.1955V91.9733H46.9952C47.1469 94.8509 49.5507 97.1629 52.467 97.1629ZM83.9043 97.1629H90.8243V79.8596H83.9043V89.833L75.8277 79.8596H68.9077V97.1629H75.8277V87.1909M112.098 97.1629H119.021V90.8179H129.392V86.2046L119.021 86.1753V84.4743H130.69V79.8596H112.098M24.1762 88.4873C24.1762 94.1548 27.8804 97.1629 35.197 97.1629C42.5149 97.1629 46.2192 94.1548 46.2192 88.4873C46.2192 82.8185 42.5149 79.8596 35.197 79.8596C27.8804 79.8596 24.1762 82.8185 24.1762 88.4873ZM35.197 83.8966C37.4464 83.8966 39.2846 85.4606 39.2846 87.3772V89.6453C39.2846 91.5606 37.4464 93.1286 35.197 93.1286C32.9502 93.1286 31.1108 91.5606 31.1108 89.6453V87.3772C31.1108 85.4606 32.9502 83.8966 35.197 83.8966ZM92.1726 97.1629H111.33V92.5496H99.0926V90.8179H109.463V86.2046L99.0926 86.1753V84.4743H110.762V79.8596H92.1726M137.701 97.1629H144.625V84.4743H150.694V79.861H131.459V84.4743H137.701" fill="black"/>
</svg>
