<svg width="188" height="188" viewBox="0 0 188 188" fill="none" xmlns="http://www.w3.org/2000/svg">
<path d="M1 160C1.55228 160 2 160.448 2 161V180C2 183.314 4.68629 186 8 186H27C27.5523 186 28 186.448 28 187C28 187.552 27.5523 188 27 188H8C3.58172 188 0 184.418 0 180V161C0 160.448 0.447715 160 1 160Z" fill="#0292FF"/>
<path d="M187 28C186.448 28 186 27.5523 186 27V8C186 4.68629 183.314 2 180 2L161 2C160.448 2 160 1.55228 160 1C160 0.447716 160.448 0 161 0L180 0C184.418 0 188 3.58172 188 8V27C188 27.5523 187.552 28 187 28Z" fill="#0292FF"/>
<path d="M160 187C160 186.448 160.448 186 161 186H180C183.314 186 186 183.314 186 180V161C186 160.448 186.448 160 187 160C187.552 160 188 160.448 188 161V180C188 184.418 184.418 188 180 188H161C160.448 188 160 187.552 160 187Z" fill="#0292FF"/>
<path d="M28 1C28 1.55228 27.5523 2 27 2L8 2C4.68629 2 2 4.68629 2 8V27C2 27.5523 1.55228 28 1 28C0.447716 28 0 27.5523 0 27V8C0 3.58172 3.58172 0 8 0L27 0C27.5523 0 28 0.447715 28 1Z" fill="#0292FF"/>
</svg>
