<svg width="52" height="40" viewBox="0 0 52 40" fill="none" xmlns="http://www.w3.org/2000/svg">
<path d="M0.214286 34C0.332632 34 0.428571 34.0959 0.428571 34.2143V38.6484C0.428571 39.1582 0.841847 39.5714 1.35165 39.5714H5.78571C5.90406 39.5714 6 39.6674 6 39.7857C6 39.9041 5.90406 40 5.78571 40H1.23077C0.551034 40 0 39.449 0 38.7692V34.2143C0 34.0959 0.095939 34 0.214286 34Z" fill="#0292FF"/>
<path d="M51.7857 6C51.6674 6 51.5714 5.90406 51.5714 5.78571V1.35165C51.5714 0.841847 51.1582 0.428571 50.6484 0.428571L46.2143 0.428571C46.0959 0.428571 46 0.332633 46 0.214285C46 0.0959387 46.0959 0 46.2143 0L50.7692 0C51.449 0 52 0.551034 52 1.23077V5.78571C52 5.90406 51.9041 6 51.7857 6Z" fill="#0292FF"/>
<path d="M46 39.7857C46 39.6674 46.0959 39.5714 46.2143 39.5714H50.6484C51.1582 39.5714 51.5714 39.1582 51.5714 38.6484V34.2143C51.5714 34.0959 51.6674 34 51.7857 34C51.9041 34 52 34.0959 52 34.2143V38.7692C52 39.449 51.449 40 50.7692 40H46.2143C46.0959 40 46 39.9041 46 39.7857Z" fill="#0292FF"/>
<path d="M6 0.214286C6 0.332632 5.90406 0.428571 5.78571 0.428571L1.35165 0.428571C0.841847 0.428571 0.428571 0.841847 0.428571 1.35165V5.78571C0.428571 5.90406 0.332633 6 0.214285 6C0.0959387 6 0 5.90406 0 5.78571V1.23077C0 0.551034 0.551034 0 1.23077 0L5.78571 0C5.90406 0 6 0.095939 6 0.214286Z" fill="#0292FF"/>
</svg>
